<ttFont>
    <TTGlyph name=".notdef" xMin="50" yMin="0" xMax="450" yMax="750">
      <contour>
        <pt x="50" y="0" on="1"/>
        <pt x="50" y="750" on="1"/>
        <pt x="450" y="750" on="1"/>
        <pt x="450" y="0" on="1"/>
      </contour>
      <contour>
        <pt x="400" y="50" on="1"/>
        <pt x="400" y="700" on="1"/>
        <pt x="100" y="700" on="1"/>
        <pt x="100" y="50" on="1"/>
      </contour>
    </TTGlyph>
    <TTGlyph name="A" xMin="-13" yMin="0" xMax="469" yMax="619">
      <contour>
        <pt x="383" y="0" on="1"/>
        <pt x="384" y="162" on="1"/>
        <pt x="146" y="162" on="1"/>
        <pt x="70" y="0" on="1"/>
        <pt x="-13" y="0" on="1"/>
        <pt x="20" y="66" on="0"/>
        <pt x="100" y="220" on="0"/>
        <pt x="187" y="382" on="0"/>
        <pt x="280" y="545" on="0"/>
        <pt x="327" y="619" on="1"/>
        <pt x="425" y="619" on="1"/>
        <pt x="436" y="545" on="0"/>
        <pt x="451" y="382" on="0"/>
        <pt x="461" y="220" on="0"/>
        <pt x="467" y="66" on="0"/>
        <pt x="469" y="0" on="1"/>
      </contour>
      <contour>
        <pt x="357" y="547" on="1"/>
        <pt x="319" y="484" on="0"/>
        <pt x="227" y="318" on="0"/>
        <pt x="181" y="230" on="1"/>
        <pt x="381" y="230" on="1"/>
        <pt x="379" y="320" on="0"/>
        <pt x="365" y="487" on="0"/>
      </contour>
    </TTGlyph>
    <TTGlyph name="AE" xMin="8" yMin="0" xMax="601" yMax="619">
      <contour>
        <pt x="245" y="0" on="1"/>
        <pt x="285" y="162" on="1"/>
        <pt x="164" y="162" on="1"/>
        <pt x="88" y="0" on="1"/>
        <pt x="8" y="0" on="1"/>
        <pt x="93" y="174" on="0"/>
        <pt x="259" y="479" on="0"/>
        <pt x="348" y="619" on="1"/>
        <pt x="601" y="619" on="1"/>
        <pt x="584" y="549" on="1"/>
        <pt x="456" y="549" on="1"/>
        <pt x="411" y="359" on="1"/>
        <pt x="515" y="359" on="1"/>
        <pt x="498" y="289" on="1"/>
        <pt x="394" y="289" on="1"/>
        <pt x="341" y="70" on="1"/>
        <pt x="482" y="70" on="1"/>
        <pt x="465" y="0" on="1"/>
      </contour>
      <contour>
        <pt x="382" y="566" on="1"/>
        <pt x="332" y="478" on="0"/>
        <pt x="237" y="304" on="0"/>
        <pt x="199" y="230" on="1"/>
        <pt x="301" y="230" on="1"/>
      </contour>
    </TTGlyph>
    <TTGlyph name="AEacute" xMin="8" yMin="0" xMax="601" yMax="830">
      <component glyphName="AE" x="0" y="0" flags="0x214"/>
      <component glyphName="acute" x="94" y="139" flags="0x4"/>
    </TTGlyph>
    <TTGlyph name="Aacute" xMin="-13" yMin="0" xMax="525" yMax="830">
      <component glyphName="A" x="0" y="0" flags="0x214"/>
      <component glyphName="acute" x="34" y="139" flags="0x4"/>
    </TTGlyph>
    <TTGlyph name="Abreve" xMin="-13" yMin="0" xMax="540" yMax="808">
      <component glyphName="A" x="0" y="0" flags="0x214"/>
      <component glyphName="breve" x="36" y="139" flags="0x4"/>
    </TTGlyph>
    <TTGlyph name="Acircumflex" xMin="-13" yMin="0" xMax="516" yMax="826">
      <component glyphName="A" x="0" y="0" flags="0x214"/>
      <component glyphName="circumflex" x="34" y="139" flags="0x4"/>
    </TTGlyph>
    <TTGlyph name="Adieresis" xMin="-13" yMin="0" xMax="547" yMax="794">
      <component glyphName="A" x="0" y="0" flags="0x214"/>
      <component glyphName="dieresis" x="34" y="139" flags="0x4"/>
    </TTGlyph>
    <TTGlyph name="Agrave" xMin="-13" yMin="0" xMax="469" yMax="830">
      <component glyphName="A" x="0" y="0" flags="0x214"/>
      <component glyphName="grave" x="34" y="139" flags="0x4"/>
    </TTGlyph>
    <TTGlyph name="Alpha" xMin="-13" yMin="0" xMax="469" yMax="619">
      <component glyphName="A" x="0" y="0" flags="0x214"/>
    </TTGlyph>
    <TTGlyph name="Alphatonos" xMin="-6" yMin="0" xMax="476" yMax="633">
      <component glyphName="A" x="7" y="0" flags="0x214"/>
      <component glyphName="tonos.cap" x="-156" y="0" flags="0x4"/>
    </TTGlyph>
    <TTGlyph name="Amacron" xMin="-13" yMin="0" xMax="536" yMax="774">
      <component glyphName="A" x="0" y="0" flags="0x214"/>
      <component glyphName="macron" x="36" y="139" flags="0x4"/>
    </TTGlyph>
    <TTGlyph name="Aogonek" xMin="-13" yMin="-167" xMax="469" yMax="619">
      <contour>
        <pt x="391" y="-167" on="1"/>
        <pt x="341" y="-167" on="0"/>
        <pt x="302" y="-136" on="0"/>
        <pt x="302" y="-111" on="1"/>
        <pt x="302" y="-87" on="0"/>
        <pt x="334" y="-42" on="0"/>
        <pt x="356" y="-24" on="1"/>
        <pt x="365" y="-16" on="0"/>
        <pt x="380" y="-5" on="0"/>
        <pt x="387" y="0" on="1"/>
        <pt x="383" y="0" on="1"/>
        <pt x="384" y="162" on="1"/>
        <pt x="146" y="162" on="1"/>
        <pt x="70" y="0" on="1"/>
        <pt x="-13" y="0" on="1"/>
        <pt x="20" y="66" on="0"/>
        <pt x="100" y="220" on="0"/>
        <pt x="187" y="382" on="0"/>
        <pt x="280" y="545" on="0"/>
        <pt x="327" y="619" on="1"/>
        <pt x="425" y="619" on="1"/>
        <pt x="436" y="545" on="0"/>
        <pt x="451" y="382" on="0"/>
        <pt x="461" y="220" on="0"/>
        <pt x="467" y="66" on="0"/>
        <pt x="469" y="0" on="1"/>
        <pt x="458" y="-7" on="0"/>
        <pt x="435" y="-24" on="0"/>
        <pt x="422" y="-35" on="1"/>
        <pt x="411" y="-43" on="0"/>
        <pt x="381" y="-72" on="0"/>
        <pt x="381" y="-90" on="1"/>
        <pt x="381" y="-99" on="0"/>
        <pt x="396" y="-110" on="0"/>
        <pt x="414" y="-110" on="1"/>
        <pt x="422" y="-110" on="0"/>
        <pt x="441" y="-106" on="0"/>
        <pt x="449" y="-104" on="1"/>
        <pt x="442" y="-157" on="1"/>
        <pt x="420" y="-167" on="0"/>
      </contour>
      <contour>
        <pt x="357" y="547" on="1"/>
        <pt x="319" y="484" on="0"/>
        <pt x="227" y="318" on="0"/>
        <pt x="181" y="230" on="1"/>
        <pt x="381" y="230" on="1"/>
        <pt x="379" y="320" on="0"/>
        <pt x="365" y="487" on="0"/>
      </contour>
    </TTGlyph>
    <TTGlyph name="Aring" xMin="-13" yMin="0" xMax="470" yMax="749">
      <contour>
        <pt x="383" y="0" on="1"/>
        <pt x="384" y="162" on="1"/>
        <pt x="146" y="162" on="1"/>
        <pt x="70" y="0" on="1"/>
        <pt x="-13" y="0" on="1"/>
        <pt x="17" y="61" on="0"/>
        <pt x="93" y="208" on="0"/>
        <pt x="178" y="365" on="0"/>
        <pt x="267" y="522" on="0"/>
        <pt x="311" y="593" on="1"/>
        <pt x="300" y="605" on="0"/>
        <pt x="286" y="638" on="0"/>
        <pt x="286" y="658" on="1"/>
        <pt x="286" y="700" on="0"/>
        <pt x="341" y="749" on="0"/>
        <pt x="378" y="749" on="1"/>
        <pt x="415" y="749" on="0"/>
        <pt x="470" y="700" on="0"/>
        <pt x="470" y="658" on="1"/>
        <pt x="470" y="635" on="0"/>
        <pt x="449" y="592" on="0"/>
        <pt x="430" y="580" on="1"/>
        <pt x="438" y="511" on="0"/>
        <pt x="451" y="356" on="0"/>
        <pt x="461" y="202" on="0"/>
        <pt x="467" y="58" on="0"/>
        <pt x="469" y="0" on="1"/>
      </contour>
      <contour>
        <pt x="357" y="547" on="1"/>
        <pt x="319" y="484" on="0"/>
        <pt x="227" y="318" on="0"/>
        <pt x="181" y="230" on="1"/>
        <pt x="381" y="230" on="1"/>
        <pt x="379" y="320" on="0"/>
        <pt x="365" y="487" on="0"/>
      </contour>
      <contour>
        <pt x="425" y="658" on="1"/>
        <pt x="425" y="681" on="0"/>
        <pt x="398" y="707" on="0"/>
        <pt x="378" y="707" on="1"/>
        <pt x="358" y="707" on="0"/>
        <pt x="331" y="681" on="0"/>
        <pt x="331" y="658" on="1"/>
        <pt x="331" y="635" on="0"/>
        <pt x="358" y="609" on="0"/>
        <pt x="378" y="609" on="1"/>
        <pt x="398" y="609" on="0"/>
        <pt x="425" y="635" on="0"/>
      </contour>
    </TTGlyph>
    <TTGlyph name="Aringacute" xMin="-8" yMin="0" xMax="487" yMax="830">
      <contour>
        <pt x="388" y="0" on="1"/>
        <pt x="388" y="162" on="1"/>
        <pt x="151" y="162" on="1"/>
        <pt x="74" y="0" on="1"/>
        <pt x="-8" y="0" on="1"/>
        <pt x="24" y="64" on="0"/>
        <pt x="100" y="204" on="0"/>
        <pt x="183" y="350" on="0"/>
        <pt x="270" y="497" on="0"/>
        <pt x="313" y="568" on="1"/>
        <pt x="296" y="590" on="0"/>
        <pt x="296" y="621" on="1"/>
        <pt x="296" y="659" on="0"/>
        <pt x="344" y="703" on="0"/>
        <pt x="379" y="703" on="1"/>
        <pt x="412" y="703" on="0"/>
        <pt x="462" y="659" on="0"/>
        <pt x="462" y="621" on="1"/>
        <pt x="462" y="598" on="0"/>
        <pt x="444" y="564" on="0"/>
        <pt x="428" y="554" on="1"/>
        <pt x="436" y="484" on="0"/>
        <pt x="451" y="340" on="0"/>
        <pt x="463" y="198" on="0"/>
        <pt x="471" y="61" on="0"/>
        <pt x="473" y="0" on="1"/>
      </contour>
      <contour>
        <pt x="359" y="527" on="1"/>
        <pt x="321" y="466" on="0"/>
        <pt x="235" y="322" on="0"/>
        <pt x="186" y="230" on="1"/>
        <pt x="386" y="230" on="1"/>
        <pt x="381" y="322" on="0"/>
        <pt x="368" y="462" on="0"/>
      </contour>
      <contour>
        <pt x="487" y="767" on="1"/>
        <pt x="343" y="723" on="1"/>
        <pt x="328" y="767" on="1"/>
        <pt x="468" y="830" on="1"/>
      </contour>
      <contour>
        <pt x="422" y="621" on="1"/>
        <pt x="422" y="642" on="0"/>
        <pt x="397" y="665" on="0"/>
        <pt x="379" y="665" on="1"/>
        <pt x="361" y="665" on="0"/>
        <pt x="336" y="642" on="0"/>
        <pt x="336" y="621" on="1"/>
        <pt x="336" y="600" on="0"/>
        <pt x="361" y="576" on="0"/>
        <pt x="379" y="576" on="1"/>
        <pt x="397" y="576" on="0"/>
        <pt x="422" y="600" on="0"/>
      </contour>
    </TTGlyph>
    <TTGlyph name="At" xMin="69" yMin="-75" xMax="559" yMax="692">
      <component glyphName="at" x="0" y="58" flags="0x214"/>
    </TTGlyph>
    <TTGlyph name="Atilde" xMin="-13" yMin="0" xMax="552" yMax="797">
      <component glyphName="A" x="0" y="0" flags="0x214"/>
      <component glyphName="tilde" x="34" y="139" flags="0x4"/>
    </TTGlyph>
    <TTGlyph name="B" xMin="45" yMin="-5" xMax="523" yMax="625">
      <contour>
        <pt x="191" y="-5" on="1"/>
        <pt x="175" y="-5" on="0"/>
        <pt x="136" y="-3" on="0"/>
        <pt x="96" y="0" on="0"/>
        <pt x="59" y="6" on="0"/>
        <pt x="45" y="10" on="1"/>
        <pt x="188" y="610" on="1"/>
        <pt x="204" y="614" on="0"/>
        <pt x="244" y="620" on="0"/>
        <pt x="286" y="623" on="0"/>
        <pt x="325" y="625" on="0"/>
        <pt x="341" y="625" on="1"/>
        <pt x="422" y="625" on="0"/>
        <pt x="523" y="566" on="0"/>
        <pt x="523" y="499" on="1"/>
        <pt x="523" y="440" on="0"/>
        <pt x="466" y="352" on="0"/>
        <pt x="400" y="326" on="1"/>
        <pt x="435" y="316" on="0"/>
        <pt x="487" y="254" on="0"/>
        <pt x="487" y="212" on="1"/>
        <pt x="487" y="108" on="0"/>
        <pt x="334" y="-5" on="0"/>
      </contour>
      <contour>
        <pt x="193" y="289" on="1"/>
        <pt x="139" y="68" on="1"/>
        <pt x="141" y="67" on="0"/>
        <pt x="181" y="64" on="0"/>
        <pt x="213" y="64" on="1"/>
        <pt x="246" y="64" on="0"/>
        <pt x="314" y="76" on="0"/>
        <pt x="369" y="109" on="0"/>
        <pt x="404" y="164" on="0"/>
        <pt x="404" y="208" on="1"/>
        <pt x="404" y="254" on="0"/>
        <pt x="332" y="289" on="0"/>
        <pt x="277" y="289" on="1"/>
      </contour>
      <contour>
        <pt x="209" y="357" on="1"/>
        <pt x="274" y="357" on="1"/>
        <pt x="304" y="357" on="0"/>
        <pt x="364" y="368" on="0"/>
        <pt x="412" y="397" on="0"/>
        <pt x="441" y="445" on="0"/>
        <pt x="441" y="481" on="1"/>
        <pt x="441" y="501" on="0"/>
        <pt x="423" y="529" on="0"/>
        <pt x="393" y="547" on="0"/>
        <pt x="352" y="555" on="0"/>
        <pt x="330" y="555" on="1"/>
        <pt x="304" y="555" on="0"/>
        <pt x="265" y="554" on="0"/>
        <pt x="256" y="552" on="1"/>
      </contour>
    </TTGlyph>
    <TTGlyph name="Backslash" xMin="219" yMin="-123" xMax="371" yMax="741">
      <component glyphName="backslash" x="0" y="42" flags="0x214"/>
    </TTGlyph>
    <TTGlyph name="Beta" xMin="45" yMin="-5" xMax="523" yMax="625">
      <component glyphName="B" x="0" y="0" flags="0x214"/>
    </TTGlyph>
    <TTGlyph name="Braceleft" xMin="89" yMin="-123" xMax="572" yMax="741">
      <component glyphName="braceleft" x="0" y="42" flags="0x214"/>
    </TTGlyph>
    <TTGlyph name="Braceright" xMin="0" yMin="-123" xMax="482" yMax="741">
      <component glyphName="braceright" x="0" y="42" flags="0x214"/>
    </TTGlyph>
    <TTGlyph name="Bracketleft" xMin="98" yMin="-123" xMax="547" yMax="741">
      <component glyphName="bracketleft" x="0" y="42" flags="0x214"/>
    </TTGlyph>
    <TTGlyph name="Bracketright" xMin="25" yMin="-123" xMax="473" yMax="741">
      <component glyphName="bracketright" x="0" y="42" flags="0x214"/>
    </TTGlyph>
    <TTGlyph name="Bullet" xMin="165" yMin="166" xMax="437" yMax="452">
      <component glyphName="bullet" x="0" y="23" flags="0x214"/>
    </TTGlyph>
    <TTGlyph name="C" xMin="89" yMin="-13" xMax="574" yMax="633">
      <contour>
        <pt x="279" y="-13" on="1"/>
        <pt x="191" y="-13" on="0"/>
        <pt x="89" y="103" on="0"/>
        <pt x="89" y="202" on="1"/>
        <pt x="89" y="281" on="0"/>
        <pt x="135" y="436" on="0"/>
        <pt x="222" y="558" on="0"/>
        <pt x="346" y="633" on="0"/>
        <pt x="424" y="633" on="1"/>
        <pt x="484" y="633" on="0"/>
        <pt x="557" y="601" on="0"/>
        <pt x="574" y="587" on="1"/>
        <pt x="535" y="521" on="1"/>
        <pt x="518" y="536" on="0"/>
        <pt x="453" y="560" on="0"/>
        <pt x="418" y="560" on="1"/>
        <pt x="360" y="560" on="0"/>
        <pt x="269" y="500" on="0"/>
        <pt x="206" y="402" on="0"/>
        <pt x="172" y="279" on="0"/>
        <pt x="172" y="215" on="1"/>
        <pt x="172" y="143" on="0"/>
        <pt x="236" y="60" on="0"/>
        <pt x="297" y="60" on="1"/>
        <pt x="345" y="60" on="0"/>
        <pt x="419" y="85" on="0"/>
        <pt x="437" y="96" on="1"/>
        <pt x="446" y="26" on="1"/>
        <pt x="440" y="21" on="0"/>
        <pt x="409" y="8" on="0"/>
        <pt x="366" y="-4" on="0"/>
        <pt x="310" y="-13" on="0"/>
      </contour>
    </TTGlyph>
    <TTGlyph name="Cacute" xMin="89" yMin="-13" xMax="574" yMax="830">
      <component glyphName="C" x="0" y="0" flags="0x214"/>
      <component glyphName="acute" x="45" y="139" flags="0x4"/>
    </TTGlyph>
    <TTGlyph name="Ccaron" xMin="89" yMin="-13" xMax="574" yMax="830">
      <component glyphName="C" x="0" y="0" flags="0x214"/>
      <component glyphName="caron" x="63" y="139" flags="0x4"/>
    </TTGlyph>
    <TTGlyph name="Ccedilla" xMin="89" yMin="-169" xMax="574" yMax="633">
      <contour>
        <pt x="280" y="-34" on="1"/>
        <pt x="298" y="-44" on="0"/>
        <pt x="316" y="-67" on="0"/>
        <pt x="316" y="-88" on="1"/>
        <pt x="316" y="-127" on="0"/>
        <pt x="260" y="-169" on="0"/>
        <pt x="212" y="-169" on="1"/>
        <pt x="186" y="-169" on="0"/>
        <pt x="151" y="-161" on="0"/>
        <pt x="140" y="-155" on="1"/>
        <pt x="160" y="-106" on="1"/>
        <pt x="168" y="-110" on="0"/>
        <pt x="191" y="-116" on="0"/>
        <pt x="208" y="-116" on="1"/>
        <pt x="223" y="-116" on="0"/>
        <pt x="242" y="-107" on="0"/>
        <pt x="242" y="-94" on="1"/>
        <pt x="242" y="-79" on="0"/>
        <pt x="219" y="-65" on="0"/>
        <pt x="206" y="-62" on="1"/>
        <pt x="212" y="-51" on="0"/>
        <pt x="231" y="-23" on="0"/>
        <pt x="240" y="-9" on="1"/>
        <pt x="170" y="3" on="0"/>
        <pt x="89" y="114" on="0"/>
        <pt x="89" y="202" on="1"/>
        <pt x="89" y="281" on="0"/>
        <pt x="135" y="436" on="0"/>
        <pt x="222" y="558" on="0"/>
        <pt x="346" y="633" on="0"/>
        <pt x="424" y="633" on="1"/>
        <pt x="484" y="633" on="0"/>
        <pt x="557" y="601" on="0"/>
        <pt x="574" y="587" on="1"/>
        <pt x="535" y="521" on="1"/>
        <pt x="518" y="536" on="0"/>
        <pt x="453" y="560" on="0"/>
        <pt x="418" y="560" on="1"/>
        <pt x="360" y="560" on="0"/>
        <pt x="269" y="500" on="0"/>
        <pt x="206" y="402" on="0"/>
        <pt x="172" y="279" on="0"/>
        <pt x="172" y="215" on="1"/>
        <pt x="172" y="143" on="0"/>
        <pt x="236" y="60" on="0"/>
        <pt x="297" y="60" on="1"/>
        <pt x="345" y="60" on="0"/>
        <pt x="419" y="85" on="0"/>
        <pt x="437" y="96" on="1"/>
        <pt x="446" y="26" on="1"/>
        <pt x="440" y="21" on="0"/>
        <pt x="413" y="9" on="0"/>
        <pt x="373" y="-3" on="0"/>
        <pt x="323" y="-12" on="0"/>
        <pt x="295" y="-13" on="1"/>
      </contour>
    </TTGlyph>
    <TTGlyph name="Ccircumflex" xMin="89" yMin="-13" xMax="574" yMax="826">
      <component glyphName="C" x="0" y="0" flags="0x214"/>
      <component glyphName="circumflex" x="71" y="139" flags="0x4"/>
    </TTGlyph>
    <TTGlyph name="Cdotaccent" xMin="89" yMin="-13" xMax="574" yMax="796">
      <component glyphName="C" x="0" y="0" flags="0x214"/>
      <component glyphName="dotaccent" x="63" y="139" flags="0x4"/>
    </TTGlyph>
    <TTGlyph name="Chi" xMin="9" yMin="0" xMax="608" yMax="619">
      <component glyphName="X" x="0" y="0" flags="0x214"/>
    </TTGlyph>
    <TTGlyph name="D" xMin="36" yMin="-5" xMax="523" yMax="625">
      <contour>
        <pt x="523" y="405" on="1"/>
        <pt x="523" y="326" on="0"/>
        <pt x="481" y="178" on="0"/>
        <pt x="393" y="64" on="0"/>
        <pt x="257" y="-5" on="0"/>
        <pt x="163" y="-5" on="1"/>
        <pt x="131" y="-5" on="0"/>
        <pt x="65" y="1" on="0"/>
        <pt x="36" y="9" on="1"/>
        <pt x="179" y="610" on="1"/>
        <pt x="245" y="625" on="0"/>
        <pt x="306" y="625" on="1"/>
        <pt x="408" y="625" on="0"/>
        <pt x="523" y="510" on="0"/>
      </contour>
      <contour>
        <pt x="132" y="71" on="1"/>
        <pt x="140" y="69" on="0"/>
        <pt x="168" y="66" on="0"/>
        <pt x="180" y="66" on="1"/>
        <pt x="236" y="66" on="0"/>
        <pt x="331" y="114" on="0"/>
        <pt x="401" y="201" on="0"/>
        <pt x="440" y="323" on="0"/>
        <pt x="440" y="396" on="1"/>
        <pt x="440" y="472" on="0"/>
        <pt x="370" y="554" on="0"/>
        <pt x="295" y="554" on="1"/>
        <pt x="268" y="554" on="0"/>
        <pt x="246" y="551" on="1"/>
      </contour>
    </TTGlyph>
    <TTGlyph name="Dcaron" xMin="36" yMin="-5" xMax="523" yMax="830">
      <component glyphName="D" x="0" y="0" flags="0x214"/>
      <component glyphName="caron" x="0" y="139" flags="0x4"/>
    </TTGlyph>
    <TTGlyph name="Dcroat" xMin="65" yMin="-5" xMax="522" yMax="625">
      <component glyphName="Eth" x="0" y="0" flags="0x214"/>
    </TTGlyph>
    <TTGlyph name="Delta" xMin="-13" yMin="0" xMax="469" yMax="619">
      <contour>
        <pt x="-13" y="0" on="1"/>
        <pt x="20" y="66" on="0"/>
        <pt x="100" y="220" on="0"/>
        <pt x="187" y="382" on="0"/>
        <pt x="280" y="545" on="0"/>
        <pt x="327" y="619" on="1"/>
        <pt x="425" y="619" on="1"/>
        <pt x="436" y="548" on="0"/>
        <pt x="451" y="386" on="0"/>
        <pt x="461" y="222" on="0"/>
        <pt x="467" y="66" on="0"/>
        <pt x="469" y="0" on="1"/>
      </contour>
      <contour>
        <pt x="357" y="547" on="1"/>
        <pt x="344" y="526" on="0"/>
        <pt x="304" y="457" on="0"/>
        <pt x="258" y="373" on="0"/>
        <pt x="207" y="279" on="0"/>
        <pt x="160" y="187" on="0"/>
        <pt x="118" y="102" on="0"/>
        <pt x="103" y="70" on="1"/>
        <pt x="384" y="70" on="1"/>
        <pt x="385" y="119" on="0"/>
        <pt x="381" y="252" on="0"/>
        <pt x="373" y="388" on="0"/>
        <pt x="362" y="510" on="0"/>
      </contour>
    </TTGlyph>
    <TTGlyph name="E" xMin="71" yMin="0" xMax="567" yMax="619">
      <contour>
        <pt x="71" y="0" on="1"/>
        <pt x="221" y="619" on="1"/>
        <pt x="567" y="619" on="1"/>
        <pt x="550" y="549" on="1"/>
        <pt x="286" y="549" on="1"/>
        <pt x="240" y="359" on="1"/>
        <pt x="472" y="359" on="1"/>
        <pt x="455" y="289" on="1"/>
        <pt x="223" y="289" on="1"/>
        <pt x="171" y="70" on="1"/>
        <pt x="457" y="70" on="1"/>
        <pt x="440" y="0" on="1"/>
      </contour>
    </TTGlyph>
    <TTGlyph name="Eacute" xMin="71" yMin="0" xMax="567" yMax="830">
      <component glyphName="E" x="0" y="0" flags="0x214"/>
      <component glyphName="acute" x="35" y="139" flags="0x4"/>
    </TTGlyph>
    <TTGlyph name="Ebreve" xMin="71" yMin="0" xMax="567" yMax="808">
      <component glyphName="E" x="0" y="0" flags="0x214"/>
      <component glyphName="breve" x="54" y="139" flags="0x4"/>
    </TTGlyph>
    <TTGlyph name="Ecaron" xMin="71" yMin="0" xMax="567" yMax="830">
      <component glyphName="E" x="0" y="0" flags="0x214"/>
      <component glyphName="caron" x="54" y="139" flags="0x4"/>
    </TTGlyph>
    <TTGlyph name="Ecircumflex" xMin="71" yMin="0" xMax="567" yMax="826">
      <component glyphName="E" x="0" y="0" flags="0x214"/>
      <component glyphName="circumflex" x="54" y="139" flags="0x4"/>
    </TTGlyph>
    <TTGlyph name="Edieresis" xMin="71" yMin="0" xMax="567" yMax="794">
      <component glyphName="E" x="0" y="0" flags="0x214"/>
      <component glyphName="dieresis" x="35" y="139" flags="0x4"/>
    </TTGlyph>
    <TTGlyph name="Edotaccent" xMin="71" yMin="0" xMax="567" yMax="796">
      <component glyphName="E" x="0" y="0" flags="0x214"/>
      <component glyphName="dotaccent" x="54" y="139" flags="0x4"/>
    </TTGlyph>
    <TTGlyph name="Egrave" xMin="71" yMin="0" xMax="567" yMax="830">
      <component glyphName="E" x="0" y="0" flags="0x214"/>
      <component glyphName="grave" x="63" y="139" flags="0x4"/>
    </TTGlyph>
    <TTGlyph name="Emacron" xMin="71" yMin="0" xMax="567" yMax="774">
      <component glyphName="E" x="0" y="0" flags="0x214"/>
      <component glyphName="macron" x="54" y="139" flags="0x4"/>
    </TTGlyph>
    <TTGlyph name="Emdash" xMin="45" yMin="274" xMax="561" yMax="344">
      <component glyphName="emdash" x="9" y="38" flags="0x214"/>
    </TTGlyph>
    <TTGlyph name="Endash" xMin="109" yMin="274" xMax="489" yMax="344">
      <component glyphName="endash" x="9" y="38" flags="0x214"/>
    </TTGlyph>
    <TTGlyph name="Eng" xMin="40" yMin="-167" xMax="579" yMax="619">
      <contour>
        <pt x="359" y="19" on="1"/>
        <pt x="342" y="102" on="0"/>
        <pt x="309" y="234" on="0"/>
        <pt x="278" y="348" on="0"/>
        <pt x="249" y="450" on="0"/>
        <pt x="234" y="503" on="1"/>
        <pt x="115" y="0" on="1"/>
        <pt x="40" y="0" on="1"/>
        <pt x="189" y="619" on="1"/>
        <pt x="273" y="619" on="1"/>
        <pt x="296" y="544" on="0"/>
        <pt x="330" y="434" on="0"/>
        <pt x="357" y="334" on="0"/>
        <pt x="381" y="230" on="0"/>
        <pt x="394" y="163" on="1"/>
        <pt x="504" y="619" on="1"/>
        <pt x="579" y="619" on="1"/>
        <pt x="430" y="0" on="1"/>
        <pt x="420" y="-41" on="0"/>
        <pt x="395" y="-104" on="0"/>
        <pt x="358" y="-146" on="0"/>
        <pt x="303" y="-167" on="0"/>
        <pt x="262" y="-167" on="1"/>
        <pt x="249" y="-167" on="0"/>
        <pt x="222" y="-162" on="0"/>
        <pt x="214" y="-160" on="1"/>
        <pt x="238" y="-95" on="1"/>
        <pt x="243" y="-97" on="0"/>
        <pt x="262" y="-99" on="0"/>
        <pt x="275" y="-99" on="1"/>
        <pt x="309" y="-99" on="0"/>
        <pt x="341" y="-56" on="0"/>
        <pt x="351" y="-15" on="1"/>
      </contour>
    </TTGlyph>
    <TTGlyph name="Eogonek" xMin="71" yMin="-167" xMax="567" yMax="619">
      <contour>
        <pt x="356" y="-167" on="1"/>
        <pt x="306" y="-167" on="0"/>
        <pt x="267" y="-136" on="0"/>
        <pt x="267" y="-111" on="1"/>
        <pt x="267" y="-87" on="0"/>
        <pt x="299" y="-42" on="0"/>
        <pt x="321" y="-24" on="1"/>
        <pt x="330" y="-16" on="0"/>
        <pt x="345" y="-5" on="0"/>
        <pt x="352" y="0" on="1"/>
        <pt x="71" y="0" on="1"/>
        <pt x="221" y="619" on="1"/>
        <pt x="567" y="619" on="1"/>
        <pt x="550" y="549" on="1"/>
        <pt x="286" y="549" on="1"/>
        <pt x="240" y="359" on="1"/>
        <pt x="472" y="359" on="1"/>
        <pt x="455" y="289" on="1"/>
        <pt x="223" y="289" on="1"/>
        <pt x="171" y="70" on="1"/>
        <pt x="457" y="70" on="1"/>
        <pt x="440" y="0" on="1"/>
        <pt x="428" y="-6" on="0"/>
        <pt x="401" y="-23" on="0"/>
        <pt x="387" y="-34" on="1"/>
        <pt x="376" y="-42" on="0"/>
        <pt x="346" y="-72" on="0"/>
        <pt x="346" y="-90" on="1"/>
        <pt x="346" y="-99" on="0"/>
        <pt x="361" y="-110" on="0"/>
        <pt x="379" y="-110" on="1"/>
        <pt x="387" y="-110" on="0"/>
        <pt x="406" y="-106" on="0"/>
        <pt x="414" y="-104" on="1"/>
        <pt x="407" y="-157" on="1"/>
        <pt x="385" y="-167" on="0"/>
      </contour>
    </TTGlyph>
    <TTGlyph name="Epsilon" xMin="71" yMin="0" xMax="567" yMax="619">
      <component glyphName="E" x="0" y="0" flags="0x214"/>
    </TTGlyph>
    <TTGlyph name="Epsilontonos" xMin="0" yMin="0" xMax="541" yMax="633">
      <component glyphName="E" x="-26" y="0" flags="0x214"/>
      <component glyphName="tonos.cap" x="-266" y="0" flags="0x4"/>
    </TTGlyph>
    <TTGlyph name="Eta" xMin="36" yMin="0" xMax="577" yMax="619">
      <component glyphName="H" x="0" y="0" flags="0x214"/>
    </TTGlyph>
    <TTGlyph name="Etatonos" xMin="-14" yMin="0" xMax="577" yMax="633">
      <component glyphName="H" x="0" y="0" flags="0x214"/>
      <component glyphName="tonos.cap" x="-280" y="0" flags="0x4"/>
    </TTGlyph>
    <TTGlyph name="Eth" xMin="65" yMin="-5" xMax="522" yMax="625">
      <contour>
        <pt x="522" y="405" on="1"/>
        <pt x="522" y="326" on="0"/>
        <pt x="483" y="178" on="0"/>
        <pt x="401" y="64" on="0"/>
        <pt x="274" y="-5" on="0"/>
        <pt x="187" y="-5" on="1"/>
        <pt x="158" y="-5" on="0"/>
        <pt x="96" y="1" on="0"/>
        <pt x="70" y="9" on="1"/>
        <pt x="136" y="289" on="1"/>
        <pt x="65" y="289" on="1"/>
        <pt x="82" y="356" on="1"/>
        <pt x="153" y="356" on="1"/>
        <pt x="213" y="610" on="1"/>
        <pt x="274" y="625" on="0"/>
        <pt x="330" y="625" on="1"/>
        <pt x="420" y="625" on="0"/>
        <pt x="522" y="510" on="0"/>
      </contour>
      <contour>
        <pt x="167" y="71" on="1"/>
        <pt x="173" y="69" on="0"/>
        <pt x="195" y="66" on="0"/>
        <pt x="204" y="66" on="1"/>
        <pt x="254" y="66" on="0"/>
        <pt x="340" y="114" on="0"/>
        <pt x="403" y="201" on="0"/>
        <pt x="439" y="323" on="0"/>
        <pt x="439" y="396" on="1"/>
        <pt x="439" y="472" on="0"/>
        <pt x="381" y="554" on="0"/>
        <pt x="319" y="554" on="1"/>
        <pt x="297" y="554" on="0"/>
        <pt x="281" y="551" on="1"/>
        <pt x="235" y="356" on="1"/>
        <pt x="315" y="356" on="1"/>
        <pt x="298" y="289" on="1"/>
        <pt x="219" y="289" on="1"/>
      </contour>
    </TTGlyph>
    <TTGlyph name="Euro" xMin="57" yMin="-12" xMax="577" yMax="630">
      <contour>
        <pt x="221" y="203" on="1"/>
        <pt x="221" y="187" on="1"/>
        <pt x="221" y="149" on="0"/>
        <pt x="240" y="100" on="0"/>
        <pt x="272" y="72" on="0"/>
        <pt x="316" y="60" on="0"/>
        <pt x="341" y="60" on="1"/>
        <pt x="382" y="60" on="0"/>
        <pt x="438" y="74" on="0"/>
        <pt x="460" y="85" on="1"/>
        <pt x="463" y="14" on="1"/>
        <pt x="457" y="11" on="0"/>
        <pt x="430" y="2" on="0"/>
        <pt x="394" y="-6" on="0"/>
        <pt x="352" y="-12" on="0"/>
        <pt x="331" y="-12" on="1"/>
        <pt x="237" y="-12" on="0"/>
        <pt x="139" y="85" on="0"/>
        <pt x="139" y="182" on="1"/>
        <pt x="139" y="203" on="1"/>
        <pt x="57" y="203" on="1"/>
        <pt x="72" y="267" on="1"/>
        <pt x="144" y="267" on="1"/>
        <pt x="146" y="289" on="0"/>
        <pt x="156" y="334" on="0"/>
        <pt x="162" y="357" on="1"/>
        <pt x="93" y="357" on="1"/>
        <pt x="108" y="421" on="1"/>
        <pt x="183" y="421" on="1"/>
        <pt x="201" y="465" on="0"/>
        <pt x="253" y="541" on="0"/>
        <pt x="324" y="598" on="0"/>
        <pt x="414" y="630" on="0"/>
        <pt x="470" y="630" on="1"/>
        <pt x="505" y="630" on="0"/>
        <pt x="554" y="620" on="0"/>
        <pt x="577" y="610" on="1"/>
        <pt x="544" y="543" on="1"/>
        <pt x="530" y="551" on="0"/>
        <pt x="494" y="560" on="0"/>
        <pt x="459" y="560" on="1"/>
        <pt x="424" y="560" on="0"/>
        <pt x="367" y="539" on="0"/>
        <pt x="320" y="501" on="0"/>
        <pt x="283" y="451" on="0"/>
        <pt x="270" y="421" on="1"/>
        <pt x="481" y="421" on="1"/>
        <pt x="455" y="357" on="1"/>
        <pt x="246" y="357" on="1"/>
        <pt x="238" y="335" on="0"/>
        <pt x="229" y="289" on="0"/>
        <pt x="227" y="267" on="1"/>
        <pt x="419" y="267" on="1"/>
        <pt x="394" y="203" on="1"/>
      </contour>
    </TTGlyph>
    <TTGlyph name="Exclamdown" xMin="181" yMin="-2" xMax="422" yMax="628">
      <component glyphName="exclamdown" x="36" y="163" flags="0x214"/>
    </TTGlyph>
    <TTGlyph name="F" xMin="71" yMin="0" xMax="572" yMax="619">
      <contour>
        <pt x="71" y="0" on="1"/>
        <pt x="221" y="619" on="1"/>
        <pt x="572" y="619" on="1"/>
        <pt x="555" y="549" on="1"/>
        <pt x="286" y="549" on="1"/>
        <pt x="239" y="356" on="1"/>
        <pt x="476" y="356" on="1"/>
        <pt x="459" y="287" on="1"/>
        <pt x="222" y="287" on="1"/>
        <pt x="154" y="0" on="1"/>
      </contour>
    </TTGlyph>
    <TTGlyph name="G" xMin="80" yMin="-13" xMax="558" yMax="633">
      <contour>
        <pt x="265" y="-13" on="1"/>
        <pt x="223" y="-13" on="0"/>
        <pt x="154" y="17" on="0"/>
        <pt x="106" y="73" on="0"/>
        <pt x="80" y="153" on="0"/>
        <pt x="80" y="202" on="1"/>
        <pt x="80" y="281" on="0"/>
        <pt x="126" y="436" on="0"/>
        <pt x="213" y="558" on="0"/>
        <pt x="337" y="633" on="0"/>
        <pt x="415" y="633" on="1"/>
        <pt x="446" y="633" on="0"/>
        <pt x="492" y="624" on="0"/>
        <pt x="526" y="610" on="0"/>
        <pt x="550" y="594" on="0"/>
        <pt x="558" y="587" on="1"/>
        <pt x="519" y="521" on="1"/>
        <pt x="502" y="536" on="0"/>
        <pt x="446" y="561" on="0"/>
        <pt x="409" y="561" on="1"/>
        <pt x="351" y="561" on="0"/>
        <pt x="260" y="501" on="0"/>
        <pt x="197" y="403" on="0"/>
        <pt x="163" y="279" on="0"/>
        <pt x="163" y="215" on="1"/>
        <pt x="163" y="143" on="0"/>
        <pt x="227" y="59" on="0"/>
        <pt x="288" y="59" on="1"/>
        <pt x="313" y="59" on="0"/>
        <pt x="350" y="66" on="0"/>
        <pt x="361" y="70" on="1"/>
        <pt x="417" y="304" on="1"/>
        <pt x="499" y="304" on="1"/>
        <pt x="430" y="14" on="1"/>
        <pt x="422" y="11" on="0"/>
        <pt x="389" y="2" on="0"/>
        <pt x="345" y="-7" on="0"/>
        <pt x="292" y="-13" on="0"/>
      </contour>
    </TTGlyph>
    <TTGlyph name="Gamma" xMin="27" yMin="0" xMax="581" yMax="619">
      <component glyphName="afii10020" x="0" y="0" flags="0x214"/>
    </TTGlyph>
    <TTGlyph name="Gbreve" xMin="80" yMin="-13" xMax="558" yMax="808">
      <component glyphName="G" x="0" y="0" flags="0x214"/>
      <component glyphName="breve" x="54" y="139" flags="0x4"/>
    </TTGlyph>
    <TTGlyph name="Gcaron" xMin="80" yMin="-13" xMax="566" yMax="830">
      <component glyphName="G" x="0" y="0" flags="0x214"/>
      <component glyphName="caron" x="63" y="139" flags="0x4"/>
    </TTGlyph>
    <TTGlyph name="Gcircumflex" xMin="80" yMin="-13" xMax="558" yMax="826">
      <component glyphName="G" x="0" y="0" flags="0x214"/>
      <component glyphName="circumflex" x="54" y="139" flags="0x4"/>
    </TTGlyph>
    <TTGlyph name="Gcommaaccent" xMin="80" yMin="-170" xMax="558" yMax="633">
      <component glyphName="G" x="0" y="0" flags="0x214"/>
      <component glyphName="commaaccent" x="0" y="0" flags="0x4"/>
    </TTGlyph>
    <TTGlyph name="Gdotaccent" xMin="80" yMin="-13" xMax="558" yMax="796">
      <component glyphName="G" x="0" y="0" flags="0x214"/>
      <component glyphName="dotaccent" x="54" y="139" flags="0x4"/>
    </TTGlyph>
    <TTGlyph name="Guillemotleft" xMin="107" yMin="135" xMax="494" yMax="492">
      <component glyphName="guillemotleft" x="0" y="54" flags="0x214"/>
    </TTGlyph>
    <TTGlyph name="Guillemotright" xMin="95" yMin="125" xMax="481" yMax="482">
      <component glyphName="guillemotright" x="0" y="54" flags="0x214"/>
    </TTGlyph>
    <TTGlyph name="Guilsinglleft" xMin="186" yMin="111" xMax="419" yMax="506">
      <component glyphName="guilsinglleft" x="0" y="55" flags="0x214"/>
    </TTGlyph>
    <TTGlyph name="Guilsinglright" xMin="163" yMin="113" xMax="396" yMax="508">
      <component glyphName="guilsinglright" x="0" y="55" flags="0x214"/>
    </TTGlyph>
    <TTGlyph name="H" xMin="36" yMin="0" xMax="577" yMax="619">
      <contour>
        <pt x="495" y="619" on="1"/>
        <pt x="577" y="619" on="1"/>
        <pt x="428" y="0" on="1"/>
        <pt x="346" y="0" on="1"/>
        <pt x="415" y="288" on="1"/>
        <pt x="187" y="288" on="1"/>
        <pt x="117" y="0" on="1"/>
        <pt x="36" y="0" on="1"/>
        <pt x="184" y="619" on="1"/>
        <pt x="266" y="619" on="1"/>
        <pt x="204" y="358" on="1"/>
        <pt x="432" y="358" on="1"/>
      </contour>
    </TTGlyph>
    <TTGlyph name="Hbar" xMin="63" yMin="0" xMax="593" yMax="619">
      <contour>
        <pt x="125" y="530" on="1"/>
        <pt x="189" y="530" on="1"/>
        <pt x="211" y="619" on="1"/>
        <pt x="293" y="619" on="1"/>
        <pt x="271" y="530" on="1"/>
        <pt x="447" y="530" on="1"/>
        <pt x="468" y="619" on="1"/>
        <pt x="550" y="619" on="1"/>
        <pt x="529" y="530" on="1"/>
        <pt x="593" y="530" on="1"/>
        <pt x="578" y="467" on="1"/>
        <pt x="513" y="467" on="1"/>
        <pt x="401" y="0" on="1"/>
        <pt x="319" y="0" on="1"/>
        <pt x="388" y="288" on="1"/>
        <pt x="213" y="288" on="1"/>
        <pt x="144" y="0" on="1"/>
        <pt x="63" y="0" on="1"/>
        <pt x="174" y="467" on="1"/>
        <pt x="109" y="467" on="1"/>
      </contour>
      <contour>
        <pt x="431" y="467" on="1"/>
        <pt x="256" y="467" on="1"/>
        <pt x="230" y="358" on="1"/>
        <pt x="405" y="358" on="1"/>
      </contour>
    </TTGlyph>
    <TTGlyph name="Hcircumflex" xMin="36" yMin="0" xMax="577" yMax="826">
      <component glyphName="H" x="0" y="0" flags="0x214"/>
      <component glyphName="circumflex" x="36" y="139" flags="0x4"/>
    </TTGlyph>
    <TTGlyph name="Hyphen" xMin="176" yMin="269" xMax="414" yMax="347">
      <component glyphName="hyphen" x="0" y="54" flags="0x214"/>
    </TTGlyph>
    <TTGlyph name="I" xMin="71" yMin="0" xMax="541" yMax="619">
      <contour>
        <pt x="405" y="549" on="1"/>
        <pt x="289" y="70" on="1"/>
        <pt x="409" y="70" on="1"/>
        <pt x="392" y="0" on="1"/>
        <pt x="71" y="0" on="1"/>
        <pt x="88" y="70" on="1"/>
        <pt x="207" y="70" on="1"/>
        <pt x="322" y="549" on="1"/>
        <pt x="203" y="549" on="1"/>
        <pt x="220" y="619" on="1"/>
        <pt x="541" y="619" on="1"/>
        <pt x="524" y="549" on="1"/>
      </contour>
    </TTGlyph>
    <TTGlyph name="IJ" xMin="21" yMin="-13" xMax="597" yMax="619">
      <contour>
        <pt x="102" y="0" on="1"/>
        <pt x="21" y="0" on="1"/>
        <pt x="168" y="619" on="1"/>
        <pt x="250" y="619" on="1"/>
      </contour>
      <contour>
        <pt x="597" y="619" on="1"/>
        <pt x="489" y="171" on="1"/>
        <pt x="466" y="73" on="0"/>
        <pt x="371" y="-13" on="0"/>
        <pt x="284" y="-13" on="1"/>
        <pt x="249" y="-13" on="0"/>
        <pt x="185" y="12" on="0"/>
        <pt x="163" y="37" on="1"/>
        <pt x="213" y="104" on="1"/>
        <pt x="226" y="85" on="0"/>
        <pt x="266" y="58" on="0"/>
        <pt x="300" y="58" on="1"/>
        <pt x="339" y="58" on="0"/>
        <pt x="393" y="112" on="0"/>
        <pt x="407" y="172" on="1"/>
        <pt x="514" y="619" on="1"/>
      </contour>
    </TTGlyph>
    <TTGlyph name="Iacute" xMin="71" yMin="0" xMax="541" yMax="830">
      <component glyphName="I" x="0" y="0" flags="0x214"/>
      <component glyphName="acute" x="20" y="139" flags="0x4"/>
    </TTGlyph>
    <TTGlyph name="Ibreve" xMin="71" yMin="0" xMax="541" yMax="808">
      <component glyphName="I" x="0" y="0" flags="0x214"/>
      <component glyphName="breve" x="36" y="139" flags="0x4"/>
    </TTGlyph>
    <TTGlyph name="Icircumflex" xMin="71" yMin="0" xMax="541" yMax="826">
      <component glyphName="I" x="0" y="0" flags="0x214"/>
      <component glyphName="circumflex" x="36" y="139" flags="0x4"/>
    </TTGlyph>
    <TTGlyph name="Idieresis" xMin="71" yMin="0" xMax="549" yMax="794">
      <component glyphName="I" x="0" y="0" flags="0x214"/>
      <component glyphName="dieresis" x="36" y="139" flags="0x4"/>
    </TTGlyph>
    <TTGlyph name="Idotaccent" xMin="71" yMin="0" xMax="541" yMax="796">
      <component glyphName="I" x="0" y="0" flags="0x214"/>
      <component glyphName="dotaccent" x="36" y="139" flags="0x4"/>
    </TTGlyph>
    <TTGlyph name="Igrave" xMin="71" yMin="0" xMax="541" yMax="830">
      <component glyphName="I" x="0" y="0" flags="0x214"/>
      <component glyphName="grave" x="36" y="139" flags="0x4"/>
    </TTGlyph>
    <TTGlyph name="Imacron" xMin="71" yMin="0" xMax="545" yMax="774">
      <component glyphName="I" x="0" y="0" flags="0x214"/>
      <component glyphName="macron" x="45" y="139" flags="0x4"/>
    </TTGlyph>
    <TTGlyph name="Iogonek" xMin="71" yMin="-167" xMax="541" yMax="619">
      <contour>
        <pt x="193" y="-167" on="1"/>
        <pt x="143" y="-167" on="0"/>
        <pt x="104" y="-136" on="0"/>
        <pt x="104" y="-111" on="1"/>
        <pt x="104" y="-87" on="0"/>
        <pt x="136" y="-42" on="0"/>
        <pt x="158" y="-24" on="1"/>
        <pt x="167" y="-16" on="0"/>
        <pt x="182" y="-5" on="0"/>
        <pt x="189" y="0" on="1"/>
        <pt x="71" y="0" on="1"/>
        <pt x="88" y="70" on="1"/>
        <pt x="207" y="70" on="1"/>
        <pt x="322" y="549" on="1"/>
        <pt x="203" y="549" on="1"/>
        <pt x="220" y="619" on="1"/>
        <pt x="541" y="619" on="1"/>
        <pt x="524" y="549" on="1"/>
        <pt x="405" y="549" on="1"/>
        <pt x="289" y="70" on="1"/>
        <pt x="409" y="70" on="1"/>
        <pt x="392" y="0" on="1"/>
        <pt x="271" y="0" on="1"/>
        <pt x="260" y="-7" on="0"/>
        <pt x="237" y="-24" on="0"/>
        <pt x="224" y="-35" on="1"/>
        <pt x="213" y="-43" on="0"/>
        <pt x="183" y="-72" on="0"/>
        <pt x="183" y="-90" on="1"/>
        <pt x="183" y="-99" on="0"/>
        <pt x="198" y="-110" on="0"/>
        <pt x="216" y="-110" on="1"/>
        <pt x="224" y="-110" on="0"/>
        <pt x="243" y="-106" on="0"/>
        <pt x="251" y="-104" on="1"/>
        <pt x="244" y="-157" on="1"/>
        <pt x="222" y="-167" on="0"/>
      </contour>
    </TTGlyph>
    <TTGlyph name="Iota" xMin="71" yMin="0" xMax="541" yMax="619">
      <component glyphName="I" x="0" y="0" flags="0x214"/>
    </TTGlyph>
    <TTGlyph name="Iotadieresis" xMin="71" yMin="0" xMax="541" yMax="794">
      <component glyphName="I" x="0" y="0" flags="0x214"/>
      <component glyphName="dieresis" x="27" y="139" flags="0x4"/>
    </TTGlyph>
    <TTGlyph name="Iotatonos" xMin="21" yMin="0" xMax="541" yMax="633">
      <component glyphName="I" x="0" y="0" flags="0x214"/>
      <component glyphName="tonos.cap" x="-245" y="0" flags="0x4"/>
    </TTGlyph>
    <TTGlyph name="Itilde" xMin="71" yMin="0" xMax="554" yMax="797">
      <component glyphName="I" x="0" y="0" flags="0x214"/>
      <component glyphName="tilde" x="36" y="139" flags="0x4"/>
    </TTGlyph>
    <TTGlyph name="J" xMin="67" yMin="-13" xMax="554" yMax="619">
      <contour>
        <pt x="554" y="619" on="1"/>
        <pt x="454" y="199" on="1"/>
        <pt x="443" y="156" on="0"/>
        <pt x="415" y="79" on="0"/>
        <pt x="364" y="21" on="0"/>
        <pt x="285" y="-13" on="0"/>
        <pt x="225" y="-13" on="1"/>
        <pt x="194" y="-13" on="0"/>
        <pt x="143" y="-1" on="0"/>
        <pt x="102" y="16" on="0"/>
        <pt x="74" y="36" on="0"/>
        <pt x="67" y="44" on="1"/>
        <pt x="110" y="109" on="1"/>
        <pt x="117" y="102" on="0"/>
        <pt x="139" y="84" on="0"/>
        <pt x="169" y="69" on="0"/>
        <pt x="205" y="58" on="0"/>
        <pt x="227" y="58" on="1"/>
        <pt x="287" y="58" on="0"/>
        <pt x="354" y="129" on="0"/>
        <pt x="373" y="207" on="1"/>
        <pt x="455" y="549" on="1"/>
        <pt x="245" y="549" on="1"/>
        <pt x="261" y="619" on="1"/>
      </contour>
    </TTGlyph>
    <TTGlyph name="Jcircumflex" xMin="67" yMin="-13" xMax="554" yMax="826">
      <component glyphName="J" x="0" y="0" flags="0x214"/>
      <component glyphName="circumflex" x="71" y="139" flags="0x4"/>
    </TTGlyph>
    <TTGlyph name="K" xMin="45" yMin="0" xMax="588" yMax="619">
      <contour>
        <pt x="588" y="619" on="1"/>
        <pt x="552" y="581" on="0"/>
        <pt x="481" y="509" on="0"/>
        <pt x="407" y="437" on="0"/>
        <pt x="329" y="362" on="0"/>
        <pt x="284" y="322" on="1"/>
        <pt x="305" y="298" on="0"/>
        <pt x="354" y="231" on="0"/>
        <pt x="402" y="148" on="0"/>
        <pt x="448" y="52" on="0"/>
        <pt x="467" y="0" on="1"/>
        <pt x="378" y="0" on="1"/>
        <pt x="340" y="106" on="0"/>
        <pt x="250" y="251" on="0"/>
        <pt x="198" y="298" on="1"/>
        <pt x="127" y="0" on="1"/>
        <pt x="45" y="0" on="1"/>
        <pt x="193" y="619" on="1"/>
        <pt x="275" y="619" on="1"/>
        <pt x="210" y="348" on="1"/>
        <pt x="294" y="423" on="0"/>
        <pt x="429" y="556" on="0"/>
        <pt x="486" y="619" on="1"/>
      </contour>
    </TTGlyph>
    <TTGlyph name="Kappa" xMin="45" yMin="0" xMax="588" yMax="619">
      <component glyphName="K" x="0" y="0" flags="0x214"/>
    </TTGlyph>
    <TTGlyph name="Kcommaaccent" xMin="45" yMin="-170" xMax="588" yMax="619">
      <component glyphName="K" x="0" y="0" flags="0x214"/>
      <component glyphName="commaaccent" x="-17" y="0" flags="0x4"/>
    </TTGlyph>
    <TTGlyph name="L" xMin="54" yMin="0" xMax="421" yMax="619">
      <contour>
        <pt x="421" y="70" on="1"/>
        <pt x="405" y="0" on="1"/>
        <pt x="54" y="0" on="1"/>
        <pt x="203" y="619" on="1"/>
        <pt x="285" y="619" on="1"/>
        <pt x="153" y="70" on="1"/>
      </contour>
    </TTGlyph>
    <TTGlyph name="Lacute" xMin="54" yMin="0" xMax="421" yMax="830">
      <component glyphName="L" x="0" y="0" flags="0x214"/>
      <component glyphName="acute" x="-70" y="139" flags="0x4"/>
    </TTGlyph>
    <TTGlyph name="Lambda" xMin="-13" yMin="0" xMax="469" yMax="619">
      <contour>
        <pt x="-13" y="0" on="1"/>
        <pt x="20" y="66" on="0"/>
        <pt x="100" y="220" on="0"/>
        <pt x="187" y="382" on="0"/>
        <pt x="280" y="545" on="0"/>
        <pt x="327" y="619" on="1"/>
        <pt x="425" y="619" on="1"/>
        <pt x="436" y="548" on="0"/>
        <pt x="451" y="386" on="0"/>
        <pt x="461" y="222" on="0"/>
        <pt x="467" y="66" on="0"/>
        <pt x="469" y="0" on="1"/>
        <pt x="384" y="0" on="1"/>
        <pt x="385" y="82" on="0"/>
        <pt x="381" y="245" on="0"/>
        <pt x="373" y="391" on="0"/>
        <pt x="362" y="510" on="0"/>
        <pt x="357" y="547" on="1"/>
        <pt x="338" y="516" on="0"/>
        <pt x="268" y="392" on="0"/>
        <pt x="186" y="239" on="0"/>
        <pt x="102" y="73" on="0"/>
        <pt x="70" y="0" on="1"/>
      </contour>
    </TTGlyph>
    <TTGlyph name="Lcaron" xMin="54" yMin="0" xMax="444" yMax="621">
      <component glyphName="L" x="0" y="0" flags="0x214"/>
      <component glyphName="caron.alt" x="13" y="-72" flags="0x4"/>
    </TTGlyph>
    <TTGlyph name="Lcommaaccent" xMin="54" yMin="-170" xMax="421" yMax="619">
      <component glyphName="L" x="0" y="0" flags="0x214"/>
      <component glyphName="commaaccent" x="0" y="0" flags="0x4"/>
    </TTGlyph>
    <TTGlyph name="Ldot" xMin="54" yMin="0" xMax="456" yMax="619">
      <component glyphName="L" x="0" y="0" flags="0x214"/>
      <component glyphName="dotaccent" x="37" y="-278" flags="0x4"/>
    </TTGlyph>
    <TTGlyph name="Lslash" xMin="45" yMin="0" xMax="421" yMax="619">
      <contour>
        <pt x="421" y="70" on="1"/>
        <pt x="404" y="0" on="1"/>
        <pt x="65" y="0" on="1"/>
        <pt x="125" y="251" on="1"/>
        <pt x="59" y="220" on="1"/>
        <pt x="45" y="281" on="1"/>
        <pt x="144" y="329" on="1"/>
        <pt x="214" y="619" on="1"/>
        <pt x="296" y="619" on="1"/>
        <pt x="235" y="365" on="1"/>
        <pt x="354" y="421" on="1"/>
        <pt x="368" y="360" on="1"/>
        <pt x="217" y="288" on="1"/>
        <pt x="164" y="70" on="1"/>
      </contour>
    </TTGlyph>
    <TTGlyph name="M" xMin="18" yMin="0" xMax="558" yMax="619">
      <contour>
        <pt x="481" y="619" on="1"/>
        <pt x="558" y="619" on="1"/>
        <pt x="552" y="556" on="0"/>
        <pt x="530" y="410" on="0"/>
        <pt x="503" y="251" on="0"/>
        <pt x="470" y="84" on="0"/>
        <pt x="453" y="0" on="1"/>
        <pt x="373" y="0" on="1"/>
        <pt x="385" y="54" on="0"/>
        <pt x="414" y="182" on="0"/>
        <pt x="444" y="317" on="0"/>
        <pt x="474" y="454" on="0"/>
        <pt x="486" y="517" on="1"/>
        <pt x="328" y="235" on="1"/>
        <pt x="256" y="235" on="1"/>
        <pt x="254" y="272" on="0"/>
        <pt x="249" y="349" on="0"/>
        <pt x="242" y="423" on="0"/>
        <pt x="235" y="490" on="0"/>
        <pt x="232" y="517" on="1"/>
        <pt x="215" y="449" on="0"/>
        <pt x="179" y="310" on="0"/>
        <pt x="143" y="176" on="0"/>
        <pt x="110" y="53" on="0"/>
        <pt x="96" y="0" on="1"/>
        <pt x="18" y="0" on="1"/>
        <pt x="61" y="160" on="0"/>
        <pt x="155" y="463" on="0"/>
        <pt x="212" y="619" on="1"/>
        <pt x="288" y="619" on="1"/>
        <pt x="295" y="538" on="0"/>
        <pt x="305" y="390" on="0"/>
        <pt x="311" y="311" on="1"/>
      </contour>
    </TTGlyph>
    <TTGlyph name="Mu" xMin="18" yMin="0" xMax="558" yMax="619">
      <component glyphName="M" x="0" y="0" flags="0x214"/>
    </TTGlyph>
    <TTGlyph name="N" xMin="40" yMin="0" xMax="579" yMax="619">
      <contour>
        <pt x="349" y="0" on="1"/>
        <pt x="335" y="83" on="0"/>
        <pt x="309" y="219" on="0"/>
        <pt x="280" y="339" on="0"/>
        <pt x="250" y="447" on="0"/>
        <pt x="234" y="503" on="1"/>
        <pt x="115" y="0" on="1"/>
        <pt x="40" y="0" on="1"/>
        <pt x="189" y="619" on="1"/>
        <pt x="270" y="619" on="1"/>
        <pt x="293" y="544" on="0"/>
        <pt x="326" y="430" on="0"/>
        <pt x="353" y="323" on="0"/>
        <pt x="376" y="209" on="0"/>
        <pt x="389" y="134" on="1"/>
        <pt x="504" y="619" on="1"/>
        <pt x="579" y="619" on="1"/>
        <pt x="430" y="0" on="1"/>
      </contour>
    </TTGlyph>
    <TTGlyph name="Nacute" xMin="40" yMin="0" xMax="579" yMax="830">
      <component glyphName="N" x="0" y="0" flags="0x214"/>
      <component glyphName="acute" x="36" y="139" flags="0x4"/>
    </TTGlyph>
    <TTGlyph name="Ncaron" xMin="40" yMin="0" xMax="579" yMax="830">
      <component glyphName="N" x="0" y="0" flags="0x214"/>
      <component glyphName="caron" x="36" y="139" flags="0x4"/>
    </TTGlyph>
    <TTGlyph name="Ncommaaccent" xMin="40" yMin="-170" xMax="579" yMax="619">
      <component glyphName="N" x="0" y="0" flags="0x214"/>
      <component glyphName="commaaccent" x="-17" y="0" flags="0x4"/>
    </TTGlyph>
    <TTGlyph name="Ntilde" xMin="40" yMin="0" xMax="579" yMax="797">
      <component glyphName="N" x="0" y="0" flags="0x214"/>
      <component glyphName="tilde" x="38" y="139" flags="0x4"/>
    </TTGlyph>
    <TTGlyph name="Nu" xMin="40" yMin="0" xMax="579" yMax="619">
      <component glyphName="N" x="0" y="0" flags="0x214"/>
    </TTGlyph>
    <TTGlyph name="O" xMin="80" yMin="-13" xMax="541" yMax="633">
      <contour>
        <pt x="369" y="562" on="1"/>
        <pt x="320" y="562" on="0"/>
        <pt x="243" y="489" on="0"/>
        <pt x="191" y="378" on="0"/>
        <pt x="163" y="247" on="0"/>
        <pt x="163" y="190" on="1"/>
        <pt x="163" y="119" on="0"/>
        <pt x="211" y="58" on="0"/>
        <pt x="254" y="58" on="1"/>
        <pt x="303" y="58" on="0"/>
        <pt x="379" y="131" on="0"/>
        <pt x="431" y="242" on="0"/>
        <pt x="458" y="373" on="0"/>
        <pt x="458" y="430" on="1"/>
        <pt x="458" y="500" on="0"/>
        <pt x="411" y="562" on="0"/>
      </contour>
      <contour>
        <pt x="379" y="633" on="1"/>
        <pt x="451" y="633" on="0"/>
        <pt x="541" y="538" on="0"/>
        <pt x="541" y="436" on="1"/>
        <pt x="541" y="399" on="0"/>
        <pt x="527" y="304" on="0"/>
        <pt x="497" y="204" on="0"/>
        <pt x="450" y="108" on="0"/>
        <pt x="384" y="33" on="0"/>
        <pt x="298" y="-13" on="0"/>
        <pt x="244" y="-13" on="1"/>
        <pt x="171" y="-13" on="0"/>
        <pt x="80" y="82" on="0"/>
        <pt x="80" y="184" on="1"/>
        <pt x="80" y="221" on="0"/>
        <pt x="94" y="316" on="0"/>
        <pt x="124" y="416" on="0"/>
        <pt x="172" y="512" on="0"/>
        <pt x="238" y="587" on="0"/>
        <pt x="325" y="633" on="0"/>
      </contour>
    </TTGlyph>
    <TTGlyph name="OE" xMin="61" yMin="-6" xMax="601" yMax="625">
      <contour>
        <pt x="377" y="547" on="1"/>
        <pt x="366" y="550" on="0"/>
        <pt x="346" y="554" on="0"/>
        <pt x="336" y="554" on="1"/>
        <pt x="305" y="554" on="0"/>
        <pt x="252" y="521" on="0"/>
        <pt x="209" y="466" on="0"/>
        <pt x="177" y="393" on="0"/>
        <pt x="155" y="312" on="0"/>
        <pt x="144" y="228" on="0"/>
        <pt x="144" y="190" on="1"/>
        <pt x="144" y="134" on="0"/>
        <pt x="180" y="65" on="0"/>
        <pt x="219" y="65" on="1"/>
        <pt x="239" y="65" on="0"/>
        <pt x="261" y="71" on="0"/>
        <pt x="263" y="72" on="1"/>
      </contour>
      <contour>
        <pt x="202" y="-6" on="1"/>
        <pt x="165" y="-6" on="0"/>
        <pt x="112" y="22" on="0"/>
        <pt x="77" y="73" on="0"/>
        <pt x="61" y="143" on="0"/>
        <pt x="61" y="185" on="1"/>
        <pt x="61" y="251" on="0"/>
        <pt x="95" y="405" on="0"/>
        <pt x="166" y="537" on="0"/>
        <pt x="277" y="625" on="0"/>
        <pt x="354" y="625" on="1"/>
        <pt x="366" y="625" on="0"/>
        <pt x="394" y="621" on="0"/>
        <pt x="408" y="619" on="1"/>
        <pt x="601" y="619" on="1"/>
        <pt x="584" y="549" on="1"/>
        <pt x="456" y="549" on="1"/>
        <pt x="411" y="359" on="1"/>
        <pt x="515" y="359" on="1"/>
        <pt x="498" y="289" on="1"/>
        <pt x="394" y="289" on="1"/>
        <pt x="341" y="70" on="1"/>
        <pt x="482" y="70" on="1"/>
        <pt x="465" y="0" on="1"/>
        <pt x="259" y="0" on="1"/>
        <pt x="229" y="-6" on="0"/>
      </contour>
    </TTGlyph>
    <TTGlyph name="Oacute" xMin="80" yMin="-13" xMax="541" yMax="830">
      <component glyphName="O" x="0" y="0" flags="0x214"/>
      <component glyphName="acute" x="32" y="139" flags="0x4"/>
    </TTGlyph>
    <TTGlyph name="Obreve" xMin="80" yMin="-13" xMax="549" yMax="808">
      <component glyphName="O" x="0" y="0" flags="0x214"/>
      <component glyphName="breve" x="45" y="139" flags="0x4"/>
    </TTGlyph>
    <TTGlyph name="Ocircumflex" xMin="80" yMin="-13" xMax="541" yMax="826">
      <component glyphName="O" x="0" y="0" flags="0x214"/>
      <component glyphName="circumflex" x="40" y="139" flags="0x4"/>
    </TTGlyph>
    <TTGlyph name="Odieresis" xMin="80" yMin="-13" xMax="554" yMax="794">
      <component glyphName="O" x="0" y="0" flags="0x214"/>
      <component glyphName="dieresis" x="41" y="139" flags="0x4"/>
    </TTGlyph>
    <TTGlyph name="Ograve" xMin="80" yMin="-13" xMax="541" yMax="830">
      <component glyphName="O" x="0" y="0" flags="0x214"/>
      <component glyphName="grave" x="41" y="139" flags="0x4"/>
    </TTGlyph>
    <TTGlyph name="Ohorn" xMin="76" yMin="-13" xMax="620" yMax="715">
      <contour>
        <pt x="357" y="562" on="1"/>
        <pt x="309" y="562" on="0"/>
        <pt x="236" y="489" on="0"/>
        <pt x="185" y="378" on="0"/>
        <pt x="159" y="247" on="0"/>
        <pt x="159" y="190" on="1"/>
        <pt x="159" y="119" on="0"/>
        <pt x="203" y="58" on="0"/>
        <pt x="242" y="58" on="1"/>
        <pt x="290" y="58" on="0"/>
        <pt x="364" y="131" on="0"/>
        <pt x="414" y="242" on="0"/>
        <pt x="440" y="373" on="0"/>
        <pt x="440" y="430" on="1"/>
        <pt x="440" y="500" on="0"/>
        <pt x="397" y="562" on="0"/>
      </contour>
      <contour>
        <pt x="479" y="585" on="1"/>
        <pt x="497" y="599" on="0"/>
        <pt x="518" y="631" on="0"/>
        <pt x="530" y="666" on="0"/>
        <pt x="535" y="700" on="0"/>
        <pt x="537" y="715" on="1"/>
        <pt x="620" y="715" on="1"/>
        <pt x="614" y="655" on="0"/>
        <pt x="558" y="559" on="0"/>
        <pt x="510" y="529" on="1"/>
        <pt x="523" y="491" on="0"/>
        <pt x="523" y="436" on="1"/>
        <pt x="523" y="399" on="0"/>
        <pt x="509" y="304" on="0"/>
        <pt x="480" y="204" on="0"/>
        <pt x="434" y="108" on="0"/>
        <pt x="370" y="33" on="0"/>
        <pt x="285" y="-13" on="0"/>
        <pt x="232" y="-13" on="1"/>
        <pt x="163" y="-13" on="0"/>
        <pt x="76" y="82" on="0"/>
        <pt x="76" y="184" on="1"/>
        <pt x="76" y="221" on="0"/>
        <pt x="90" y="316" on="0"/>
        <pt x="119" y="416" on="0"/>
        <pt x="165" y="512" on="0"/>
        <pt x="230" y="587" on="0"/>
        <pt x="314" y="633" on="0"/>
        <pt x="367" y="633" on="1"/>
        <pt x="402" y="633" on="0"/>
        <pt x="459" y="610" on="0"/>
      </contour>
    </TTGlyph>
    <TTGlyph name="Ohungarumlaut" xMin="80" yMin="-13" xMax="596" yMax="830">
      <component glyphName="O" x="0" y="0" flags="0x214"/>
      <component glyphName="hungarumlaut" x="71" y="139" flags="0x4"/>
    </TTGlyph>
    <TTGlyph name="Omacron" xMin="80" yMin="-13" xMax="545" yMax="774">
      <component glyphName="O" x="0" y="0" flags="0x214"/>
      <component glyphName="macron" x="45" y="139" flags="0x4"/>
    </TTGlyph>
    <TTGlyph name="Omega" xMin="-4" yMin="0" xMax="541" yMax="633">
      <component glyphName="uni2126" x="0" y="0" flags="0x210"/>
    </TTGlyph>
    <TTGlyph name="Omegatonos" xMin="-4" yMin="0" xMax="541" yMax="633">
      <component glyphName="uni2126" x="0" y="0" flags="0x214"/>
      <component glyphName="tonos.cap" x="-251" y="0" flags="0x4"/>
    </TTGlyph>
    <TTGlyph name="Omicron" xMin="80" yMin="-13" xMax="541" yMax="633">
      <component glyphName="O" x="0" y="0" flags="0x214"/>
    </TTGlyph>
    <TTGlyph name="Omicrontonos" xMin="23" yMin="-13" xMax="533" yMax="633">
      <component glyphName="O" x="-8" y="0" flags="0x214"/>
      <component glyphName="tonos.cap" x="-243" y="0" flags="0x4"/>
    </TTGlyph>
    <TTGlyph name="Oslash" xMin="41" yMin="-33" xMax="561" yMax="651">
      <contour>
        <pt x="370" y="633" on="1"/>
        <pt x="432" y="633" on="0"/>
        <pt x="472" y="599" on="1"/>
        <pt x="510" y="651" on="1"/>
        <pt x="561" y="614" on="1"/>
        <pt x="512" y="547" on="1"/>
        <pt x="532" y="502" on="0"/>
        <pt x="532" y="436" on="1"/>
        <pt x="532" y="399" on="0"/>
        <pt x="518" y="304" on="0"/>
        <pt x="488" y="204" on="0"/>
        <pt x="441" y="108" on="0"/>
        <pt x="375" y="33" on="0"/>
        <pt x="289" y="-13" on="0"/>
        <pt x="235" y="-13" on="1"/>
        <pt x="171" y="-13" on="0"/>
        <pt x="130" y="21" on="1"/>
        <pt x="91" y="-33" on="1"/>
        <pt x="41" y="3" on="1"/>
        <pt x="92" y="73" on="1"/>
        <pt x="82" y="95" on="0"/>
        <pt x="71" y="150" on="0"/>
        <pt x="71" y="184" on="1"/>
        <pt x="71" y="221" on="0"/>
        <pt x="85" y="316" on="0"/>
        <pt x="115" y="416" on="0"/>
        <pt x="163" y="512" on="0"/>
        <pt x="229" y="587" on="0"/>
        <pt x="316" y="633" on="0"/>
      </contour>
      <contour>
        <pt x="453" y="430" on="1"/>
        <pt x="453" y="438" on="0"/>
        <pt x="452" y="455" on="0"/>
        <pt x="451" y="463" on="1"/>
        <pt x="177" y="86" on="1"/>
        <pt x="201" y="58" on="0"/>
        <pt x="245" y="58" on="1"/>
        <pt x="294" y="58" on="0"/>
        <pt x="371" y="131" on="0"/>
        <pt x="425" y="242" on="0"/>
        <pt x="453" y="373" on="0"/>
      </contour>
      <contour>
        <pt x="360" y="562" on="1"/>
        <pt x="311" y="562" on="0"/>
        <pt x="234" y="489" on="0"/>
        <pt x="180" y="378" on="0"/>
        <pt x="152" y="247" on="0"/>
        <pt x="152" y="190" on="1"/>
        <pt x="152" y="182" on="0"/>
        <pt x="152" y="165" on="0"/>
        <pt x="153" y="157" on="1"/>
        <pt x="426" y="535" on="1"/>
        <pt x="402" y="562" on="0"/>
      </contour>
    </TTGlyph>
    <TTGlyph name="Oslashacute" xMin="41" yMin="-33" xMax="561" yMax="830">
      <component glyphName="Oslash" x="0" y="0" flags="0x214"/>
      <component glyphName="acute" x="-26" y="139" flags="0x4"/>
    </TTGlyph>
    <TTGlyph name="Otilde" xMin="80" yMin="-13" xMax="559" yMax="797">
      <component glyphName="O" x="0" y="0" flags="0x214"/>
      <component glyphName="tilde" x="41" y="139" flags="0x4"/>
    </TTGlyph>
    <TTGlyph name="P" xMin="54" yMin="0" xMax="541" yMax="625">
      <contour>
        <pt x="357" y="625" on="1"/>
        <pt x="439" y="625" on="0"/>
        <pt x="541" y="548" on="0"/>
        <pt x="541" y="472" on="1"/>
        <pt x="541" y="418" on="0"/>
        <pt x="501" y="329" on="0"/>
        <pt x="427" y="266" on="0"/>
        <pt x="325" y="231" on="0"/>
        <pt x="263" y="231" on="1"/>
        <pt x="191" y="231" on="1"/>
        <pt x="135" y="0" on="1"/>
        <pt x="54" y="0" on="1"/>
        <pt x="199" y="610" on="1"/>
        <pt x="212" y="613" on="0"/>
        <pt x="252" y="618" on="0"/>
        <pt x="296" y="623" on="0"/>
        <pt x="339" y="625" on="0"/>
      </contour>
      <contour>
        <pt x="344" y="555" on="1"/>
        <pt x="321" y="555" on="0"/>
        <pt x="279" y="553" on="0"/>
        <pt x="268" y="551" on="1"/>
        <pt x="207" y="301" on="1"/>
        <pt x="274" y="301" on="1"/>
        <pt x="363" y="301" on="0"/>
        <pt x="459" y="387" on="0"/>
        <pt x="459" y="464" on="1"/>
        <pt x="459" y="489" on="0"/>
        <pt x="439" y="524" on="0"/>
        <pt x="406" y="546" on="0"/>
        <pt x="365" y="555" on="0"/>
      </contour>
    </TTGlyph>
    <TTGlyph name="Parenleft" xMin="146" yMin="-125" xMax="523" yMax="743">
      <component glyphName="parenleft" x="0" y="42" flags="0x214"/>
    </TTGlyph>
    <TTGlyph name="Parenright" xMin="56" yMin="-125" xMax="434" yMax="743">
      <component glyphName="parenright" x="0" y="42" flags="0x214"/>
    </TTGlyph>
    <TTGlyph name="Phi" xMin="89" yMin="0" xMax="536" yMax="659">
      <component glyphName="afii10038" x="0" y="0" flags="0x214"/>
    </TTGlyph>
    <TTGlyph name="Pi" xMin="36" yMin="0" xMax="577" yMax="619">
      <component glyphName="afii10033" x="0" y="0" flags="0x214"/>
    </TTGlyph>
    <TTGlyph name="Psi" xMin="102" yMin="0" xMax="584" yMax="619">
      <contour>
        <pt x="266" y="0" on="1"/>
        <pt x="189" y="0" on="1"/>
        <pt x="228" y="158" on="1"/>
        <pt x="183" y="158" on="0"/>
        <pt x="128" y="194" on="0"/>
        <pt x="102" y="260" on="0"/>
        <pt x="106" y="353" on="0"/>
        <pt x="120" y="410" on="1"/>
        <pt x="170" y="619" on="1"/>
        <pt x="246" y="619" on="1"/>
        <pt x="196" y="413" on="1"/>
        <pt x="172" y="312" on="0"/>
        <pt x="191" y="228" on="0"/>
        <pt x="245" y="228" on="1"/>
        <pt x="303" y="475" on="1"/>
        <pt x="380" y="475" on="1"/>
        <pt x="321" y="228" on="1"/>
        <pt x="370" y="228" on="0"/>
        <pt x="433" y="312" on="0"/>
        <pt x="457" y="413" on="1"/>
        <pt x="507" y="619" on="1"/>
        <pt x="584" y="619" on="1"/>
        <pt x="534" y="410" on="1"/>
        <pt x="520" y="353" on="0"/>
        <pt x="484" y="260" on="0"/>
        <pt x="431" y="194" on="0"/>
        <pt x="357" y="158" on="0"/>
        <pt x="305" y="158" on="1"/>
      </contour>
    </TTGlyph>
    <TTGlyph name="Q" xMin="80" yMin="-165" xMax="541" yMax="633">
      <contour>
        <pt x="379" y="633" on="1"/>
        <pt x="451" y="633" on="0"/>
        <pt x="541" y="538" on="0"/>
        <pt x="541" y="436" on="1"/>
        <pt x="541" y="401" on="0"/>
        <pt x="529" y="311" on="0"/>
        <pt x="502" y="216" on="0"/>
        <pt x="460" y="123" on="0"/>
        <pt x="401" y="48" on="0"/>
        <pt x="323" y="-4" on="0"/>
        <pt x="275" y="-11" on="1"/>
        <pt x="275" y="-18" on="1"/>
        <pt x="275" y="-50" on="0"/>
        <pt x="351" y="-91" on="0"/>
        <pt x="413" y="-99" on="1"/>
        <pt x="377" y="-165" on="1"/>
        <pt x="341" y="-158" on="0"/>
        <pt x="272" y="-139" on="0"/>
        <pt x="220" y="-105" on="0"/>
        <pt x="189" y="-52" on="0"/>
        <pt x="189" y="-10" on="1"/>
        <pt x="189" y="-5" on="1"/>
        <pt x="139" y="9" on="0"/>
        <pt x="80" y="102" on="0"/>
        <pt x="80" y="184" on="1"/>
        <pt x="80" y="221" on="0"/>
        <pt x="94" y="316" on="0"/>
        <pt x="124" y="416" on="0"/>
        <pt x="172" y="512" on="0"/>
        <pt x="238" y="587" on="0"/>
        <pt x="325" y="633" on="0"/>
      </contour>
      <contour>
        <pt x="369" y="562" on="1"/>
        <pt x="320" y="562" on="0"/>
        <pt x="243" y="489" on="0"/>
        <pt x="191" y="378" on="0"/>
        <pt x="163" y="247" on="0"/>
        <pt x="163" y="190" on="1"/>
        <pt x="163" y="119" on="0"/>
        <pt x="211" y="58" on="0"/>
        <pt x="254" y="58" on="1"/>
        <pt x="303" y="58" on="0"/>
        <pt x="379" y="131" on="0"/>
        <pt x="431" y="242" on="0"/>
        <pt x="458" y="373" on="0"/>
        <pt x="458" y="430" on="1"/>
        <pt x="458" y="500" on="0"/>
        <pt x="411" y="562" on="0"/>
      </contour>
    </TTGlyph>
    <TTGlyph name="Questiondown" xMin="104" yMin="-8" xMax="458" yMax="627">
      <component glyphName="questiondown" x="27" y="162" flags="0x214"/>
    </TTGlyph>
    <TTGlyph name="R" xMin="45" yMin="0" xMax="528" yMax="625">
      <contour>
        <pt x="528" y="477" on="1"/>
        <pt x="528" y="392" on="0"/>
        <pt x="438" y="282" on="0"/>
        <pt x="364" y="259" on="1"/>
        <pt x="377" y="232" on="0"/>
        <pt x="400" y="182" on="0"/>
        <pt x="420" y="123" on="0"/>
        <pt x="440" y="49" on="0"/>
        <pt x="451" y="0" on="1"/>
        <pt x="367" y="0" on="1"/>
        <pt x="356" y="53" on="0"/>
        <pt x="335" y="128" on="0"/>
        <pt x="315" y="183" on="0"/>
        <pt x="295" y="224" on="0"/>
        <pt x="285" y="244" on="1"/>
        <pt x="185" y="244" on="1"/>
        <pt x="126" y="0" on="1"/>
        <pt x="45" y="0" on="1"/>
        <pt x="190" y="610" on="1"/>
        <pt x="206" y="614" on="0"/>
        <pt x="245" y="620" on="0"/>
        <pt x="285" y="623" on="0"/>
        <pt x="324" y="625" on="0"/>
        <pt x="340" y="625" on="1"/>
        <pt x="438" y="625" on="0"/>
        <pt x="528" y="544" on="0"/>
      </contour>
      <contour>
        <pt x="334" y="555" on="1"/>
        <pt x="311" y="555" on="0"/>
        <pt x="268" y="553" on="0"/>
        <pt x="258" y="551" on="1"/>
        <pt x="201" y="312" on="1"/>
        <pt x="251" y="312" on="1"/>
        <pt x="291" y="312" on="0"/>
        <pt x="362" y="325" on="0"/>
        <pt x="415" y="360" on="0"/>
        <pt x="446" y="419" on="0"/>
        <pt x="446" y="464" on="1"/>
        <pt x="446" y="512" on="0"/>
        <pt x="384" y="555" on="0"/>
      </contour>
    </TTGlyph>
    <TTGlyph name="Racute" xMin="45" yMin="0" xMax="528" yMax="830">
      <component glyphName="R" x="0" y="0" flags="0x214"/>
      <component glyphName="acute" x="18" y="139" flags="0x4"/>
    </TTGlyph>
    <TTGlyph name="Rcaron" xMin="45" yMin="0" xMax="528" yMax="830">
      <component glyphName="R" x="0" y="0" flags="0x214"/>
      <component glyphName="caron" x="0" y="139" flags="0x4"/>
    </TTGlyph>
    <TTGlyph name="Rcommaaccent" xMin="45" yMin="-170" xMax="528" yMax="625">
      <component glyphName="R" x="0" y="0" flags="0x214"/>
      <component glyphName="commaaccent" x="-17" y="0" flags="0x4"/>
    </TTGlyph>
    <TTGlyph name="Rho" xMin="54" yMin="0" xMax="541" yMax="625">
      <component glyphName="P" x="0" y="0" flags="0x214"/>
    </TTGlyph>
    <TTGlyph name="S" xMin="54" yMin="-13" xMax="545" yMax="633">
      <contour>
        <pt x="238" y="59" on="1"/>
        <pt x="265" y="59" on="0"/>
        <pt x="318" y="71" on="0"/>
        <pt x="360" y="98" on="0"/>
        <pt x="385" y="143" on="0"/>
        <pt x="385" y="176" on="1"/>
        <pt x="385" y="198" on="0"/>
        <pt x="368" y="231" on="0"/>
        <pt x="339" y="258" on="0"/>
        <pt x="300" y="281" on="0"/>
        <pt x="277" y="293" on="1"/>
        <pt x="256" y="304" on="0"/>
        <pt x="216" y="330" on="0"/>
        <pt x="186" y="365" on="0"/>
        <pt x="167" y="414" on="0"/>
        <pt x="167" y="449" on="1"/>
        <pt x="167" y="530" on="0"/>
        <pt x="280" y="633" on="0"/>
        <pt x="395" y="633" on="1"/>
        <pt x="420" y="633" on="0"/>
        <pt x="468" y="625" on="0"/>
        <pt x="507" y="613" on="0"/>
        <pt x="537" y="600" on="0"/>
        <pt x="545" y="595" on="1"/>
        <pt x="506" y="529" on="1"/>
        <pt x="491" y="542" on="0"/>
        <pt x="425" y="561" on="0"/>
        <pt x="380" y="561" on="1"/>
        <pt x="352" y="561" on="0"/>
        <pt x="305" y="549" on="0"/>
        <pt x="270" y="524" on="0"/>
        <pt x="250" y="484" on="0"/>
        <pt x="250" y="457" on="1"/>
        <pt x="250" y="434" on="0"/>
        <pt x="264" y="402" on="0"/>
        <pt x="288" y="378" on="0"/>
        <pt x="323" y="358" on="0"/>
        <pt x="344" y="347" on="1"/>
        <pt x="370" y="333" on="0"/>
        <pt x="416" y="306" on="0"/>
        <pt x="449" y="269" on="0"/>
        <pt x="468" y="219" on="0"/>
        <pt x="468" y="184" on="1"/>
        <pt x="468" y="135" on="0"/>
        <pt x="433" y="61" on="0"/>
        <pt x="370" y="12" on="0"/>
        <pt x="282" y="-13" on="0"/>
        <pt x="228" y="-13" on="1"/>
        <pt x="159" y="-13" on="0"/>
        <pt x="71" y="19" on="0"/>
        <pt x="54" y="31" on="1"/>
        <pt x="92" y="99" on="1"/>
        <pt x="109" y="88" on="0"/>
        <pt x="181" y="59" on="0"/>
      </contour>
    </TTGlyph>
    <TTGlyph name="SF010000.001" xMin="210" yMin="-170" xMax="500" yMax="370">
      <contour>
        <pt x="210" y="370" on="1"/>
        <pt x="500" y="370" on="1"/>
        <pt x="500" y="290" on="1"/>
        <pt x="290" y="290" on="1"/>
        <pt x="290" y="-170" on="1"/>
        <pt x="210" y="-170" on="1"/>
      </contour>
    </TTGlyph>
    <TTGlyph name="SF020000.001" xMin="210" yMin="290" xMax="500" yMax="830">
      <contour>
        <pt x="210" y="830" on="1"/>
        <pt x="290" y="830" on="1"/>
        <pt x="290" y="370" on="1"/>
        <pt x="500" y="370" on="1"/>
        <pt x="500" y="290" on="1"/>
        <pt x="210" y="290" on="1"/>
      </contour>
    </TTGlyph>
    <TTGlyph name="SF030000.001" xMin="0" yMin="-170" xMax="290" yMax="370">
      <contour>
        <pt x="0" y="370" on="1"/>
        <pt x="290" y="370" on="1"/>
        <pt x="290" y="-170" on="1"/>
        <pt x="210" y="-170" on="1"/>
        <pt x="210" y="290" on="1"/>
        <pt x="0" y="290" on="1"/>
      </contour>
    </TTGlyph>
    <TTGlyph name="SF040000.001" xMin="0" yMin="290" xMax="290" yMax="830">
      <contour>
        <pt x="0" y="370" on="1"/>
        <pt x="210" y="370" on="1"/>
        <pt x="210" y="830" on="1"/>
        <pt x="290" y="830" on="1"/>
        <pt x="290" y="290" on="1"/>
        <pt x="0" y="290" on="1"/>
      </contour>
    </TTGlyph>
    <TTGlyph name="SF050000.001" xMin="0" yMin="-170" xMax="500" yMax="830">
      <contour>
        <pt x="210" y="290" on="1"/>
        <pt x="0" y="290" on="1"/>
        <pt x="0" y="370" on="1"/>
        <pt x="210" y="370" on="1"/>
        <pt x="210" y="830" on="1"/>
        <pt x="290" y="830" on="1"/>
        <pt x="290" y="370" on="1"/>
        <pt x="500" y="370" on="1"/>
        <pt x="500" y="290" on="1"/>
        <pt x="290" y="290" on="1"/>
        <pt x="290" y="-170" on="1"/>
        <pt x="210" y="-170" on="1"/>
      </contour>
    </TTGlyph>
    <TTGlyph name="SF060000.001" xMin="0" yMin="-170" xMax="500" yMax="370">
      <contour>
        <pt x="500" y="370" on="1"/>
        <pt x="500" y="290" on="1"/>
        <pt x="290" y="290" on="1"/>
        <pt x="290" y="-170" on="1"/>
        <pt x="210" y="-170" on="1"/>
        <pt x="210" y="290" on="1"/>
        <pt x="0" y="290" on="1"/>
        <pt x="0" y="370" on="1"/>
      </contour>
    </TTGlyph>
    <TTGlyph name="SF070000.001" xMin="0" yMin="290" xMax="500" yMax="830">
      <contour>
        <pt x="0" y="290" on="1"/>
        <pt x="0" y="370" on="1"/>
        <pt x="210" y="370" on="1"/>
        <pt x="210" y="830" on="1"/>
        <pt x="290" y="830" on="1"/>
        <pt x="290" y="370" on="1"/>
        <pt x="500" y="370" on="1"/>
        <pt x="500" y="290" on="1"/>
      </contour>
    </TTGlyph>
    <TTGlyph name="SF080000.001" xMin="210" yMin="-170" xMax="500" yMax="830">
      <contour>
        <pt x="210" y="830" on="1"/>
        <pt x="290" y="830" on="1"/>
        <pt x="290" y="370" on="1"/>
        <pt x="500" y="370" on="1"/>
        <pt x="500" y="290" on="1"/>
        <pt x="290" y="290" on="1"/>
        <pt x="290" y="-170" on="1"/>
        <pt x="210" y="-170" on="1"/>
      </contour>
    </TTGlyph>
    <TTGlyph name="SF090000.001" xMin="0" yMin="-170" xMax="290" yMax="830">
      <contour>
        <pt x="290" y="-170" on="1"/>
        <pt x="210" y="-170" on="1"/>
        <pt x="210" y="290" on="1"/>
        <pt x="0" y="290" on="1"/>
        <pt x="0" y="370" on="1"/>
        <pt x="210" y="370" on="1"/>
        <pt x="210" y="830" on="1"/>
        <pt x="290" y="830" on="1"/>
      </contour>
    </TTGlyph>
    <TTGlyph name="SF100000.001" xMin="0" yMin="290" xMax="500" yMax="370">
      <contour>
        <pt x="0" y="290" on="1"/>
        <pt x="0" y="370" on="1"/>
        <pt x="500" y="370" on="1"/>
        <pt x="500" y="290" on="1"/>
      </contour>
    </TTGlyph>
    <TTGlyph name="SF110000.001" xMin="210" yMin="-170" xMax="290" yMax="830">
      <contour>
        <pt x="290" y="-170" on="1"/>
        <pt x="210" y="-170" on="1"/>
        <pt x="210" y="830" on="1"/>
        <pt x="290" y="830" on="1"/>
      </contour>
    </TTGlyph>
    <TTGlyph name="SF190000" xMin="0" yMin="-170" xMax="290" yMax="830">
      <contour>
        <pt x="0" y="450" on="1"/>
        <pt x="210" y="450" on="1"/>
        <pt x="210" y="830" on="1"/>
        <pt x="290" y="830" on="1"/>
        <pt x="290" y="370" on="1"/>
        <pt x="0" y="370" on="1"/>
      </contour>
      <contour>
        <pt x="0" y="290" on="1"/>
        <pt x="290" y="290" on="1"/>
        <pt x="290" y="-170" on="1"/>
        <pt x="210" y="-170" on="1"/>
        <pt x="210" y="210" on="1"/>
        <pt x="0" y="210" on="1"/>
      </contour>
    </TTGlyph>
    <TTGlyph name="SF200000" xMin="0" yMin="-170" xMax="370" yMax="830">
      <contour>
        <pt x="210" y="-170" on="1"/>
        <pt x="130" y="-170" on="1"/>
        <pt x="130" y="290" on="1"/>
        <pt x="0" y="290" on="1"/>
        <pt x="0" y="370" on="1"/>
        <pt x="130" y="370" on="1"/>
        <pt x="130" y="830" on="1"/>
        <pt x="210" y="830" on="1"/>
      </contour>
      <contour>
        <pt x="370" y="-170" on="1"/>
        <pt x="290" y="-170" on="1"/>
        <pt x="290" y="830" on="1"/>
        <pt x="370" y="830" on="1"/>
      </contour>
    </TTGlyph>
    <TTGlyph name="SF210000" xMin="0" yMin="-170" xMax="370" yMax="370">
      <contour>
        <pt x="0" y="370" on="1"/>
        <pt x="210" y="370" on="1"/>
        <pt x="210" y="-170" on="1"/>
        <pt x="130" y="-170" on="1"/>
        <pt x="130" y="290" on="1"/>
        <pt x="0" y="290" on="1"/>
      </contour>
      <contour>
        <pt x="290" y="370" on="1"/>
        <pt x="370" y="370" on="1"/>
        <pt x="370" y="-170" on="1"/>
        <pt x="290" y="-170" on="1"/>
      </contour>
    </TTGlyph>
    <TTGlyph name="SF220000" xMin="0" yMin="-170" xMax="290" yMax="450">
      <contour>
        <pt x="0" y="290" on="1"/>
        <pt x="290" y="290" on="1"/>
        <pt x="290" y="-170" on="1"/>
        <pt x="210" y="-170" on="1"/>
        <pt x="210" y="210" on="1"/>
        <pt x="0" y="210" on="1"/>
      </contour>
      <contour>
        <pt x="0" y="450" on="1"/>
        <pt x="290" y="450" on="1"/>
        <pt x="290" y="370" on="1"/>
        <pt x="0" y="370" on="1"/>
      </contour>
    </TTGlyph>
    <TTGlyph name="SF230000" xMin="0" yMin="-170" xMax="370" yMax="830">
      <contour>
        <pt x="290" y="830" on="1"/>
        <pt x="370" y="830" on="1"/>
        <pt x="370" y="-170" on="1"/>
        <pt x="290" y="-170" on="1"/>
      </contour>
      <contour>
        <pt x="0" y="450" on="1"/>
        <pt x="130" y="450" on="1"/>
        <pt x="130" y="830" on="1"/>
        <pt x="210" y="830" on="1"/>
        <pt x="210" y="370" on="1"/>
        <pt x="0" y="370" on="1"/>
      </contour>
      <contour>
        <pt x="0" y="290" on="1"/>
        <pt x="210" y="290" on="1"/>
        <pt x="210" y="-170" on="1"/>
        <pt x="130" y="-170" on="1"/>
        <pt x="130" y="210" on="1"/>
        <pt x="0" y="210" on="1"/>
      </contour>
    </TTGlyph>
    <TTGlyph name="SF240000" xMin="130" yMin="-170" xMax="370" yMax="830">
      <contour>
        <pt x="210" y="-170" on="1"/>
        <pt x="130" y="-170" on="1"/>
        <pt x="130" y="830" on="1"/>
        <pt x="210" y="830" on="1"/>
      </contour>
      <contour>
        <pt x="290" y="830" on="1"/>
        <pt x="370" y="830" on="1"/>
        <pt x="370" y="-170" on="1"/>
        <pt x="290" y="-170" on="1"/>
      </contour>
    </TTGlyph>
    <TTGlyph name="SF250000" xMin="0" yMin="-170" xMax="370" yMax="450">
      <contour>
        <pt x="0" y="290" on="1"/>
        <pt x="210" y="290" on="1"/>
        <pt x="210" y="-170" on="1"/>
        <pt x="130" y="-170" on="1"/>
        <pt x="130" y="210" on="1"/>
        <pt x="0" y="210" on="1"/>
      </contour>
      <contour>
        <pt x="0" y="450" on="1"/>
        <pt x="370" y="450" on="1"/>
        <pt x="370" y="-170" on="1"/>
        <pt x="290" y="-170" on="1"/>
        <pt x="290" y="370" on="1"/>
        <pt x="0" y="370" on="1"/>
      </contour>
    </TTGlyph>
    <TTGlyph name="SF260000" xMin="0" yMin="210" xMax="370" yMax="830">
      <contour>
        <pt x="0" y="450" on="1"/>
        <pt x="130" y="450" on="1"/>
        <pt x="130" y="830" on="1"/>
        <pt x="210" y="830" on="1"/>
        <pt x="210" y="370" on="1"/>
        <pt x="0" y="370" on="1"/>
      </contour>
      <contour>
        <pt x="0" y="290" on="1"/>
        <pt x="290" y="290" on="1"/>
        <pt x="290" y="830" on="1"/>
        <pt x="370" y="830" on="1"/>
        <pt x="370" y="210" on="1"/>
        <pt x="0" y="210" on="1"/>
      </contour>
    </TTGlyph>
    <TTGlyph name="SF270000" xMin="0" yMin="290" xMax="370" yMax="830">
      <contour>
        <pt x="0" y="370" on="1"/>
        <pt x="130" y="370" on="1"/>
        <pt x="130" y="830" on="1"/>
        <pt x="210" y="830" on="1"/>
        <pt x="210" y="290" on="1"/>
        <pt x="0" y="290" on="1"/>
      </contour>
      <contour>
        <pt x="290" y="830" on="1"/>
        <pt x="370" y="830" on="1"/>
        <pt x="370" y="290" on="1"/>
        <pt x="290" y="290" on="1"/>
      </contour>
    </TTGlyph>
    <TTGlyph name="SF280000" xMin="0" yMin="210" xMax="290" yMax="830">
      <contour>
        <pt x="0" y="450" on="1"/>
        <pt x="210" y="450" on="1"/>
        <pt x="210" y="830" on="1"/>
        <pt x="290" y="830" on="1"/>
        <pt x="290" y="370" on="1"/>
        <pt x="0" y="370" on="1"/>
      </contour>
      <contour>
        <pt x="0" y="290" on="1"/>
        <pt x="290" y="290" on="1"/>
        <pt x="290" y="210" on="1"/>
        <pt x="0" y="210" on="1"/>
      </contour>
    </TTGlyph>
    <TTGlyph name="SF360000" xMin="210" yMin="-170" xMax="500" yMax="830">
      <contour>
        <pt x="500" y="370" on="1"/>
        <pt x="210" y="370" on="1"/>
        <pt x="210" y="830" on="1"/>
        <pt x="290" y="830" on="1"/>
        <pt x="290" y="450" on="1"/>
        <pt x="500" y="450" on="1"/>
      </contour>
      <contour>
        <pt x="500" y="210" on="1"/>
        <pt x="290" y="210" on="1"/>
        <pt x="290" y="-170" on="1"/>
        <pt x="210" y="-170" on="1"/>
        <pt x="210" y="290" on="1"/>
        <pt x="500" y="290" on="1"/>
      </contour>
    </TTGlyph>
    <TTGlyph name="SF370000" xMin="130" yMin="-170" xMax="500" yMax="830">
      <contour>
        <pt x="290" y="830" on="1"/>
        <pt x="370" y="830" on="1"/>
        <pt x="370" y="370" on="1"/>
        <pt x="500" y="370" on="1"/>
        <pt x="500" y="290" on="1"/>
        <pt x="370" y="290" on="1"/>
        <pt x="370" y="-170" on="1"/>
        <pt x="290" y="-170" on="1"/>
      </contour>
      <contour>
        <pt x="130" y="830" on="1"/>
        <pt x="210" y="830" on="1"/>
        <pt x="210" y="-170" on="1"/>
        <pt x="130" y="-170" on="1"/>
      </contour>
    </TTGlyph>
    <TTGlyph name="SF380000" xMin="130" yMin="210" xMax="500" yMax="830">
      <contour>
        <pt x="500" y="370" on="1"/>
        <pt x="290" y="370" on="1"/>
        <pt x="290" y="830" on="1"/>
        <pt x="370" y="830" on="1"/>
        <pt x="370" y="450" on="1"/>
        <pt x="500" y="450" on="1"/>
      </contour>
      <contour>
        <pt x="500" y="210" on="1"/>
        <pt x="130" y="210" on="1"/>
        <pt x="130" y="830" on="1"/>
        <pt x="210" y="830" on="1"/>
        <pt x="210" y="290" on="1"/>
        <pt x="500" y="290" on="1"/>
      </contour>
    </TTGlyph>
    <TTGlyph name="SF390000" xMin="130" yMin="-170" xMax="500" yMax="450">
      <contour>
        <pt x="500" y="210" on="1"/>
        <pt x="370" y="210" on="1"/>
        <pt x="370" y="-170" on="1"/>
        <pt x="290" y="-170" on="1"/>
        <pt x="290" y="290" on="1"/>
        <pt x="500" y="290" on="1"/>
      </contour>
      <contour>
        <pt x="500" y="370" on="1"/>
        <pt x="210" y="370" on="1"/>
        <pt x="210" y="-170" on="1"/>
        <pt x="130" y="-170" on="1"/>
        <pt x="130" y="450" on="1"/>
        <pt x="500" y="450" on="1"/>
      </contour>
    </TTGlyph>
    <TTGlyph name="SF400000" xMin="0" yMin="210" xMax="500" yMax="830">
      <contour>
        <pt x="500" y="290" on="1"/>
        <pt x="500" y="210" on="1"/>
        <pt x="0" y="210" on="1"/>
        <pt x="0" y="290" on="1"/>
      </contour>
      <contour>
        <pt x="0" y="450" on="1"/>
        <pt x="130" y="450" on="1"/>
        <pt x="130" y="830" on="1"/>
        <pt x="210" y="830" on="1"/>
        <pt x="210" y="370" on="1"/>
        <pt x="0" y="370" on="1"/>
      </contour>
      <contour>
        <pt x="500" y="370" on="1"/>
        <pt x="290" y="370" on="1"/>
        <pt x="290" y="830" on="1"/>
        <pt x="370" y="830" on="1"/>
        <pt x="370" y="450" on="1"/>
        <pt x="500" y="450" on="1"/>
      </contour>
    </TTGlyph>
    <TTGlyph name="SF410000" xMin="0" yMin="-170" xMax="500" yMax="450">
      <contour>
        <pt x="0" y="370" on="1"/>
        <pt x="0" y="450" on="1"/>
        <pt x="500" y="450" on="1"/>
        <pt x="500" y="370" on="1"/>
      </contour>
      <contour>
        <pt x="500" y="210" on="1"/>
        <pt x="370" y="210" on="1"/>
        <pt x="370" y="-170" on="1"/>
        <pt x="290" y="-170" on="1"/>
        <pt x="290" y="290" on="1"/>
        <pt x="500" y="290" on="1"/>
      </contour>
      <contour>
        <pt x="0" y="290" on="1"/>
        <pt x="210" y="290" on="1"/>
        <pt x="210" y="-170" on="1"/>
        <pt x="130" y="-170" on="1"/>
        <pt x="130" y="210" on="1"/>
        <pt x="0" y="210" on="1"/>
      </contour>
    </TTGlyph>
    <TTGlyph name="SF420000" xMin="130" yMin="-170" xMax="500" yMax="830">
      <contour>
        <pt x="210" y="-170" on="1"/>
        <pt x="130" y="-170" on="1"/>
        <pt x="130" y="830" on="1"/>
        <pt x="210" y="830" on="1"/>
      </contour>
      <contour>
        <pt x="500" y="370" on="1"/>
        <pt x="290" y="370" on="1"/>
        <pt x="290" y="830" on="1"/>
        <pt x="370" y="830" on="1"/>
        <pt x="370" y="450" on="1"/>
        <pt x="500" y="450" on="1"/>
      </contour>
      <contour>
        <pt x="500" y="210" on="1"/>
        <pt x="370" y="210" on="1"/>
        <pt x="370" y="-170" on="1"/>
        <pt x="290" y="-170" on="1"/>
        <pt x="290" y="290" on="1"/>
        <pt x="500" y="290" on="1"/>
      </contour>
    </TTGlyph>
    <TTGlyph name="SF430000" xMin="0" yMin="210" xMax="500" yMax="450">
      <contour>
        <pt x="0" y="210" on="1"/>
        <pt x="0" y="290" on="1"/>
        <pt x="500" y="290" on="1"/>
        <pt x="500" y="210" on="1"/>
      </contour>
      <contour>
        <pt x="0" y="370" on="1"/>
        <pt x="0" y="450" on="1"/>
        <pt x="500" y="450" on="1"/>
        <pt x="500" y="370" on="1"/>
      </contour>
    </TTGlyph>
    <TTGlyph name="SF440000" xMin="0" yMin="-170" xMax="500" yMax="830">
      <contour>
        <pt x="0" y="450" on="1"/>
        <pt x="130" y="450" on="1"/>
        <pt x="130" y="830" on="1"/>
        <pt x="210" y="830" on="1"/>
        <pt x="210" y="370" on="1"/>
        <pt x="0" y="370" on="1"/>
      </contour>
      <contour>
        <pt x="500" y="210" on="1"/>
        <pt x="370" y="210" on="1"/>
        <pt x="370" y="-170" on="1"/>
        <pt x="290" y="-170" on="1"/>
        <pt x="290" y="290" on="1"/>
        <pt x="500" y="290" on="1"/>
      </contour>
      <contour>
        <pt x="500" y="370" on="1"/>
        <pt x="290" y="370" on="1"/>
        <pt x="290" y="830" on="1"/>
        <pt x="370" y="830" on="1"/>
        <pt x="370" y="450" on="1"/>
        <pt x="500" y="450" on="1"/>
      </contour>
      <contour>
        <pt x="0" y="290" on="1"/>
        <pt x="210" y="290" on="1"/>
        <pt x="210" y="-170" on="1"/>
        <pt x="130" y="-170" on="1"/>
        <pt x="130" y="210" on="1"/>
        <pt x="0" y="210" on="1"/>
      </contour>
    </TTGlyph>
    <TTGlyph name="SF450000" xMin="0" yMin="210" xMax="500" yMax="830">
      <contour>
        <pt x="0" y="370" on="1"/>
        <pt x="0" y="450" on="1"/>
        <pt x="210" y="450" on="1"/>
        <pt x="210" y="830" on="1"/>
        <pt x="290" y="830" on="1"/>
        <pt x="290" y="450" on="1"/>
        <pt x="500" y="450" on="1"/>
        <pt x="500" y="370" on="1"/>
      </contour>
      <contour>
        <pt x="500" y="290" on="1"/>
        <pt x="500" y="210" on="1"/>
        <pt x="0" y="210" on="1"/>
        <pt x="0" y="290" on="1"/>
      </contour>
    </TTGlyph>
    <TTGlyph name="SF460000" xMin="0" yMin="290" xMax="500" yMax="830">
      <contour>
        <pt x="500" y="370" on="1"/>
        <pt x="500" y="290" on="1"/>
        <pt x="0" y="290" on="1"/>
        <pt x="0" y="370" on="1"/>
        <pt x="130" y="370" on="1"/>
        <pt x="130" y="830" on="1"/>
        <pt x="210" y="830" on="1"/>
        <pt x="210" y="370" on="1"/>
        <pt x="290" y="370" on="1"/>
        <pt x="290" y="830" on="1"/>
        <pt x="370" y="830" on="1"/>
        <pt x="370" y="370" on="1"/>
      </contour>
    </TTGlyph>
    <TTGlyph name="SF470000" xMin="0" yMin="-170" xMax="500" yMax="450">
      <contour>
        <pt x="500" y="290" on="1"/>
        <pt x="500" y="210" on="1"/>
        <pt x="290" y="210" on="1"/>
        <pt x="290" y="-170" on="1"/>
        <pt x="210" y="-170" on="1"/>
        <pt x="210" y="210" on="1"/>
        <pt x="0" y="210" on="1"/>
        <pt x="0" y="290" on="1"/>
      </contour>
      <contour>
        <pt x="0" y="370" on="1"/>
        <pt x="0" y="450" on="1"/>
        <pt x="500" y="450" on="1"/>
        <pt x="500" y="370" on="1"/>
      </contour>
    </TTGlyph>
    <TTGlyph name="SF480000" xMin="0" yMin="-170" xMax="500" yMax="370">
      <contour>
        <pt x="0" y="290" on="1"/>
        <pt x="0" y="370" on="1"/>
        <pt x="500" y="370" on="1"/>
        <pt x="500" y="290" on="1"/>
        <pt x="370" y="290" on="1"/>
        <pt x="370" y="-170" on="1"/>
        <pt x="290" y="-170" on="1"/>
        <pt x="290" y="290" on="1"/>
        <pt x="210" y="290" on="1"/>
        <pt x="210" y="-170" on="1"/>
        <pt x="130" y="-170" on="1"/>
        <pt x="130" y="290" on="1"/>
      </contour>
    </TTGlyph>
    <TTGlyph name="SF490000" xMin="130" yMin="290" xMax="500" yMax="830">
      <contour>
        <pt x="500" y="290" on="1"/>
        <pt x="290" y="290" on="1"/>
        <pt x="290" y="830" on="1"/>
        <pt x="370" y="830" on="1"/>
        <pt x="370" y="370" on="1"/>
        <pt x="500" y="370" on="1"/>
      </contour>
      <contour>
        <pt x="210" y="290" on="1"/>
        <pt x="130" y="290" on="1"/>
        <pt x="130" y="830" on="1"/>
        <pt x="210" y="830" on="1"/>
      </contour>
    </TTGlyph>
    <TTGlyph name="SF500000" xMin="210" yMin="210" xMax="500" yMax="830">
      <contour>
        <pt x="500" y="370" on="1"/>
        <pt x="210" y="370" on="1"/>
        <pt x="210" y="830" on="1"/>
        <pt x="290" y="830" on="1"/>
        <pt x="290" y="450" on="1"/>
        <pt x="500" y="450" on="1"/>
      </contour>
      <contour>
        <pt x="210" y="290" on="1"/>
        <pt x="500" y="290" on="1"/>
        <pt x="500" y="210" on="1"/>
        <pt x="210" y="210" on="1"/>
      </contour>
    </TTGlyph>
    <TTGlyph name="SF510000" xMin="210" yMin="-170" xMax="500" yMax="450">
      <contour>
        <pt x="500" y="210" on="1"/>
        <pt x="290" y="210" on="1"/>
        <pt x="290" y="-170" on="1"/>
        <pt x="210" y="-170" on="1"/>
        <pt x="210" y="290" on="1"/>
        <pt x="500" y="290" on="1"/>
      </contour>
      <contour>
        <pt x="210" y="450" on="1"/>
        <pt x="500" y="450" on="1"/>
        <pt x="500" y="370" on="1"/>
        <pt x="210" y="370" on="1"/>
      </contour>
    </TTGlyph>
    <TTGlyph name="SF520000" xMin="130" yMin="-170" xMax="500" yMax="370">
      <contour>
        <pt x="500" y="290" on="1"/>
        <pt x="370" y="290" on="1"/>
        <pt x="370" y="-170" on="1"/>
        <pt x="290" y="-170" on="1"/>
        <pt x="290" y="370" on="1"/>
        <pt x="500" y="370" on="1"/>
      </contour>
      <contour>
        <pt x="210" y="-170" on="1"/>
        <pt x="130" y="-170" on="1"/>
        <pt x="130" y="370" on="1"/>
        <pt x="210" y="370" on="1"/>
      </contour>
    </TTGlyph>
    <TTGlyph name="SF530000" xMin="0" yMin="-170" xMax="500" yMax="830">
      <contour>
        <pt x="370" y="370" on="1"/>
        <pt x="500" y="370" on="1"/>
        <pt x="500" y="290" on="1"/>
        <pt x="370" y="290" on="1"/>
        <pt x="370" y="-170" on="1"/>
        <pt x="290" y="-170" on="1"/>
        <pt x="290" y="290" on="1"/>
        <pt x="210" y="290" on="1"/>
        <pt x="210" y="-170" on="1"/>
        <pt x="130" y="-170" on="1"/>
        <pt x="130" y="290" on="1"/>
        <pt x="0" y="290" on="1"/>
        <pt x="0" y="370" on="1"/>
        <pt x="130" y="370" on="1"/>
        <pt x="130" y="830" on="1"/>
        <pt x="210" y="830" on="1"/>
        <pt x="210" y="370" on="1"/>
        <pt x="290" y="370" on="1"/>
        <pt x="290" y="830" on="1"/>
        <pt x="370" y="830" on="1"/>
      </contour>
    </TTGlyph>
    <TTGlyph name="SF530000.001" xMin="0" yMin="-170" xMax="500" yMax="830">
      <contour>
        <pt x="210" y="-170" on="1"/>
        <pt x="130" y="-170" on="1"/>
        <pt x="130" y="290" on="1"/>
        <pt x="0" y="290" on="1"/>
        <pt x="0" y="370" on="1"/>
        <pt x="130" y="370" on="1"/>
        <pt x="130" y="830" on="1"/>
        <pt x="210" y="830" on="1"/>
      </contour>
      <contour>
        <pt x="290" y="830" on="1"/>
        <pt x="370" y="830" on="1"/>
        <pt x="370" y="370" on="1"/>
        <pt x="500" y="370" on="1"/>
        <pt x="500" y="290" on="1"/>
        <pt x="370" y="290" on="1"/>
        <pt x="370" y="-170" on="1"/>
        <pt x="290" y="-170" on="1"/>
      </contour>
    </TTGlyph>
    <TTGlyph name="SF540000" xMin="0" yMin="-170" xMax="500" yMax="830">
      <contour>
        <pt x="500" y="290" on="1"/>
        <pt x="500" y="210" on="1"/>
        <pt x="290" y="210" on="1"/>
        <pt x="290" y="-170" on="1"/>
        <pt x="210" y="-170" on="1"/>
        <pt x="210" y="210" on="1"/>
        <pt x="0" y="210" on="1"/>
        <pt x="0" y="290" on="1"/>
        <pt x="210" y="290" on="1"/>
        <pt x="210" y="370" on="1"/>
        <pt x="0" y="370" on="1"/>
        <pt x="0" y="450" on="1"/>
        <pt x="210" y="450" on="1"/>
        <pt x="210" y="830" on="1"/>
        <pt x="290" y="830" on="1"/>
        <pt x="290" y="450" on="1"/>
        <pt x="500" y="450" on="1"/>
        <pt x="500" y="370" on="1"/>
        <pt x="290" y="370" on="1"/>
        <pt x="290" y="290" on="1"/>
      </contour>
    </TTGlyph>
    <TTGlyph name="SF540000.001" xMin="0" yMin="-170" xMax="500" yMax="830">
      <contour>
        <pt x="0" y="370" on="1"/>
        <pt x="0" y="450" on="1"/>
        <pt x="210" y="450" on="1"/>
        <pt x="210" y="830" on="1"/>
        <pt x="290" y="830" on="1"/>
        <pt x="290" y="450" on="1"/>
        <pt x="500" y="450" on="1"/>
        <pt x="500" y="370" on="1"/>
      </contour>
      <contour>
        <pt x="500" y="290" on="1"/>
        <pt x="500" y="210" on="1"/>
        <pt x="290" y="210" on="1"/>
        <pt x="290" y="-170" on="1"/>
        <pt x="210" y="-170" on="1"/>
        <pt x="210" y="210" on="1"/>
        <pt x="0" y="210" on="1"/>
        <pt x="0" y="290" on="1"/>
      </contour>
    </TTGlyph>
    <TTGlyph name="Sacute" xMin="54" yMin="-13" xMax="545" yMax="830">
      <component glyphName="S" x="0" y="0" flags="0x214"/>
      <component glyphName="acute" x="18" y="139" flags="0x4"/>
    </TTGlyph>
    <TTGlyph name="Scaron" xMin="54" yMin="-13" xMax="546" yMax="830">
      <component glyphName="S" x="0" y="0" flags="0x214"/>
      <component glyphName="caron" x="43" y="139" flags="0x4"/>
    </TTGlyph>
    <TTGlyph name="Scedilla" xMin="54" yMin="-169" xMax="545" yMax="633">
      <contour>
        <pt x="240" y="-34" on="1"/>
        <pt x="258" y="-44" on="0"/>
        <pt x="276" y="-67" on="0"/>
        <pt x="276" y="-88" on="1"/>
        <pt x="276" y="-127" on="0"/>
        <pt x="220" y="-169" on="0"/>
        <pt x="172" y="-169" on="1"/>
        <pt x="146" y="-169" on="0"/>
        <pt x="111" y="-161" on="0"/>
        <pt x="100" y="-155" on="1"/>
        <pt x="120" y="-106" on="1"/>
        <pt x="128" y="-110" on="0"/>
        <pt x="151" y="-116" on="0"/>
        <pt x="168" y="-116" on="1"/>
        <pt x="183" y="-116" on="0"/>
        <pt x="202" y="-107" on="0"/>
        <pt x="202" y="-94" on="1"/>
        <pt x="202" y="-79" on="0"/>
        <pt x="179" y="-65" on="0"/>
        <pt x="166" y="-62" on="1"/>
        <pt x="172" y="-51" on="0"/>
        <pt x="189" y="-25" on="0"/>
        <pt x="198" y="-12" on="1"/>
        <pt x="142" y="-8" on="0"/>
        <pt x="68" y="20" on="0"/>
        <pt x="54" y="31" on="1"/>
        <pt x="92" y="99" on="1"/>
        <pt x="109" y="88" on="0"/>
        <pt x="181" y="59" on="0"/>
        <pt x="238" y="59" on="1"/>
        <pt x="265" y="59" on="0"/>
        <pt x="318" y="71" on="0"/>
        <pt x="360" y="98" on="0"/>
        <pt x="385" y="143" on="0"/>
        <pt x="385" y="176" on="1"/>
        <pt x="385" y="198" on="0"/>
        <pt x="368" y="231" on="0"/>
        <pt x="339" y="258" on="0"/>
        <pt x="300" y="281" on="0"/>
        <pt x="277" y="293" on="1"/>
        <pt x="256" y="304" on="0"/>
        <pt x="216" y="330" on="0"/>
        <pt x="186" y="365" on="0"/>
        <pt x="167" y="414" on="0"/>
        <pt x="167" y="449" on="1"/>
        <pt x="167" y="530" on="0"/>
        <pt x="280" y="633" on="0"/>
        <pt x="395" y="633" on="1"/>
        <pt x="420" y="633" on="0"/>
        <pt x="468" y="625" on="0"/>
        <pt x="507" y="613" on="0"/>
        <pt x="537" y="600" on="0"/>
        <pt x="545" y="595" on="1"/>
        <pt x="506" y="529" on="1"/>
        <pt x="491" y="542" on="0"/>
        <pt x="425" y="561" on="0"/>
        <pt x="380" y="561" on="1"/>
        <pt x="352" y="561" on="0"/>
        <pt x="305" y="549" on="0"/>
        <pt x="270" y="524" on="0"/>
        <pt x="250" y="484" on="0"/>
        <pt x="250" y="457" on="1"/>
        <pt x="250" y="434" on="0"/>
        <pt x="264" y="402" on="0"/>
        <pt x="288" y="378" on="0"/>
        <pt x="323" y="358" on="0"/>
        <pt x="344" y="347" on="1"/>
        <pt x="370" y="333" on="0"/>
        <pt x="416" y="306" on="0"/>
        <pt x="449" y="269" on="0"/>
        <pt x="468" y="219" on="0"/>
        <pt x="468" y="184" on="1"/>
        <pt x="468" y="138" on="0"/>
        <pt x="437" y="67" on="0"/>
        <pt x="382" y="18" on="0"/>
        <pt x="304" y="-9" on="0"/>
        <pt x="256" y="-12" on="1"/>
      </contour>
    </TTGlyph>
    <TTGlyph name="Scircumflex" xMin="54" yMin="-13" xMax="545" yMax="826">
      <component glyphName="S" x="0" y="0" flags="0x214"/>
      <component glyphName="circumflex" x="36" y="139" flags="0x4"/>
    </TTGlyph>
    <TTGlyph name="Scommaaccent" xMin="54" yMin="-170" xMax="545" yMax="633">
      <component glyphName="S" x="0" y="0" flags="0x214"/>
      <component glyphName="commaaccent" x="-35" y="0" flags="0x4"/>
    </TTGlyph>
    <TTGlyph name="Sigma" xMin="18" yMin="0" xMax="578" yMax="619">
      <contour>
        <pt x="32" y="62" on="1"/>
        <pt x="54" y="90" on="0"/>
        <pt x="116" y="155" on="0"/>
        <pt x="185" y="223" on="0"/>
        <pt x="258" y="291" on="0"/>
        <pt x="291" y="322" on="1"/>
        <pt x="270" y="361" on="0"/>
        <pt x="229" y="438" on="0"/>
        <pt x="195" y="505" on="0"/>
        <pt x="170" y="557" on="0"/>
        <pt x="165" y="569" on="1"/>
        <pt x="178" y="619" on="1"/>
        <pt x="578" y="619" on="1"/>
        <pt x="561" y="549" on="1"/>
        <pt x="258" y="549" on="1"/>
        <pt x="281" y="495" on="0"/>
        <pt x="347" y="376" on="0"/>
        <pt x="382" y="313" on="1"/>
        <pt x="318" y="253" on="0"/>
        <pt x="191" y="135" on="0"/>
        <pt x="129" y="70" on="1"/>
        <pt x="446" y="70" on="1"/>
        <pt x="429" y="0" on="1"/>
        <pt x="18" y="0" on="1"/>
      </contour>
    </TTGlyph>
    <TTGlyph name="Slash" xMin="-17" yMin="-123" xMax="553" yMax="741">
      <component glyphName="slash" x="0" y="42" flags="0x214"/>
    </TTGlyph>
    <TTGlyph name="T" xMin="152" yMin="0" xMax="589" yMax="619">
      <contour>
        <pt x="589" y="619" on="1"/>
        <pt x="572" y="549" on="1"/>
        <pt x="403" y="549" on="1"/>
        <pt x="271" y="0" on="1"/>
        <pt x="188" y="0" on="1"/>
        <pt x="321" y="549" on="1"/>
        <pt x="152" y="549" on="1"/>
        <pt x="169" y="619" on="1"/>
      </contour>
    </TTGlyph>
    <TTGlyph name="Tau" xMin="152" yMin="0" xMax="589" yMax="619">
      <component glyphName="T" x="0" y="0" flags="0x214"/>
    </TTGlyph>
    <TTGlyph name="Tbar" xMin="152" yMin="0" xMax="589" yMax="619">
      <contour>
        <pt x="589" y="619" on="1"/>
        <pt x="572" y="549" on="1"/>
        <pt x="403" y="549" on="1"/>
        <pt x="355" y="351" on="1"/>
        <pt x="451" y="351" on="1"/>
        <pt x="435" y="284" on="1"/>
        <pt x="338" y="284" on="1"/>
        <pt x="271" y="0" on="1"/>
        <pt x="188" y="0" on="1"/>
        <pt x="256" y="284" on="1"/>
        <pt x="164" y="284" on="1"/>
        <pt x="180" y="351" on="1"/>
        <pt x="272" y="351" on="1"/>
        <pt x="321" y="549" on="1"/>
        <pt x="152" y="549" on="1"/>
        <pt x="169" y="619" on="1"/>
      </contour>
    </TTGlyph>
    <TTGlyph name="Tcaron" xMin="152" yMin="0" xMax="589" yMax="830">
      <component glyphName="T" x="0" y="0" flags="0x214"/>
      <component glyphName="caron" x="36" y="139" flags="0x4"/>
    </TTGlyph>
    <TTGlyph name="Theta" xMin="80" yMin="-13" xMax="541" yMax="633">
      <contour>
        <pt x="247" y="346" on="1"/>
        <pt x="391" y="346" on="1"/>
        <pt x="375" y="277" on="1"/>
        <pt x="231" y="277" on="1"/>
      </contour>
      <contour>
        <pt x="369" y="562" on="1"/>
        <pt x="320" y="562" on="0"/>
        <pt x="243" y="489" on="0"/>
        <pt x="191" y="378" on="0"/>
        <pt x="163" y="247" on="0"/>
        <pt x="163" y="190" on="1"/>
        <pt x="163" y="119" on="0"/>
        <pt x="211" y="58" on="0"/>
        <pt x="254" y="58" on="1"/>
        <pt x="303" y="58" on="0"/>
        <pt x="379" y="131" on="0"/>
        <pt x="431" y="242" on="0"/>
        <pt x="458" y="373" on="0"/>
        <pt x="458" y="430" on="1"/>
        <pt x="458" y="500" on="0"/>
        <pt x="411" y="562" on="0"/>
      </contour>
      <contour>
        <pt x="379" y="633" on="1"/>
        <pt x="451" y="633" on="0"/>
        <pt x="541" y="538" on="0"/>
        <pt x="541" y="436" on="1"/>
        <pt x="541" y="399" on="0"/>
        <pt x="527" y="304" on="0"/>
        <pt x="497" y="204" on="0"/>
        <pt x="450" y="108" on="0"/>
        <pt x="384" y="33" on="0"/>
        <pt x="298" y="-13" on="0"/>
        <pt x="244" y="-13" on="1"/>
        <pt x="171" y="-13" on="0"/>
        <pt x="80" y="82" on="0"/>
        <pt x="80" y="184" on="1"/>
        <pt x="80" y="221" on="0"/>
        <pt x="94" y="316" on="0"/>
        <pt x="124" y="416" on="0"/>
        <pt x="172" y="512" on="0"/>
        <pt x="238" y="587" on="0"/>
        <pt x="325" y="633" on="0"/>
      </contour>
    </TTGlyph>
    <TTGlyph name="Thorn" xMin="53" yMin="0" xMax="518" yMax="619">
      <contour>
        <pt x="202" y="619" on="1"/>
        <pt x="284" y="619" on="1"/>
        <pt x="260" y="517" on="1"/>
        <pt x="291" y="520" on="0"/>
        <pt x="321" y="520" on="1"/>
        <pt x="420" y="520" on="0"/>
        <pt x="518" y="433" on="0"/>
        <pt x="518" y="363" on="1"/>
        <pt x="518" y="294" on="0"/>
        <pt x="463" y="203" on="0"/>
        <pt x="374" y="149" on="0"/>
        <pt x="261" y="127" on="0"/>
        <pt x="203" y="127" on="1"/>
        <pt x="166" y="127" on="1"/>
        <pt x="135" y="0" on="1"/>
        <pt x="53" y="0" on="1"/>
      </contour>
      <contour>
        <pt x="183" y="199" on="1"/>
        <pt x="222" y="199" on="1"/>
        <pt x="263" y="199" on="0"/>
        <pt x="338" y="215" on="0"/>
        <pt x="396" y="252" on="0"/>
        <pt x="430" y="311" on="0"/>
        <pt x="430" y="355" on="1"/>
        <pt x="430" y="392" on="0"/>
        <pt x="389" y="430" on="0"/>
        <pt x="331" y="446" on="0"/>
        <pt x="265" y="445" on="0"/>
        <pt x="241" y="443" on="1"/>
      </contour>
    </TTGlyph>
    <TTGlyph name="U" xMin="81" yMin="-13" xMax="576" yMax="619">
      <contour>
        <pt x="237" y="-13" on="1"/>
        <pt x="196" y="-13" on="0"/>
        <pt x="138" y="15" on="0"/>
        <pt x="99" y="62" on="0"/>
        <pt x="81" y="124" on="0"/>
        <pt x="81" y="158" on="1"/>
        <pt x="81" y="188" on="0"/>
        <pt x="89" y="222" on="1"/>
        <pt x="184" y="619" on="1"/>
        <pt x="266" y="619" on="1"/>
        <pt x="171" y="223" on="1"/>
        <pt x="163" y="189" on="0"/>
        <pt x="163" y="160" on="1"/>
        <pt x="163" y="139" on="0"/>
        <pt x="172" y="102" on="0"/>
        <pt x="192" y="74" on="0"/>
        <pt x="225" y="58" on="0"/>
        <pt x="249" y="58" on="1"/>
        <pt x="276" y="58" on="0"/>
        <pt x="320" y="71" on="0"/>
        <pt x="356" y="105" on="0"/>
        <pt x="384" y="165" on="0"/>
        <pt x="396" y="212" on="1"/>
        <pt x="494" y="619" on="1"/>
        <pt x="576" y="619" on="1"/>
        <pt x="476" y="202" on="1"/>
        <pt x="464" y="151" on="0"/>
        <pt x="429" y="71" on="0"/>
        <pt x="374" y="16" on="0"/>
        <pt x="294" y="-13" on="0"/>
      </contour>
    </TTGlyph>
    <TTGlyph name="Uacute" xMin="81" yMin="-13" xMax="576" yMax="830">
      <component glyphName="U" x="0" y="0" flags="0x214"/>
      <component glyphName="acute" x="36" y="139" flags="0x4"/>
    </TTGlyph>
    <TTGlyph name="Ubreve" xMin="81" yMin="-13" xMax="576" yMax="808">
      <component glyphName="U" x="0" y="0" flags="0x214"/>
      <component glyphName="breve" x="36" y="139" flags="0x4"/>
    </TTGlyph>
    <TTGlyph name="Ucircumflex" xMin="81" yMin="-13" xMax="576" yMax="826">
      <component glyphName="U" x="0" y="0" flags="0x214"/>
      <component glyphName="circumflex" x="36" y="139" flags="0x4"/>
    </TTGlyph>
    <TTGlyph name="Udieresis" xMin="81" yMin="-13" xMax="576" yMax="794">
      <component glyphName="U" x="0" y="0" flags="0x214"/>
      <component glyphName="dieresis" x="36" y="139" flags="0x4"/>
    </TTGlyph>
    <TTGlyph name="Ugrave" xMin="81" yMin="-13" xMax="576" yMax="830">
      <component glyphName="U" x="0" y="0" flags="0x214"/>
      <component glyphName="grave" x="10" y="139" flags="0x4"/>
    </TTGlyph>
    <TTGlyph name="Uhorn" xMin="63" yMin="-13" xMax="667" yMax="715">
      <contour>
        <pt x="504" y="619" on="1"/>
        <pt x="528" y="619" on="0"/>
        <pt x="558" y="638" on="0"/>
        <pt x="575" y="666" on="0"/>
        <pt x="583" y="700" on="0"/>
        <pt x="584" y="715" on="1"/>
        <pt x="667" y="715" on="1"/>
        <pt x="664" y="687" on="0"/>
        <pt x="647" y="635" on="0"/>
        <pt x="613" y="593" on="0"/>
        <pt x="560" y="564" on="0"/>
        <pt x="522" y="559" on="1"/>
        <pt x="436" y="202" on="1"/>
        <pt x="424" y="151" on="0"/>
        <pt x="392" y="71" on="0"/>
        <pt x="340" y="16" on="0"/>
        <pt x="264" y="-13" on="0"/>
        <pt x="210" y="-13" on="1"/>
        <pt x="172" y="-13" on="0"/>
        <pt x="117" y="11" on="0"/>
        <pt x="81" y="55" on="0"/>
        <pt x="63" y="113" on="0"/>
        <pt x="63" y="148" on="1"/>
        <pt x="63" y="165" on="0"/>
        <pt x="66" y="202" on="0"/>
        <pt x="71" y="222" on="1"/>
        <pt x="166" y="619" on="1"/>
        <pt x="248" y="619" on="1"/>
        <pt x="153" y="223" on="1"/>
        <pt x="148" y="205" on="0"/>
        <pt x="143" y="169" on="0"/>
        <pt x="143" y="152" on="1"/>
        <pt x="143" y="112" on="0"/>
        <pt x="178" y="58" on="0"/>
        <pt x="222" y="58" on="1"/>
        <pt x="247" y="58" on="0"/>
        <pt x="287" y="71" on="0"/>
        <pt x="320" y="105" on="0"/>
        <pt x="345" y="165" on="0"/>
        <pt x="355" y="212" on="1"/>
        <pt x="454" y="619" on="1"/>
      </contour>
    </TTGlyph>
    <TTGlyph name="Uhungarumlaut" xMin="81" yMin="-13" xMax="579" yMax="830">
      <component glyphName="U" x="0" y="0" flags="0x214"/>
      <component glyphName="hungarumlaut" x="54" y="139" flags="0x4"/>
    </TTGlyph>
    <TTGlyph name="Umacron" xMin="81" yMin="-13" xMax="576" yMax="774">
      <component glyphName="U" x="0" y="0" flags="0x214"/>
      <component glyphName="macron" x="36" y="139" flags="0x4"/>
    </TTGlyph>
    <TTGlyph name="Uogonek" xMin="81" yMin="-167" xMax="576" yMax="619">
      <contour>
        <pt x="237" y="-13" on="1"/>
        <pt x="196" y="-13" on="0"/>
        <pt x="138" y="15" on="0"/>
        <pt x="99" y="62" on="0"/>
        <pt x="81" y="124" on="0"/>
        <pt x="81" y="158" on="1"/>
        <pt x="81" y="188" on="0"/>
        <pt x="89" y="222" on="1"/>
        <pt x="184" y="619" on="1"/>
        <pt x="266" y="619" on="1"/>
        <pt x="171" y="223" on="1"/>
        <pt x="163" y="189" on="0"/>
        <pt x="163" y="160" on="1"/>
        <pt x="163" y="139" on="0"/>
        <pt x="172" y="102" on="0"/>
        <pt x="192" y="74" on="0"/>
        <pt x="225" y="58" on="0"/>
        <pt x="249" y="58" on="1"/>
        <pt x="276" y="58" on="0"/>
        <pt x="320" y="71" on="0"/>
        <pt x="356" y="105" on="0"/>
        <pt x="384" y="165" on="0"/>
        <pt x="396" y="212" on="1"/>
        <pt x="494" y="619" on="1"/>
        <pt x="576" y="619" on="1"/>
        <pt x="476" y="202" on="1"/>
        <pt x="462" y="144" on="0"/>
        <pt x="422" y="57" on="0"/>
        <pt x="383" y="29" on="1"/>
        <pt x="360" y="12" on="0"/>
        <pt x="311" y="-24" on="0"/>
        <pt x="298" y="-35" on="1"/>
        <pt x="293" y="-39" on="0"/>
        <pt x="278" y="-51" on="0"/>
        <pt x="265" y="-65" on="0"/>
        <pt x="256" y="-81" on="0"/>
        <pt x="256" y="-90" on="1"/>
        <pt x="256" y="-99" on="0"/>
        <pt x="271" y="-110" on="0"/>
        <pt x="289" y="-110" on="1"/>
        <pt x="297" y="-110" on="0"/>
        <pt x="318" y="-106" on="0"/>
        <pt x="326" y="-104" on="1"/>
        <pt x="318" y="-157" on="1"/>
        <pt x="296" y="-167" on="0"/>
        <pt x="267" y="-167" on="1"/>
        <pt x="217" y="-167" on="0"/>
        <pt x="178" y="-136" on="0"/>
        <pt x="178" y="-111" on="1"/>
        <pt x="178" y="-96" on="0"/>
        <pt x="191" y="-66" on="0"/>
        <pt x="212" y="-41" on="0"/>
        <pt x="236" y="-20" on="0"/>
        <pt x="248" y="-12" on="1"/>
      </contour>
    </TTGlyph>
    <TTGlyph name="Upsilon" xMin="147" yMin="0" xMax="622" yMax="619">
      <component glyphName="Y" x="0" y="0" flags="0x214"/>
    </TTGlyph>
    <TTGlyph name="Upsilondieresis" xMin="147" yMin="0" xMax="622" yMax="794">
      <component glyphName="Y" x="0" y="0" flags="0x214"/>
      <component glyphName="dieresis" x="27" y="139" flags="0x4"/>
    </TTGlyph>
    <TTGlyph name="Upsilontonos" xMin="-43" yMin="0" xMax="612" yMax="633">
      <component glyphName="Y" x="-10" y="0" flags="0x214"/>
      <component glyphName="tonos.cap" x="-309" y="0" flags="0x4"/>
    </TTGlyph>
    <TTGlyph name="Uring" xMin="81" yMin="-13" xMax="576" yMax="835">
      <component glyphName="U" x="0" y="0" flags="0x214"/>
      <component glyphName="ring" x="36" y="139" flags="0x4"/>
    </TTGlyph>
    <TTGlyph name="Utilde" xMin="81" yMin="-13" xMax="576" yMax="797">
      <component glyphName="U" x="0" y="0" flags="0x214"/>
      <component glyphName="tilde" x="36" y="139" flags="0x4"/>
    </TTGlyph>
    <TTGlyph name="V" xMin="136" yMin="0" xMax="612" yMax="619">
      <contour>
        <pt x="222" y="619" on="1"/>
        <pt x="223" y="441" on="0"/>
        <pt x="237" y="169" on="0"/>
        <pt x="244" y="72" on="1"/>
        <pt x="314" y="201" on="0"/>
        <pt x="455" y="468" on="0"/>
        <pt x="524" y="619" on="1"/>
        <pt x="612" y="619" on="1"/>
        <pt x="597" y="587" on="0"/>
        <pt x="530" y="453" on="0"/>
        <pt x="439" y="282" on="0"/>
        <pt x="332" y="90" on="0"/>
        <pt x="278" y="0" on="1"/>
        <pt x="176" y="0" on="1"/>
        <pt x="166" y="90" on="0"/>
        <pt x="151" y="282" on="0"/>
        <pt x="141" y="453" on="0"/>
        <pt x="136" y="587" on="0"/>
        <pt x="136" y="619" on="1"/>
      </contour>
    </TTGlyph>
    <TTGlyph name="W" xMin="59" yMin="0" xMax="600" yMax="619">
      <contour>
        <pt x="306" y="309" on="1"/>
        <pt x="136" y="0" on="1"/>
        <pt x="59" y="0" on="1"/>
        <pt x="65" y="64" on="0"/>
        <pt x="87" y="211" on="0"/>
        <pt x="115" y="370" on="0"/>
        <pt x="147" y="536" on="0"/>
        <pt x="163" y="619" on="1"/>
        <pt x="244" y="619" on="1"/>
        <pt x="232" y="567" on="0"/>
        <pt x="203" y="439" on="0"/>
        <pt x="172" y="301" on="0"/>
        <pt x="141" y="162" on="0"/>
        <pt x="128" y="100" on="1"/>
        <pt x="143" y="128" on="0"/>
        <pt x="182" y="197" on="0"/>
        <pt x="224" y="272" on="0"/>
        <pt x="266" y="348" on="0"/>
        <pt x="286" y="384" on="1"/>
        <pt x="357" y="384" on="1"/>
        <pt x="359" y="350" on="0"/>
        <pt x="365" y="273" on="0"/>
        <pt x="372" y="197" on="0"/>
        <pt x="378" y="127" on="0"/>
        <pt x="381" y="100" on="1"/>
        <pt x="399" y="164" on="0"/>
        <pt x="437" y="301" on="0"/>
        <pt x="474" y="437" on="0"/>
        <pt x="507" y="565" on="0"/>
        <pt x="521" y="619" on="1"/>
        <pt x="600" y="619" on="1"/>
        <pt x="556" y="463" on="0"/>
        <pt x="464" y="162" on="0"/>
        <pt x="405" y="0" on="1"/>
        <pt x="329" y="0" on="1"/>
      </contour>
    </TTGlyph>
    <TTGlyph name="Wacute" xMin="59" yMin="0" xMax="600" yMax="830">
      <component glyphName="W" x="0" y="0" flags="0x214"/>
      <component glyphName="acute" x="36" y="139" flags="0x4"/>
    </TTGlyph>
    <TTGlyph name="Wcircumflex" xMin="59" yMin="0" xMax="600" yMax="826">
      <component glyphName="W" x="0" y="0" flags="0x214"/>
      <component glyphName="circumflex" x="36" y="139" flags="0x4"/>
    </TTGlyph>
    <TTGlyph name="Wdieresis" xMin="59" yMin="0" xMax="600" yMax="794">
      <component glyphName="W" x="0" y="0" flags="0x214"/>
      <component glyphName="dieresis" x="36" y="139" flags="0x4"/>
    </TTGlyph>
    <TTGlyph name="Wgrave" xMin="59" yMin="0" xMax="600" yMax="830">
      <component glyphName="W" x="0" y="0" flags="0x214"/>
      <component glyphName="grave" x="36" y="139" flags="0x4"/>
    </TTGlyph>
    <TTGlyph name="X" xMin="9" yMin="0" xMax="608" yMax="619">
      <contour>
        <pt x="388" y="0" on="1"/>
        <pt x="375" y="64" on="0"/>
        <pt x="338" y="193" on="0"/>
        <pt x="315" y="257" on="1"/>
        <pt x="107" y="0" on="1"/>
        <pt x="9" y="0" on="1"/>
        <pt x="281" y="330" on="1"/>
        <pt x="176" y="619" on="1"/>
        <pt x="266" y="619" on="1"/>
        <pt x="344" y="394" on="1"/>
        <pt x="390" y="450" on="0"/>
        <pt x="476" y="563" on="0"/>
        <pt x="514" y="619" on="1"/>
        <pt x="608" y="619" on="1"/>
        <pt x="557" y="545" on="0"/>
        <pt x="434" y="394" on="0"/>
        <pt x="375" y="325" on="1"/>
        <pt x="389" y="289" on="0"/>
        <pt x="418" y="206" on="0"/>
        <pt x="444" y="121" on="0"/>
        <pt x="466" y="37" on="0"/>
        <pt x="474" y="0" on="1"/>
      </contour>
    </TTGlyph>
    <TTGlyph name="Xi" xMin="26" yMin="0" xMax="576" yMax="619">
      <contour>
        <pt x="559" y="547" on="1"/>
        <pt x="165" y="547" on="1"/>
        <pt x="182" y="619" on="1"/>
        <pt x="576" y="619" on="1"/>
      </contour>
      <contour>
        <pt x="43" y="71" on="1"/>
        <pt x="454" y="71" on="1"/>
        <pt x="437" y="0" on="1"/>
        <pt x="26" y="0" on="1"/>
      </contour>
      <contour>
        <pt x="157" y="361" on="1"/>
        <pt x="478" y="361" on="1"/>
        <pt x="460" y="288" on="1"/>
        <pt x="139" y="288" on="1"/>
      </contour>
    </TTGlyph>
    <TTGlyph name="Y" xMin="147" yMin="0" xMax="622" yMax="619">
      <contour>
        <pt x="622" y="619" on="1"/>
        <pt x="562" y="521" on="0"/>
        <pt x="415" y="328" on="0"/>
        <pt x="334" y="232" on="1"/>
        <pt x="278" y="0" on="1"/>
        <pt x="196" y="0" on="1"/>
        <pt x="251" y="230" on="1"/>
        <pt x="214" y="330" on="0"/>
        <pt x="161" y="521" on="0"/>
        <pt x="147" y="619" on="1"/>
        <pt x="229" y="619" on="1"/>
        <pt x="238" y="538" on="0"/>
        <pt x="282" y="365" on="0"/>
        <pt x="305" y="293" on="1"/>
        <pt x="335" y="332" on="0"/>
        <pt x="397" y="416" on="0"/>
        <pt x="456" y="501" on="0"/>
        <pt x="510" y="583" on="0"/>
        <pt x="533" y="619" on="1"/>
      </contour>
    </TTGlyph>
    <TTGlyph name="Yacute" xMin="147" yMin="0" xMax="622" yMax="830">
      <component glyphName="Y" x="0" y="0" flags="0x214"/>
      <component glyphName="acute" x="45" y="139" flags="0x4"/>
    </TTGlyph>
    <TTGlyph name="Ycircumflex" xMin="147" yMin="0" xMax="622" yMax="826">
      <component glyphName="Y" x="0" y="0" flags="0x214"/>
      <component glyphName="circumflex" x="45" y="139" flags="0x4"/>
    </TTGlyph>
    <TTGlyph name="Ydieresis" xMin="147" yMin="0" xMax="622" yMax="794">
      <component glyphName="Y" x="0" y="0" flags="0x214"/>
      <component glyphName="dieresis" x="27" y="139" flags="0x4"/>
    </TTGlyph>
    <TTGlyph name="Ygrave" xMin="147" yMin="0" xMax="622" yMax="830">
      <component glyphName="Y" x="0" y="0" flags="0x214"/>
      <component glyphName="grave" x="20" y="139" flags="0x4"/>
    </TTGlyph>
    <TTGlyph name="Z" xMin="36" yMin="0" xMax="572" yMax="619">
      <contour>
        <pt x="556" y="550" on="1"/>
        <pt x="514" y="506" on="0"/>
        <pt x="405" y="385" on="0"/>
        <pt x="291" y="254" on="0"/>
        <pt x="185" y="124" on="0"/>
        <pt x="146" y="70" on="1"/>
        <pt x="450" y="70" on="1"/>
        <pt x="434" y="0" on="1"/>
        <pt x="36" y="0" on="1"/>
        <pt x="52" y="68" on="1"/>
        <pt x="99" y="129" on="0"/>
        <pt x="202" y="256" on="0"/>
        <pt x="307" y="380" on="0"/>
        <pt x="412" y="498" on="0"/>
        <pt x="460" y="549" on="1"/>
        <pt x="179" y="549" on="1"/>
        <pt x="196" y="619" on="1"/>
        <pt x="572" y="619" on="1"/>
      </contour>
    </TTGlyph>
    <TTGlyph name="Zacute" xMin="36" yMin="0" xMax="572" yMax="830">
      <component glyphName="Z" x="0" y="0" flags="0x214"/>
      <component glyphName="acute" x="36" y="139" flags="0x4"/>
    </TTGlyph>
    <TTGlyph name="Zcaron" xMin="36" yMin="0" xMax="572" yMax="830">
      <component glyphName="Z" x="0" y="0" flags="0x214"/>
      <component glyphName="caron" x="36" y="139" flags="0x4"/>
    </TTGlyph>
    <TTGlyph name="Zdotaccent" xMin="36" yMin="0" xMax="572" yMax="796">
      <component glyphName="Z" x="0" y="0" flags="0x214"/>
      <component glyphName="dotaccent" x="36" y="139" flags="0x4"/>
    </TTGlyph>
    <TTGlyph name="Zeta" xMin="36" yMin="0" xMax="572" yMax="619">
      <component glyphName="Z" x="0" y="0" flags="0x214"/>
    </TTGlyph>
    <TTGlyph name="a" xMin="71" yMin="-11" xMax="513" yMax="474">
      <contour>
        <pt x="376" y="-5" on="1"/>
        <pt x="371" y="5" on="0"/>
        <pt x="363" y="28" on="0"/>
        <pt x="361" y="42" on="1"/>
        <pt x="341" y="24" on="0"/>
        <pt x="270" y="-11" on="0"/>
        <pt x="222" y="-11" on="1"/>
        <pt x="144" y="-11" on="0"/>
        <pt x="71" y="83" on="0"/>
        <pt x="71" y="155" on="1"/>
        <pt x="71" y="215" on="0"/>
        <pt x="111" y="329" on="0"/>
        <pt x="192" y="419" on="0"/>
        <pt x="314" y="474" on="0"/>
        <pt x="395" y="474" on="1"/>
        <pt x="407" y="474" on="0"/>
        <pt x="438" y="472" on="0"/>
        <pt x="470" y="466" on="0"/>
        <pt x="501" y="457" on="0"/>
        <pt x="513" y="451" on="1"/>
        <pt x="445" y="171" on="1"/>
        <pt x="440" y="150" on="0"/>
        <pt x="433" y="113" on="0"/>
        <pt x="433" y="92" on="1"/>
        <pt x="433" y="71" on="0"/>
        <pt x="441" y="30" on="0"/>
        <pt x="449" y="5" on="1"/>
      </contour>
      <contour>
        <pt x="239" y="57" on="1"/>
        <pt x="277" y="57" on="0"/>
        <pt x="336" y="89" on="0"/>
        <pt x="356" y="111" on="1"/>
        <pt x="357" y="126" on="0"/>
        <pt x="362" y="164" on="0"/>
        <pt x="366" y="181" on="1"/>
        <pt x="421" y="400" on="1"/>
        <pt x="416" y="402" on="0"/>
        <pt x="388" y="405" on="0"/>
        <pt x="380" y="405" on="1"/>
        <pt x="329" y="405" on="0"/>
        <pt x="246" y="365" on="0"/>
        <pt x="186" y="298" on="0"/>
        <pt x="154" y="211" on="0"/>
        <pt x="154" y="164" on="1"/>
        <pt x="154" y="141" on="0"/>
        <pt x="162" y="102" on="0"/>
        <pt x="181" y="74" on="0"/>
        <pt x="214" y="57" on="0"/>
      </contour>
    </TTGlyph>
    <TTGlyph name="aacute" xMin="71" yMin="-11" xMax="513" yMax="691">
      <component glyphName="a" x="0" y="0" flags="0x214"/>
      <component glyphName="acute" x="20" y="0" flags="0x4"/>
    </TTGlyph>
    <TTGlyph name="abreve" xMin="71" yMin="-11" xMax="540" yMax="669">
      <component glyphName="a" x="0" y="0" flags="0x214"/>
      <component glyphName="breve" x="36" y="0" flags="0x4"/>
    </TTGlyph>
    <TTGlyph name="acircumflex" xMin="71" yMin="-11" xMax="513" yMax="687">
      <component glyphName="a" x="0" y="0" flags="0x214"/>
      <component glyphName="circumflex" x="20" y="0" flags="0x4"/>
    </TTGlyph>
    <TTGlyph name="acute" xMin="305" yMin="512" xMax="491" yMax="691">
      <contour>
        <pt x="491" y="626" on="1"/>
        <pt x="340" y="512" on="1"/>
        <pt x="305" y="556" on="1"/>
        <pt x="446" y="691" on="1"/>
      </contour>
    </TTGlyph>
    <TTGlyph name="acute.asc" xMin="320" yMin="711" xMax="489" yMax="830">
      <contour>
        <pt x="489" y="766" on="1"/>
        <pt x="335" y="711" on="1"/>
        <pt x="320" y="756" on="1"/>
        <pt x="470" y="830" on="1"/>
      </contour>
    </TTGlyph>
    <TTGlyph name="adieresis" xMin="71" yMin="-11" xMax="542" yMax="655">
      <component glyphName="a" x="0" y="0" flags="0x214"/>
      <component glyphName="dieresis" x="29" y="0" flags="0x4"/>
    </TTGlyph>
    <TTGlyph name="ae" xMin="46" yMin="-11" xMax="545" yMax="475">
      <contour>
        <pt x="266" y="79" on="1"/>
        <pt x="255" y="58" on="0"/>
        <pt x="224" y="24" on="0"/>
        <pt x="188" y="1" on="0"/>
        <pt x="150" y="-11" on="0"/>
        <pt x="132" y="-11" on="1"/>
        <pt x="97" y="-11" on="0"/>
        <pt x="46" y="39" on="0"/>
        <pt x="46" y="93" on="1"/>
        <pt x="46" y="124" on="0"/>
        <pt x="72" y="189" on="0"/>
        <pt x="125" y="245" on="0"/>
        <pt x="207" y="282" on="0"/>
        <pt x="263" y="284" on="1"/>
        <pt x="264" y="291" on="0"/>
        <pt x="264" y="303" on="0"/>
        <pt x="264" y="311" on="1"/>
        <pt x="264" y="358" on="0"/>
        <pt x="228" y="403" on="0"/>
        <pt x="197" y="403" on="1"/>
        <pt x="166" y="403" on="0"/>
        <pt x="125" y="380" on="1"/>
        <pt x="130" y="449" on="1"/>
        <pt x="152" y="463" on="0"/>
        <pt x="196" y="475" on="0"/>
        <pt x="217" y="475" on="1"/>
        <pt x="235" y="475" on="0"/>
        <pt x="271" y="465" on="0"/>
        <pt x="303" y="444" on="0"/>
        <pt x="326" y="410" on="0"/>
        <pt x="330" y="385" on="1"/>
        <pt x="351" y="428" on="0"/>
        <pt x="424" y="475" on="0"/>
        <pt x="459" y="475" on="1"/>
        <pt x="494" y="475" on="0"/>
        <pt x="545" y="425" on="0"/>
        <pt x="545" y="371" on="1"/>
        <pt x="545" y="340" on="0"/>
        <pt x="520" y="275" on="0"/>
        <pt x="466" y="220" on="0"/>
        <pt x="384" y="183" on="0"/>
        <pt x="327" y="180" on="1"/>
        <pt x="327" y="154" on="1"/>
        <pt x="327" y="106" on="0"/>
        <pt x="363" y="62" on="0"/>
        <pt x="394" y="62" on="1"/>
        <pt x="425" y="62" on="0"/>
        <pt x="466" y="85" on="1"/>
        <pt x="461" y="15" on="1"/>
        <pt x="439" y="1" on="0"/>
        <pt x="395" y="-11" on="0"/>
        <pt x="374" y="-11" on="1"/>
        <pt x="356" y="-11" on="0"/>
        <pt x="322" y="-1" on="0"/>
        <pt x="292" y="20" on="0"/>
        <pt x="270" y="54" on="0"/>
      </contour>
      <contour>
        <pt x="156" y="59" on="1"/>
        <pt x="168" y="59" on="0"/>
        <pt x="197" y="79" on="0"/>
        <pt x="225" y="118" on="0"/>
        <pt x="249" y="176" on="0"/>
        <pt x="256" y="215" on="1"/>
        <pt x="219" y="213" on="0"/>
        <pt x="169" y="193" on="0"/>
        <pt x="138" y="163" on="0"/>
        <pt x="125" y="127" on="0"/>
        <pt x="125" y="111" on="1"/>
        <pt x="125" y="85" on="0"/>
        <pt x="142" y="59" on="0"/>
      </contour>
      <contour>
        <pt x="435" y="405" on="1"/>
        <pt x="423" y="405" on="0"/>
        <pt x="394" y="385" on="0"/>
        <pt x="366" y="346" on="0"/>
        <pt x="342" y="288" on="0"/>
        <pt x="335" y="249" on="1"/>
        <pt x="372" y="250" on="0"/>
        <pt x="422" y="271" on="0"/>
        <pt x="453" y="302" on="0"/>
        <pt x="466" y="337" on="0"/>
        <pt x="466" y="354" on="1"/>
        <pt x="466" y="380" on="0"/>
        <pt x="449" y="405" on="0"/>
      </contour>
    </TTGlyph>
    <TTGlyph name="aeacute" xMin="46" yMin="-11" xMax="545" yMax="691">
      <component glyphName="ae" x="0" y="0" flags="0x214"/>
      <component glyphName="acute" x="0" y="0" flags="0x4"/>
    </TTGlyph>
    <TTGlyph name="afii00208" xMin="36" yMin="236" xMax="552" yMax="305">
      <contour>
        <pt x="52" y="305" on="1"/>
        <pt x="552" y="305" on="1"/>
        <pt x="536" y="236" on="1"/>
        <pt x="36" y="236" on="1"/>
      </contour>
    </TTGlyph>
    <TTGlyph name="afii10017" xMin="-13" yMin="0" xMax="469" yMax="619">
      <component glyphName="A" x="0" y="0" flags="0x214"/>
    </TTGlyph>
    <TTGlyph name="afii10018" xMin="45" yMin="-5" xMax="531" yMax="619">
      <contour>
        <pt x="255" y="549" on="1"/>
        <pt x="217" y="388" on="1"/>
        <pt x="276" y="388" on="1"/>
        <pt x="323" y="388" on="0"/>
        <pt x="402" y="371" on="0"/>
        <pt x="460" y="335" on="0"/>
        <pt x="492" y="278" on="0"/>
        <pt x="492" y="238" on="1"/>
        <pt x="492" y="171" on="0"/>
        <pt x="446" y="79" on="0"/>
        <pt x="365" y="21" on="0"/>
        <pt x="255" y="-5" on="0"/>
        <pt x="192" y="-5" on="1"/>
        <pt x="157" y="-5" on="0"/>
        <pt x="76" y="1" on="0"/>
        <pt x="45" y="10" on="1"/>
        <pt x="189" y="619" on="1"/>
        <pt x="531" y="619" on="1"/>
        <pt x="515" y="549" on="1"/>
      </contour>
      <contour>
        <pt x="212" y="64" on="1"/>
        <pt x="248" y="64" on="0"/>
        <pt x="317" y="79" on="0"/>
        <pt x="373" y="117" on="0"/>
        <pt x="407" y="178" on="0"/>
        <pt x="407" y="225" on="1"/>
        <pt x="407" y="276" on="0"/>
        <pt x="338" y="318" on="0"/>
        <pt x="263" y="318" on="1"/>
        <pt x="200" y="318" on="1"/>
        <pt x="139" y="68" on="1"/>
        <pt x="164" y="65" on="0"/>
        <pt x="194" y="64" on="0"/>
      </contour>
    </TTGlyph>
    <TTGlyph name="afii10019" xMin="45" yMin="-5" xMax="523" yMax="625">
      <component glyphName="B" x="0" y="0" flags="0x214"/>
    </TTGlyph>
    <TTGlyph name="afii10020" xMin="27" yMin="0" xMax="581" yMax="619">
      <contour>
        <pt x="132" y="70" on="1"/>
        <pt x="264" y="619" on="1"/>
        <pt x="581" y="619" on="1"/>
        <pt x="564" y="549" on="1"/>
        <pt x="330" y="549" on="1"/>
        <pt x="214" y="70" on="1"/>
        <pt x="348" y="70" on="1"/>
        <pt x="331" y="0" on="1"/>
        <pt x="27" y="0" on="1"/>
        <pt x="44" y="70" on="1"/>
      </contour>
    </TTGlyph>
    <TTGlyph name="afii10021" xMin="-23" yMin="-165" xMax="563" yMax="619">
      <contour>
        <pt x="352" y="549" on="1"/>
        <pt x="330" y="468" on="1"/>
        <pt x="317" y="422" on="0"/>
        <pt x="290" y="326" on="0"/>
        <pt x="252" y="226" on="0"/>
        <pt x="201" y="123" on="0"/>
        <pt x="164" y="70" on="1"/>
        <pt x="349" y="70" on="1"/>
        <pt x="464" y="549" on="1"/>
      </contour>
      <contour>
        <pt x="95" y="0" on="1"/>
        <pt x="55" y="-165" on="1"/>
        <pt x="-23" y="-165" on="1"/>
        <pt x="33" y="70" on="1"/>
        <pt x="68" y="70" on="1"/>
        <pt x="114" y="132" on="0"/>
        <pt x="173" y="242" on="0"/>
        <pt x="214" y="349" on="0"/>
        <pt x="244" y="461" on="0"/>
        <pt x="261" y="525" on="1"/>
        <pt x="286" y="619" on="1"/>
        <pt x="563" y="619" on="1"/>
        <pt x="431" y="70" on="1"/>
        <pt x="471" y="70" on="1"/>
        <pt x="414" y="-165" on="1"/>
        <pt x="336" y="-165" on="1"/>
        <pt x="375" y="0" on="1"/>
      </contour>
    </TTGlyph>
    <TTGlyph name="afii10022" xMin="71" yMin="0" xMax="567" yMax="619">
      <component glyphName="E" x="0" y="0" flags="0x214"/>
    </TTGlyph>
    <TTGlyph name="afii10023" xMin="71" yMin="0" xMax="567" yMax="794">
      <component glyphName="E" x="0" y="0" flags="0x214"/>
      <component glyphName="dieresis" x="35" y="139" flags="0x4"/>
    </TTGlyph>
    <TTGlyph name="afii10024" xMin="-9" yMin="0" xMax="621" yMax="619">
      <contour>
        <pt x="200" y="0" on="1"/>
        <pt x="272" y="303" on="1"/>
        <pt x="247" y="279" on="0"/>
        <pt x="194" y="208" on="0"/>
        <pt x="142" y="127" on="0"/>
        <pt x="93" y="40" on="0"/>
        <pt x="72" y="0" on="1"/>
        <pt x="-9" y="0" on="1"/>
        <pt x="13" y="43" on="0"/>
        <pt x="71" y="139" on="0"/>
        <pt x="134" y="229" on="0"/>
        <pt x="198" y="309" on="0"/>
        <pt x="225" y="336" on="1"/>
        <pt x="215" y="370" on="0"/>
        <pt x="197" y="434" on="0"/>
        <pt x="179" y="501" on="0"/>
        <pt x="162" y="575" on="0"/>
        <pt x="154" y="619" on="1"/>
        <pt x="231" y="619" on="1"/>
        <pt x="242" y="542" on="0"/>
        <pt x="267" y="408" on="0"/>
        <pt x="284" y="351" on="1"/>
        <pt x="348" y="619" on="1"/>
        <pt x="421" y="619" on="1"/>
        <pt x="358" y="353" on="1"/>
        <pt x="402" y="410" on="0"/>
        <pt x="491" y="543" on="0"/>
        <pt x="538" y="619" on="1"/>
        <pt x="621" y="619" on="1"/>
        <pt x="592" y="575" on="0"/>
        <pt x="538" y="498" on="0"/>
        <pt x="485" y="427" on="0"/>
        <pt x="434" y="359" on="0"/>
        <pt x="407" y="325" on="1"/>
        <pt x="421" y="298" on="0"/>
        <pt x="446" y="222" on="0"/>
        <pt x="465" y="135" on="0"/>
        <pt x="477" y="43" on="0"/>
        <pt x="478" y="0" on="1"/>
        <pt x="401" y="0" on="1"/>
        <pt x="399" y="40" on="0"/>
        <pt x="392" y="126" on="0"/>
        <pt x="378" y="207" on="0"/>
        <pt x="359" y="277" on="0"/>
        <pt x="345" y="301" on="1"/>
        <pt x="273" y="0" on="1"/>
      </contour>
    </TTGlyph>
    <TTGlyph name="afii10025" xMin="27" yMin="-12" xMax="525" yMax="630">
      <contour>
        <pt x="197" y="362" on="1"/>
        <pt x="243" y="362" on="1"/>
        <pt x="273" y="362" on="0"/>
        <pt x="341" y="373" on="0"/>
        <pt x="400" y="401" on="0"/>
        <pt x="439" y="450" on="0"/>
        <pt x="439" y="488" on="1"/>
        <pt x="439" y="520" on="0"/>
        <pt x="385" y="560" on="0"/>
        <pt x="338" y="560" on="1"/>
        <pt x="286" y="560" on="0"/>
        <pt x="209" y="536" on="0"/>
        <pt x="182" y="522" on="1"/>
        <pt x="171" y="588" on="1"/>
        <pt x="204" y="604" on="0"/>
        <pt x="299" y="630" on="0"/>
        <pt x="355" y="630" on="1"/>
        <pt x="432" y="630" on="0"/>
        <pt x="525" y="561" on="0"/>
        <pt x="525" y="500" on="1"/>
        <pt x="525" y="448" on="0"/>
        <pt x="457" y="353" on="0"/>
        <pt x="388" y="329" on="1"/>
        <pt x="427" y="314" on="0"/>
        <pt x="481" y="250" on="0"/>
        <pt x="481" y="204" on="1"/>
        <pt x="481" y="147" on="0"/>
        <pt x="436" y="65" on="0"/>
        <pt x="362" y="12" on="0"/>
        <pt x="267" y="-12" on="0"/>
        <pt x="216" y="-12" on="1"/>
        <pt x="163" y="-12" on="0"/>
        <pt x="75" y="5" on="0"/>
        <pt x="27" y="34" on="1"/>
        <pt x="67" y="100" on="1"/>
        <pt x="99" y="78" on="0"/>
        <pt x="174" y="58" on="0"/>
        <pt x="218" y="58" on="1"/>
        <pt x="253" y="58" on="0"/>
        <pt x="318" y="74" on="0"/>
        <pt x="367" y="107" on="0"/>
        <pt x="397" y="160" on="0"/>
        <pt x="397" y="196" on="1"/>
        <pt x="397" y="223" on="0"/>
        <pt x="372" y="260" on="0"/>
        <pt x="328" y="282" on="0"/>
        <pt x="266" y="292" on="0"/>
        <pt x="230" y="292" on="1"/>
        <pt x="180" y="292" on="1"/>
      </contour>
    </TTGlyph>
    <TTGlyph name="afii10026" xMin="40" yMin="0" xMax="579" yMax="619">
      <contour>
        <pt x="40" y="0" on="1"/>
        <pt x="189" y="619" on="1"/>
        <pt x="264" y="619" on="1"/>
        <pt x="145" y="134" on="1"/>
        <pt x="192" y="207" on="0"/>
        <pt x="269" y="321" on="0"/>
        <pt x="347" y="429" on="0"/>
        <pt x="436" y="544" on="0"/>
        <pt x="495" y="619" on="1"/>
        <pt x="579" y="619" on="1"/>
        <pt x="430" y="0" on="1"/>
        <pt x="355" y="0" on="1"/>
        <pt x="477" y="503" on="1"/>
        <pt x="437" y="450" on="0"/>
        <pt x="357" y="342" on="0"/>
        <pt x="272" y="221" on="0"/>
        <pt x="178" y="83" on="0"/>
        <pt x="124" y="0" on="1"/>
      </contour>
    </TTGlyph>
    <TTGlyph name="afii10027" xMin="40" yMin="0" xMax="579" yMax="803">
      <component glyphName="afii10026" x="0" y="0" flags="0x214"/>
      <component glyphName="kratka" x="49" y="139" flags="0x4"/>
    </TTGlyph>
    <TTGlyph name="afii10028" xMin="45" yMin="0" xMax="588" yMax="619">
      <component glyphName="K" x="0" y="0" flags="0x204"/>
    </TTGlyph>
    <TTGlyph name="afii10029" xMin="12" yMin="-8" xMax="577" yMax="619">
      <contour>
        <pt x="346" y="549" on="1"/>
        <pt x="321" y="440" on="0"/>
        <pt x="269" y="258" on="0"/>
        <pt x="228" y="177" on="1"/>
        <pt x="209" y="139" on="0"/>
        <pt x="167" y="74" on="0"/>
        <pt x="117" y="25" on="0"/>
        <pt x="57" y="-5" on="0"/>
        <pt x="20" y="-8" on="1"/>
        <pt x="12" y="61" on="1"/>
        <pt x="55" y="68" on="0"/>
        <pt x="121" y="132" on="0"/>
        <pt x="155" y="198" on="1"/>
        <pt x="192" y="270" on="0"/>
        <pt x="254" y="489" on="0"/>
        <pt x="280" y="619" on="1"/>
        <pt x="577" y="619" on="1"/>
        <pt x="429" y="0" on="1"/>
        <pt x="346" y="0" on="1"/>
        <pt x="478" y="549" on="1"/>
      </contour>
    </TTGlyph>
    <TTGlyph name="afii10030" xMin="18" yMin="0" xMax="558" yMax="619">
      <component glyphName="M" x="0" y="0" flags="0x214"/>
    </TTGlyph>
    <TTGlyph name="afii10031" xMin="36" yMin="0" xMax="577" yMax="619">
      <component glyphName="H" x="0" y="0" flags="0x214"/>
    </TTGlyph>
    <TTGlyph name="afii10032" xMin="80" yMin="-13" xMax="541" yMax="633">
      <component glyphName="O" x="0" y="0" flags="0x214"/>
    </TTGlyph>
    <TTGlyph name="afii10033" xMin="36" yMin="0" xMax="577" yMax="619">
      <contour>
        <pt x="346" y="0" on="1"/>
        <pt x="478" y="549" on="1"/>
        <pt x="249" y="549" on="1"/>
        <pt x="117" y="0" on="1"/>
        <pt x="36" y="0" on="1"/>
        <pt x="184" y="619" on="1"/>
        <pt x="577" y="619" on="1"/>
        <pt x="428" y="0" on="1"/>
      </contour>
    </TTGlyph>
    <TTGlyph name="afii10034" xMin="54" yMin="0" xMax="541" yMax="625">
      <component glyphName="P" x="0" y="0" flags="0x214"/>
    </TTGlyph>
    <TTGlyph name="afii10035" xMin="89" yMin="-13" xMax="574" yMax="633">
      <component glyphName="C" x="0" y="0" flags="0x214"/>
    </TTGlyph>
    <TTGlyph name="afii10036" xMin="152" yMin="0" xMax="589" yMax="619">
      <component glyphName="T" x="0" y="0" flags="0x214"/>
    </TTGlyph>
    <TTGlyph name="afii10037" xMin="31" yMin="-8" xMax="631" yMax="619">
      <contour>
        <pt x="378" y="189" on="1"/>
        <pt x="351" y="148" on="0"/>
        <pt x="299" y="76" on="0"/>
        <pt x="238" y="23" on="0"/>
        <pt x="163" y="-8" on="0"/>
        <pt x="112" y="-8" on="1"/>
        <pt x="83" y="-8" on="0"/>
        <pt x="39" y="5" on="0"/>
        <pt x="31" y="10" on="1"/>
        <pt x="60" y="78" on="1"/>
        <pt x="70" y="73" on="0"/>
        <pt x="97" y="63" on="0"/>
        <pt x="123" y="63" on="1"/>
        <pt x="172" y="63" on="0"/>
        <pt x="240" y="112" on="0"/>
        <pt x="274" y="161" on="1"/>
        <pt x="253" y="222" on="0"/>
        <pt x="215" y="350" on="0"/>
        <pt x="184" y="470" on="0"/>
        <pt x="162" y="577" on="0"/>
        <pt x="157" y="619" on="1"/>
        <pt x="239" y="619" on="1"/>
        <pt x="250" y="541" on="0"/>
        <pt x="295" y="342" on="0"/>
        <pt x="325" y="238" on="1"/>
        <pt x="354" y="281" on="0"/>
        <pt x="412" y="376" on="0"/>
        <pt x="468" y="474" on="0"/>
        <pt x="520" y="572" on="0"/>
        <pt x="544" y="619" on="1"/>
        <pt x="631" y="619" on="1"/>
        <pt x="596" y="555" on="0"/>
        <pt x="532" y="441" on="0"/>
        <pt x="471" y="337" on="0"/>
        <pt x="410" y="238" on="0"/>
      </contour>
    </TTGlyph>
    <TTGlyph name="afii10038" xMin="89" yMin="0" xMax="536" yMax="659">
      <contour>
        <pt x="215" y="78" on="1"/>
        <pt x="155" y="88" on="0"/>
        <pt x="89" y="182" on="0"/>
        <pt x="89" y="272" on="1"/>
        <pt x="89" y="318" on="0"/>
        <pt x="116" y="421" on="0"/>
        <pt x="176" y="512" on="0"/>
        <pt x="270" y="578" on="0"/>
        <pt x="337" y="586" on="1"/>
        <pt x="355" y="659" on="1"/>
        <pt x="428" y="659" on="1"/>
        <pt x="410" y="586" on="1"/>
        <pt x="470" y="575" on="0"/>
        <pt x="536" y="481" on="0"/>
        <pt x="536" y="391" on="1"/>
        <pt x="536" y="346" on="0"/>
        <pt x="509" y="242" on="0"/>
        <pt x="449" y="151" on="0"/>
        <pt x="355" y="85" on="0"/>
        <pt x="288" y="77" on="1"/>
        <pt x="270" y="0" on="1"/>
        <pt x="196" y="0" on="1"/>
      </contour>
      <contour>
        <pt x="170" y="280" on="1"/>
        <pt x="170" y="224" on="0"/>
        <pt x="199" y="159" on="0"/>
        <pt x="232" y="148" on="1"/>
        <pt x="320" y="516" on="1"/>
        <pt x="282" y="507" on="0"/>
        <pt x="226" y="458" on="0"/>
        <pt x="189" y="392" on="0"/>
        <pt x="170" y="316" on="0"/>
      </contour>
      <contour>
        <pt x="455" y="384" on="1"/>
        <pt x="455" y="438" on="0"/>
        <pt x="426" y="504" on="0"/>
        <pt x="393" y="515" on="1"/>
        <pt x="305" y="147" on="1"/>
        <pt x="342" y="156" on="0"/>
        <pt x="398" y="205" on="0"/>
        <pt x="436" y="271" on="0"/>
        <pt x="455" y="348" on="0"/>
      </contour>
    </TTGlyph>
    <TTGlyph name="afii10039" xMin="9" yMin="0" xMax="608" yMax="619">
      <component glyphName="X" x="0" y="0" flags="0x214"/>
    </TTGlyph>
    <TTGlyph name="afii10040" xMin="36" yMin="-165" xMax="563" yMax="619">
      <contour>
        <pt x="36" y="0" on="1"/>
        <pt x="183" y="619" on="1"/>
        <pt x="265" y="619" on="1"/>
        <pt x="133" y="70" on="1"/>
        <pt x="349" y="70" on="1"/>
        <pt x="481" y="619" on="1"/>
        <pt x="563" y="619" on="1"/>
        <pt x="431" y="70" on="1"/>
        <pt x="471" y="70" on="1"/>
        <pt x="414" y="-165" on="1"/>
        <pt x="336" y="-165" on="1"/>
        <pt x="375" y="0" on="1"/>
      </contour>
    </TTGlyph>
    <TTGlyph name="afii10041" xMin="129" yMin="0" xMax="577" yMax="619">
      <contour>
        <pt x="223" y="440" on="1"/>
        <pt x="219" y="423" on="0"/>
        <pt x="213" y="389" on="0"/>
        <pt x="213" y="373" on="1"/>
        <pt x="213" y="355" on="0"/>
        <pt x="221" y="324" on="0"/>
        <pt x="242" y="301" on="0"/>
        <pt x="280" y="289" on="0"/>
        <pt x="310" y="289" on="1"/>
        <pt x="342" y="289" on="0"/>
        <pt x="404" y="299" on="0"/>
        <pt x="419" y="303" on="1"/>
        <pt x="495" y="619" on="1"/>
        <pt x="577" y="619" on="1"/>
        <pt x="428" y="0" on="1"/>
        <pt x="346" y="0" on="1"/>
        <pt x="402" y="232" on="1"/>
        <pt x="385" y="227" on="0"/>
        <pt x="321" y="220" on="0"/>
        <pt x="286" y="220" on="1"/>
        <pt x="242" y="220" on="0"/>
        <pt x="182" y="239" on="0"/>
        <pt x="145" y="275" on="0"/>
        <pt x="129" y="324" on="0"/>
        <pt x="129" y="354" on="1"/>
        <pt x="129" y="393" on="0"/>
        <pt x="141" y="440" on="1"/>
        <pt x="184" y="619" on="1"/>
        <pt x="266" y="619" on="1"/>
      </contour>
    </TTGlyph>
    <TTGlyph name="afii10042" xMin="36" yMin="0" xMax="576" yMax="619">
      <contour>
        <pt x="36" y="0" on="1"/>
        <pt x="183" y="619" on="1"/>
        <pt x="258" y="619" on="1"/>
        <pt x="126" y="70" on="1"/>
        <pt x="210" y="70" on="1"/>
        <pt x="286" y="384" on="1"/>
        <pt x="361" y="384" on="1"/>
        <pt x="285" y="70" on="1"/>
        <pt x="369" y="70" on="1"/>
        <pt x="501" y="619" on="1"/>
        <pt x="576" y="619" on="1"/>
        <pt x="427" y="0" on="1"/>
      </contour>
    </TTGlyph>
    <TTGlyph name="afii10043" xMin="36" yMin="-165" xMax="563" yMax="619">
      <contour>
        <pt x="471" y="70" on="1"/>
        <pt x="414" y="-165" on="1"/>
        <pt x="336" y="-165" on="1"/>
        <pt x="375" y="0" on="1"/>
        <pt x="36" y="0" on="1"/>
        <pt x="183" y="619" on="1"/>
        <pt x="258" y="619" on="1"/>
        <pt x="126" y="70" on="1"/>
        <pt x="204" y="70" on="1"/>
        <pt x="280" y="384" on="1"/>
        <pt x="355" y="384" on="1"/>
        <pt x="279" y="70" on="1"/>
        <pt x="356" y="70" on="1"/>
        <pt x="488" y="619" on="1"/>
        <pt x="563" y="619" on="1"/>
        <pt x="431" y="70" on="1"/>
      </contour>
    </TTGlyph>
    <TTGlyph name="afii10044" xMin="98" yMin="-6" xMax="495" yMax="619">
      <contour>
        <pt x="323" y="396" on="1"/>
        <pt x="360" y="396" on="0"/>
        <pt x="423" y="380" on="0"/>
        <pt x="469" y="343" on="0"/>
        <pt x="495" y="284" on="0"/>
        <pt x="495" y="242" on="1"/>
        <pt x="495" y="192" on="0"/>
        <pt x="466" y="102" on="0"/>
        <pt x="402" y="34" on="0"/>
        <pt x="300" y="-6" on="0"/>
        <pt x="228" y="-6" on="1"/>
        <pt x="197" y="-6" on="0"/>
        <pt x="130" y="1" on="0"/>
        <pt x="98" y="9" on="1"/>
        <pt x="228" y="549" on="1"/>
        <pt x="134" y="549" on="1"/>
        <pt x="151" y="619" on="1"/>
        <pt x="327" y="619" on="1"/>
        <pt x="272" y="394" on="1"/>
        <pt x="285" y="396" on="0"/>
        <pt x="311" y="396" on="0"/>
      </contour>
      <contour>
        <pt x="242" y="63" on="1"/>
        <pt x="328" y="63" on="0"/>
        <pt x="409" y="152" on="0"/>
        <pt x="409" y="231" on="1"/>
        <pt x="409" y="279" on="0"/>
        <pt x="359" y="327" on="0"/>
        <pt x="305" y="327" on="1"/>
        <pt x="293" y="327" on="0"/>
        <pt x="265" y="325" on="0"/>
        <pt x="255" y="323" on="1"/>
        <pt x="194" y="67" on="1"/>
        <pt x="206" y="65" on="0"/>
        <pt x="230" y="63" on="0"/>
      </contour>
    </TTGlyph>
    <TTGlyph name="afii10045" xMin="18" yMin="-5" xMax="592" yMax="619">
      <contour>
        <pt x="360" y="246" on="1"/>
        <pt x="360" y="196" on="0"/>
        <pt x="333" y="105" on="0"/>
        <pt x="276" y="36" on="0"/>
        <pt x="189" y="-5" on="0"/>
        <pt x="129" y="-5" on="1"/>
        <pt x="103" y="-5" on="0"/>
        <pt x="43" y="2" on="0"/>
        <pt x="18" y="8" on="1"/>
        <pt x="163" y="619" on="1"/>
        <pt x="242" y="619" on="1"/>
        <pt x="188" y="394" on="1"/>
        <pt x="196" y="396" on="0"/>
        <pt x="214" y="396" on="0"/>
        <pt x="222" y="396" on="1"/>
        <pt x="286" y="396" on="0"/>
        <pt x="360" y="319" on="0"/>
      </contour>
      <contour>
        <pt x="147" y="64" on="1"/>
        <pt x="183" y="64" on="0"/>
        <pt x="234" y="95" on="0"/>
        <pt x="266" y="145" on="0"/>
        <pt x="281" y="206" on="0"/>
        <pt x="281" y="236" on="1"/>
        <pt x="281" y="281" on="0"/>
        <pt x="238" y="326" on="0"/>
        <pt x="202" y="326" on="1"/>
        <pt x="185" y="326" on="0"/>
        <pt x="170" y="322" on="1"/>
        <pt x="109" y="70" on="1"/>
        <pt x="120" y="67" on="0"/>
        <pt x="137" y="64" on="0"/>
      </contour>
      <contour>
        <pt x="513" y="619" on="1"/>
        <pt x="592" y="619" on="1"/>
        <pt x="443" y="0" on="1"/>
        <pt x="364" y="0" on="1"/>
      </contour>
    </TTGlyph>
    <TTGlyph name="afii10046" xMin="45" yMin="-6" xMax="508" yMax="619">
      <contour>
        <pt x="508" y="237" on="1"/>
        <pt x="508" y="175" on="0"/>
        <pt x="465" y="84" on="0"/>
        <pt x="384" y="24" on="0"/>
        <pt x="268" y="-6" on="0"/>
        <pt x="196" y="-6" on="1"/>
        <pt x="158" y="-6" on="0"/>
        <pt x="78" y="0" on="0"/>
        <pt x="45" y="9" on="1"/>
        <pt x="191" y="619" on="1"/>
        <pt x="273" y="619" on="1"/>
        <pt x="217" y="389" on="1"/>
        <pt x="235" y="391" on="0"/>
        <pt x="269" y="392" on="0"/>
        <pt x="287" y="392" on="1"/>
        <pt x="401" y="392" on="0"/>
        <pt x="508" y="308" on="0"/>
      </contour>
      <contour>
        <pt x="220" y="63" on="1"/>
        <pt x="258" y="63" on="0"/>
        <pt x="331" y="81" on="0"/>
        <pt x="388" y="120" on="0"/>
        <pt x="423" y="181" on="0"/>
        <pt x="423" y="225" on="1"/>
        <pt x="423" y="255" on="0"/>
        <pt x="398" y="293" on="0"/>
        <pt x="353" y="316" on="0"/>
        <pt x="290" y="324" on="0"/>
        <pt x="252" y="324" on="1"/>
        <pt x="241" y="324" on="0"/>
        <pt x="211" y="322" on="0"/>
        <pt x="201" y="321" on="1"/>
        <pt x="139" y="67" on="1"/>
        <pt x="154" y="65" on="0"/>
        <pt x="192" y="63" on="0"/>
      </contour>
    </TTGlyph>
    <TTGlyph name="afii10047" xMin="50" yMin="-13" xMax="535" yMax="632">
      <contour>
        <pt x="452" y="351" on="1"/>
        <pt x="455" y="372" on="0"/>
        <pt x="455" y="395" on="1"/>
        <pt x="455" y="428" on="0"/>
        <pt x="442" y="488" on="0"/>
        <pt x="413" y="535" on="0"/>
        <pt x="366" y="562" on="0"/>
        <pt x="331" y="562" on="1"/>
        <pt x="276" y="562" on="0"/>
        <pt x="207" y="536" on="0"/>
        <pt x="188" y="526" on="1"/>
        <pt x="179" y="595" on="1"/>
        <pt x="217" y="616" on="0"/>
        <pt x="300" y="632" on="0"/>
        <pt x="336" y="632" on="1"/>
        <pt x="433" y="632" on="0"/>
        <pt x="535" y="508" on="0"/>
        <pt x="535" y="390" on="1"/>
        <pt x="535" y="314" on="0"/>
        <pt x="490" y="169" on="0"/>
        <pt x="404" y="56" on="0"/>
        <pt x="281" y="-13" on="0"/>
        <pt x="203" y="-13" on="1"/>
        <pt x="173" y="-13" on="0"/>
        <pt x="122" y="-2" on="0"/>
        <pt x="82" y="13" on="0"/>
        <pt x="55" y="29" on="0"/>
        <pt x="50" y="33" on="1"/>
        <pt x="88" y="97" on="1"/>
        <pt x="105" y="83" on="0"/>
        <pt x="168" y="58" on="0"/>
        <pt x="211" y="58" on="1"/>
        <pt x="254" y="58" on="0"/>
        <pt x="327" y="93" on="0"/>
        <pt x="386" y="153" on="0"/>
        <pt x="428" y="234" on="0"/>
        <pt x="440" y="281" on="1"/>
        <pt x="204" y="281" on="1"/>
        <pt x="221" y="351" on="1"/>
      </contour>
    </TTGlyph>
    <TTGlyph name="afii10048" xMin="27" yMin="-12" xMax="559" yMax="633">
      <contour>
        <pt x="216" y="143" on="1"/>
        <pt x="216" y="206" on="0"/>
        <pt x="230" y="288" on="1"/>
        <pt x="173" y="288" on="1"/>
        <pt x="105" y="0" on="1"/>
        <pt x="27" y="0" on="1"/>
        <pt x="174" y="619" on="1"/>
        <pt x="253" y="619" on="1"/>
        <pt x="189" y="358" on="1"/>
        <pt x="244" y="358" on="1"/>
        <pt x="257" y="410" on="0"/>
        <pt x="295" y="510" on="0"/>
        <pt x="348" y="586" on="0"/>
        <pt x="416" y="633" on="0"/>
        <pt x="458" y="633" on="1"/>
        <pt x="479" y="633" on="0"/>
        <pt x="516" y="619" on="0"/>
        <pt x="543" y="583" on="0"/>
        <pt x="559" y="524" on="0"/>
        <pt x="559" y="479" on="1"/>
        <pt x="559" y="438" on="0"/>
        <pt x="547" y="333" on="0"/>
        <pt x="523" y="224" on="0"/>
        <pt x="484" y="119" on="0"/>
        <pt x="430" y="38" on="0"/>
        <pt x="360" y="-12" on="0"/>
        <pt x="317" y="-12" on="1"/>
        <pt x="296" y="-12" on="0"/>
        <pt x="259" y="2" on="0"/>
        <pt x="232" y="38" on="0"/>
        <pt x="216" y="98" on="0"/>
      </contour>
      <contour>
        <pt x="446" y="563" on="1"/>
        <pt x="425" y="563" on="0"/>
        <pt x="386" y="522" on="0"/>
        <pt x="352" y="453" on="0"/>
        <pt x="324" y="363" on="0"/>
        <pt x="304" y="267" on="0"/>
        <pt x="293" y="172" on="0"/>
        <pt x="293" y="132" on="1"/>
        <pt x="293" y="58" on="0"/>
        <pt x="330" y="58" on="1"/>
        <pt x="351" y="58" on="0"/>
        <pt x="389" y="100" on="0"/>
        <pt x="423" y="169" on="0"/>
        <pt x="451" y="258" on="0"/>
        <pt x="471" y="354" on="0"/>
        <pt x="482" y="449" on="0"/>
        <pt x="482" y="489" on="1"/>
        <pt x="482" y="563" on="0"/>
      </contour>
    </TTGlyph>
    <TTGlyph name="afii10049" xMin="29" yMin="0" xMax="577" yMax="625">
      <contour>
        <pt x="29" y="0" on="1"/>
        <pt x="52" y="36" on="0"/>
        <pt x="104" y="111" on="0"/>
        <pt x="157" y="181" on="0"/>
        <pt x="206" y="243" on="0"/>
        <pt x="226" y="266" on="1"/>
        <pt x="189" y="284" on="0"/>
        <pt x="152" y="346" on="0"/>
        <pt x="152" y="397" on="1"/>
        <pt x="152" y="452" on="0"/>
        <pt x="198" y="538" on="0"/>
        <pt x="274" y="595" on="0"/>
        <pt x="375" y="625" on="0"/>
        <pt x="430" y="625" on="1"/>
        <pt x="446" y="625" on="0"/>
        <pt x="485" y="623" on="0"/>
        <pt x="525" y="620" on="0"/>
        <pt x="562" y="614" on="0"/>
        <pt x="577" y="610" on="1"/>
        <pt x="430" y="0" on="1"/>
        <pt x="348" y="0" on="1"/>
        <pt x="407" y="243" on="1"/>
        <pt x="337" y="243" on="1"/>
        <pt x="326" y="243" on="0"/>
        <pt x="305" y="245" on="0"/>
        <pt x="300" y="246" on="1"/>
        <pt x="281" y="224" on="0"/>
        <pt x="237" y="168" on="0"/>
        <pt x="189" y="104" on="0"/>
        <pt x="141" y="34" on="0"/>
        <pt x="118" y="0" on="1"/>
      </contour>
      <contour>
        <pt x="481" y="553" on="1"/>
        <pt x="454" y="556" on="0"/>
        <pt x="428" y="556" on="1"/>
        <pt x="389" y="556" on="0"/>
        <pt x="319" y="541" on="0"/>
        <pt x="266" y="505" on="0"/>
        <pt x="234" y="445" on="0"/>
        <pt x="234" y="401" on="1"/>
        <pt x="234" y="353" on="0"/>
        <pt x="294" y="311" on="0"/>
        <pt x="354" y="311" on="1"/>
        <pt x="423" y="311" on="1"/>
      </contour>
    </TTGlyph>
    <TTGlyph name="afii10050" xMin="18" yMin="0" xMax="601" yMax="737">
      <contour>
        <pt x="123" y="70" on="1"/>
        <pt x="255" y="619" on="1"/>
        <pt x="494" y="619" on="1"/>
        <pt x="522" y="737" on="1"/>
        <pt x="601" y="737" on="1"/>
        <pt x="555" y="549" on="1"/>
        <pt x="321" y="549" on="1"/>
        <pt x="205" y="70" on="1"/>
        <pt x="339" y="70" on="1"/>
        <pt x="322" y="0" on="1"/>
        <pt x="18" y="0" on="1"/>
        <pt x="35" y="70" on="1"/>
      </contour>
    </TTGlyph>
    <TTGlyph name="afii10051" xMin="89" yMin="-2" xMax="510" yMax="619">
      <contour>
        <pt x="262" y="376" on="1"/>
        <pt x="300" y="389" on="0"/>
        <pt x="340" y="389" on="1"/>
        <pt x="379" y="389" on="0"/>
        <pt x="437" y="364" on="0"/>
        <pt x="476" y="321" on="0"/>
        <pt x="496" y="264" on="0"/>
        <pt x="496" y="232" on="1"/>
        <pt x="496" y="191" on="0"/>
        <pt x="471" y="108" on="0"/>
        <pt x="419" y="41" on="0"/>
        <pt x="335" y="-2" on="0"/>
        <pt x="277" y="-2" on="1"/>
        <pt x="264" y="-2" on="0"/>
        <pt x="238" y="2" on="0"/>
        <pt x="228" y="4" on="1"/>
        <pt x="245" y="68" on="1"/>
        <pt x="250" y="66" on="0"/>
        <pt x="268" y="64" on="0"/>
        <pt x="281" y="64" on="1"/>
        <pt x="315" y="64" on="0"/>
        <pt x="364" y="89" on="0"/>
        <pt x="397" y="131" on="0"/>
        <pt x="413" y="185" on="0"/>
        <pt x="413" y="214" on="1"/>
        <pt x="413" y="265" on="0"/>
        <pt x="369" y="319" on="0"/>
        <pt x="321" y="319" on="1"/>
        <pt x="302" y="319" on="0"/>
        <pt x="262" y="312" on="0"/>
        <pt x="245" y="307" on="1"/>
        <pt x="171" y="0" on="1"/>
        <pt x="89" y="0" on="1"/>
        <pt x="221" y="549" on="1"/>
        <pt x="127" y="549" on="1"/>
        <pt x="144" y="619" on="1"/>
        <pt x="510" y="619" on="1"/>
        <pt x="493" y="549" on="1"/>
        <pt x="303" y="549" on="1"/>
      </contour>
    </TTGlyph>
    <TTGlyph name="afii10052" xMin="27" yMin="0" xMax="581" yMax="830">
      <component glyphName="afii10020" x="0" y="0" flags="0x214"/>
      <component glyphName="acute" x="71" y="139" flags="0x4"/>
    </TTGlyph>
    <TTGlyph name="afii10053" xMin="89" yMin="-13" xMax="574" yMax="633">
      <contour>
        <pt x="279" y="-13" on="1"/>
        <pt x="229" y="-13" on="0"/>
        <pt x="157" y="23" on="0"/>
        <pt x="111" y="84" on="0"/>
        <pt x="89" y="166" on="0"/>
        <pt x="89" y="213" on="1"/>
        <pt x="89" y="306" on="0"/>
        <pt x="145" y="461" on="0"/>
        <pt x="237" y="572" on="0"/>
        <pt x="357" y="633" on="0"/>
        <pt x="422" y="633" on="1"/>
        <pt x="460" y="633" on="0"/>
        <pt x="537" y="611" on="0"/>
        <pt x="574" y="587" on="1"/>
        <pt x="537" y="522" on="1"/>
        <pt x="510" y="542" on="0"/>
        <pt x="450" y="562" on="0"/>
        <pt x="419" y="562" on="1"/>
        <pt x="347" y="562" on="0"/>
        <pt x="223" y="458" on="0"/>
        <pt x="191" y="351" on="1"/>
        <pt x="424" y="351" on="1"/>
        <pt x="407" y="281" on="1"/>
        <pt x="175" y="281" on="1"/>
        <pt x="172" y="267" on="0"/>
        <pt x="170" y="235" on="0"/>
        <pt x="170" y="219" on="1"/>
        <pt x="170" y="189" on="0"/>
        <pt x="182" y="132" on="0"/>
        <pt x="210" y="86" on="0"/>
        <pt x="259" y="58" on="0"/>
        <pt x="297" y="58" on="1"/>
        <pt x="348" y="58" on="0"/>
        <pt x="418" y="83" on="0"/>
        <pt x="437" y="94" on="1"/>
        <pt x="446" y="26" on="1"/>
        <pt x="429" y="15" on="0"/>
        <pt x="346" y="-13" on="0"/>
      </contour>
    </TTGlyph>
    <TTGlyph name="afii10054" xMin="54" yMin="-13" xMax="545" yMax="633">
      <component glyphName="S" x="0" y="0" flags="0x214"/>
    </TTGlyph>
    <TTGlyph name="afii10055" xMin="71" yMin="0" xMax="541" yMax="619">
      <component glyphName="I" x="0" y="0" flags="0x214"/>
    </TTGlyph>
    <TTGlyph name="afii10056" xMin="71" yMin="0" xMax="549" yMax="794">
      <component glyphName="I" x="0" y="0" flags="0x214"/>
      <component glyphName="dieresis" x="36" y="139" flags="0x4"/>
    </TTGlyph>
    <TTGlyph name="afii10057" xMin="67" yMin="-13" xMax="554" yMax="619">
      <component glyphName="J" x="0" y="0" flags="0x214"/>
    </TTGlyph>
    <TTGlyph name="afii10058" xMin="12" yMin="-7" xMax="519" yMax="619">
      <contour>
        <pt x="442" y="619" on="1"/>
        <pt x="388" y="394" on="1"/>
        <pt x="394" y="395" on="0"/>
        <pt x="406" y="396" on="0"/>
        <pt x="411" y="396" on="1"/>
        <pt x="472" y="396" on="0"/>
        <pt x="519" y="322" on="0"/>
        <pt x="519" y="260" on="1"/>
        <pt x="519" y="205" on="0"/>
        <pt x="495" y="109" on="0"/>
        <pt x="445" y="37" on="0"/>
        <pt x="370" y="-4" on="0"/>
        <pt x="319" y="-4" on="1"/>
        <pt x="297" y="-4" on="0"/>
        <pt x="249" y="3" on="0"/>
        <pt x="223" y="12" on="1"/>
        <pt x="352" y="549" on="1"/>
        <pt x="292" y="549" on="1"/>
        <pt x="270" y="447" on="0"/>
        <pt x="220" y="258" on="0"/>
        <pt x="190" y="177" on="1"/>
        <pt x="176" y="139" on="0"/>
        <pt x="144" y="76" on="0"/>
        <pt x="103" y="28" on="0"/>
        <pt x="53" y="-3" on="0"/>
        <pt x="20" y="-7" on="1"/>
        <pt x="12" y="61" on="1"/>
        <pt x="46" y="69" on="0"/>
        <pt x="100" y="132" on="0"/>
        <pt x="125" y="198" on="1"/>
        <pt x="138" y="234" on="0"/>
        <pt x="168" y="330" on="0"/>
        <pt x="196" y="440" on="0"/>
        <pt x="224" y="560" on="0"/>
        <pt x="236" y="619" on="1"/>
      </contour>
      <contour>
        <pt x="308" y="63" on="1"/>
        <pt x="321" y="60" on="0"/>
        <pt x="334" y="60" on="1"/>
        <pt x="367" y="60" on="0"/>
        <pt x="410" y="97" on="0"/>
        <pt x="435" y="154" on="0"/>
        <pt x="446" y="221" on="0"/>
        <pt x="446" y="250" on="1"/>
        <pt x="446" y="298" on="0"/>
        <pt x="421" y="330" on="0"/>
        <pt x="394" y="330" on="1"/>
        <pt x="389" y="330" on="0"/>
        <pt x="378" y="329" on="0"/>
        <pt x="371" y="327" on="1"/>
      </contour>
    </TTGlyph>
    <TTGlyph name="afii10059" xMin="25" yMin="-4" xMax="519" yMax="619">
      <contour>
        <pt x="387" y="389" on="1"/>
        <pt x="393" y="390" on="0"/>
        <pt x="405" y="391" on="0"/>
        <pt x="410" y="391" on="1"/>
        <pt x="440" y="391" on="0"/>
        <pt x="482" y="372" on="0"/>
        <pt x="508" y="337" on="0"/>
        <pt x="519" y="289" on="0"/>
        <pt x="519" y="260" on="1"/>
        <pt x="519" y="205" on="0"/>
        <pt x="495" y="109" on="0"/>
        <pt x="445" y="37" on="0"/>
        <pt x="370" y="-4" on="0"/>
        <pt x="319" y="-4" on="1"/>
        <pt x="297" y="-4" on="0"/>
        <pt x="249" y="3" on="0"/>
        <pt x="223" y="12" on="1"/>
        <pt x="295" y="310" on="1"/>
        <pt x="172" y="310" on="1"/>
        <pt x="97" y="0" on="1"/>
        <pt x="25" y="0" on="1"/>
        <pt x="173" y="619" on="1"/>
        <pt x="246" y="619" on="1"/>
        <pt x="189" y="380" on="1"/>
        <pt x="311" y="380" on="1"/>
        <pt x="369" y="619" on="1"/>
        <pt x="442" y="619" on="1"/>
      </contour>
      <contour>
        <pt x="308" y="63" on="1"/>
        <pt x="321" y="60" on="0"/>
        <pt x="334" y="60" on="1"/>
        <pt x="367" y="60" on="0"/>
        <pt x="410" y="97" on="0"/>
        <pt x="435" y="152" on="0"/>
        <pt x="446" y="214" on="0"/>
        <pt x="446" y="240" on="1"/>
        <pt x="446" y="266" on="0"/>
        <pt x="439" y="298" on="0"/>
        <pt x="426" y="315" on="0"/>
        <pt x="405" y="321" on="0"/>
        <pt x="392" y="321" on="1"/>
        <pt x="387" y="321" on="0"/>
        <pt x="376" y="320" on="0"/>
        <pt x="370" y="318" on="1"/>
      </contour>
    </TTGlyph>
    <TTGlyph name="afii10060" xMin="89" yMin="0" xMax="490" yMax="619">
      <contour>
        <pt x="391" y="167" on="1"/>
        <pt x="396" y="188" on="0"/>
        <pt x="406" y="241" on="0"/>
        <pt x="400" y="288" on="0"/>
        <pt x="369" y="320" on="0"/>
        <pt x="332" y="320" on="1"/>
        <pt x="312" y="320" on="0"/>
        <pt x="266" y="311" on="0"/>
        <pt x="246" y="306" on="1"/>
        <pt x="171" y="0" on="1"/>
        <pt x="89" y="0" on="1"/>
        <pt x="221" y="549" on="1"/>
        <pt x="137" y="549" on="1"/>
        <pt x="154" y="619" on="1"/>
        <pt x="490" y="619" on="1"/>
        <pt x="473" y="549" on="1"/>
        <pt x="304" y="549" on="1"/>
        <pt x="262" y="375" on="1"/>
        <pt x="310" y="389" on="0"/>
        <pt x="355" y="389" on="1"/>
        <pt x="409" y="389" on="0"/>
        <pt x="466" y="350" on="0"/>
        <pt x="489" y="287" on="0"/>
        <pt x="483" y="207" on="0"/>
        <pt x="473" y="167" on="1"/>
        <pt x="433" y="0" on="1"/>
        <pt x="351" y="0" on="1"/>
      </contour>
    </TTGlyph>
    <TTGlyph name="afii10061" xMin="45" yMin="0" xMax="588" yMax="830">
      <component glyphName="K" x="0" y="0" flags="0x214"/>
      <component glyphName="acute" x="33" y="139" flags="0x4"/>
    </TTGlyph>
    <TTGlyph name="afii10062" xMin="31" yMin="-8" xMax="631" yMax="803">
      <component glyphName="afii10037" x="0" y="0" flags="0x214"/>
      <component glyphName="kratka" x="44" y="139" flags="0x4"/>
    </TTGlyph>
    <TTGlyph name="afii10065" xMin="71" yMin="-11" xMax="513" yMax="474">
      <component glyphName="a" x="0" y="0" flags="0x214"/>
    </TTGlyph>
    <TTGlyph name="afii10066" xMin="91" yMin="-12" xMax="567" yMax="693">
      <contour>
        <pt x="352" y="457" on="1"/>
        <pt x="391" y="457" on="0"/>
        <pt x="446" y="432" on="0"/>
        <pt x="482" y="389" on="0"/>
        <pt x="499" y="331" on="0"/>
        <pt x="499" y="297" on="1"/>
        <pt x="499" y="235" on="0"/>
        <pt x="468" y="123" on="0"/>
        <pt x="404" y="38" on="0"/>
        <pt x="307" y="-12" on="0"/>
        <pt x="241" y="-12" on="1"/>
        <pt x="166" y="-12" on="0"/>
        <pt x="91" y="85" on="0"/>
        <pt x="91" y="163" on="1"/>
        <pt x="91" y="223" on="0"/>
        <pt x="121" y="350" on="0"/>
        <pt x="142" y="412" on="1"/>
        <pt x="161" y="469" on="0"/>
        <pt x="214" y="561" on="0"/>
        <pt x="291" y="628" on="0"/>
        <pt x="394" y="669" on="0"/>
        <pt x="462" y="676" on="1"/>
        <pt x="487" y="679" on="0"/>
        <pt x="520" y="683" on="0"/>
        <pt x="543" y="688" on="0"/>
        <pt x="559" y="691" on="0"/>
        <pt x="567" y="693" on="1"/>
        <pt x="563" y="618" on="1"/>
        <pt x="552" y="613" on="0"/>
        <pt x="507" y="607" on="0"/>
        <pt x="462" y="602" on="1"/>
        <pt x="410" y="597" on="0"/>
        <pt x="335" y="566" on="0"/>
        <pt x="281" y="518" on="0"/>
        <pt x="243" y="457" on="0"/>
        <pt x="230" y="421" on="1"/>
        <pt x="255" y="438" on="0"/>
        <pt x="323" y="457" on="0"/>
      </contour>
      <contour>
        <pt x="205" y="340" on="1"/>
        <pt x="188" y="286" on="0"/>
        <pt x="174" y="203" on="0"/>
        <pt x="174" y="173" on="1"/>
        <pt x="174" y="115" on="0"/>
        <pt x="212" y="60" on="0"/>
        <pt x="255" y="60" on="1"/>
        <pt x="294" y="60" on="0"/>
        <pt x="354" y="101" on="0"/>
        <pt x="395" y="167" on="0"/>
        <pt x="416" y="248" on="0"/>
        <pt x="416" y="288" on="1"/>
        <pt x="416" y="306" on="0"/>
        <pt x="410" y="341" on="0"/>
        <pt x="391" y="369" on="0"/>
        <pt x="358" y="386" on="0"/>
        <pt x="331" y="386" on="1"/>
        <pt x="293" y="386" on="0"/>
        <pt x="229" y="358" on="0"/>
      </contour>
    </TTGlyph>
    <TTGlyph name="afii10066.locl" xMin="89" yMin="-12" xMax="559" yMax="693">
      <contour>
        <pt x="89" y="166" on="1"/>
        <pt x="89" y="205" on="0"/>
        <pt x="109" y="285" on="0"/>
        <pt x="155" y="358" on="0"/>
        <pt x="229" y="421" on="0"/>
        <pt x="282" y="442" on="1"/>
        <pt x="259" y="463" on="0"/>
        <pt x="229" y="516" on="0"/>
        <pt x="229" y="554" on="1"/>
        <pt x="229" y="617" on="0"/>
        <pt x="323" y="689" on="0"/>
        <pt x="416" y="689" on="1"/>
        <pt x="464" y="689" on="0"/>
        <pt x="539" y="690" on="0"/>
        <pt x="559" y="693" on="1"/>
        <pt x="547" y="625" on="1"/>
        <pt x="538" y="623" on="0"/>
        <pt x="503" y="622" on="0"/>
        <pt x="462" y="621" on="0"/>
        <pt x="419" y="621" on="0"/>
        <pt x="403" y="621" on="1"/>
        <pt x="388" y="621" on="0"/>
        <pt x="355" y="617" on="0"/>
        <pt x="327" y="604" on="0"/>
        <pt x="309" y="581" on="0"/>
        <pt x="309" y="562" on="1"/>
        <pt x="309" y="532" on="0"/>
        <pt x="344" y="493" on="0"/>
        <pt x="364" y="475" on="1"/>
        <pt x="386" y="455" on="0"/>
        <pt x="433" y="412" on="0"/>
        <pt x="471" y="361" on="0"/>
        <pt x="495" y="300" on="0"/>
        <pt x="495" y="262" on="1"/>
        <pt x="495" y="212" on="0"/>
        <pt x="467" y="114" on="0"/>
        <pt x="407" y="36" on="0"/>
        <pt x="314" y="-12" on="0"/>
        <pt x="248" y="-12" on="1"/>
        <pt x="207" y="-12" on="0"/>
        <pt x="147" y="15" on="0"/>
        <pt x="108" y="63" on="0"/>
        <pt x="89" y="128" on="0"/>
      </contour>
      <contour>
        <pt x="413" y="256" on="1"/>
        <pt x="413" y="282" on="0"/>
        <pt x="400" y="324" on="0"/>
        <pt x="379" y="357" on="0"/>
        <pt x="351" y="385" on="0"/>
        <pt x="336" y="397" on="1"/>
        <pt x="291" y="380" on="0"/>
        <pt x="228" y="329" on="0"/>
        <pt x="189" y="269" on="0"/>
        <pt x="171" y="202" on="0"/>
        <pt x="171" y="171" on="1"/>
        <pt x="171" y="150" on="0"/>
        <pt x="181" y="110" on="0"/>
        <pt x="202" y="79" on="0"/>
        <pt x="236" y="60" on="0"/>
        <pt x="260" y="60" on="1"/>
        <pt x="298" y="60" on="0"/>
        <pt x="356" y="97" on="0"/>
        <pt x="394" y="154" on="0"/>
        <pt x="413" y="224" on="0"/>
      </contour>
    </TTGlyph>
    <TTGlyph name="afii10067" xMin="54" yMin="-10" xMax="480" yMax="476">
      <contour>
        <pt x="480" y="363" on="1"/>
        <pt x="480" y="312" on="0"/>
        <pt x="433" y="258" on="0"/>
        <pt x="395" y="243" on="1"/>
        <pt x="425" y="233" on="0"/>
        <pt x="462" y="186" on="0"/>
        <pt x="462" y="154" on="1"/>
        <pt x="462" y="104" on="0"/>
        <pt x="422" y="41" on="0"/>
        <pt x="356" y="4" on="0"/>
        <pt x="272" y="-10" on="0"/>
        <pt x="228" y="-10" on="1"/>
        <pt x="181" y="-10" on="0"/>
        <pt x="86" y="0" on="0"/>
        <pt x="54" y="13" on="1"/>
        <pt x="121" y="301" on="1"/>
        <pt x="133" y="353" on="0"/>
        <pt x="177" y="420" on="0"/>
        <pt x="234" y="460" on="0"/>
        <pt x="304" y="476" on="0"/>
        <pt x="343" y="476" on="1"/>
        <pt x="378" y="476" on="0"/>
        <pt x="429" y="458" on="0"/>
        <pt x="463" y="427" on="0"/>
        <pt x="480" y="386" on="0"/>
      </contour>
      <contour>
        <pt x="182" y="213" on="1"/>
        <pt x="147" y="62" on="1"/>
        <pt x="160" y="60" on="0"/>
        <pt x="203" y="56" on="0"/>
        <pt x="235" y="56" on="1"/>
        <pt x="263" y="56" on="0"/>
        <pt x="316" y="65" on="0"/>
        <pt x="356" y="86" on="0"/>
        <pt x="380" y="121" on="0"/>
        <pt x="380" y="148" on="1"/>
        <pt x="380" y="183" on="0"/>
        <pt x="334" y="213" on="0"/>
        <pt x="285" y="213" on="1"/>
      </contour>
      <contour>
        <pt x="197" y="273" on="1"/>
        <pt x="266" y="273" on="1"/>
        <pt x="294" y="273" on="0"/>
        <pt x="343" y="281" on="0"/>
        <pt x="379" y="300" on="0"/>
        <pt x="400" y="332" on="0"/>
        <pt x="400" y="357" on="1"/>
        <pt x="400" y="380" on="0"/>
        <pt x="367" y="410" on="0"/>
        <pt x="332" y="410" on="1"/>
        <pt x="311" y="410" on="0"/>
        <pt x="270" y="400" on="0"/>
        <pt x="234" y="372" on="0"/>
        <pt x="206" y="322" on="0"/>
        <pt x="199" y="282" on="1"/>
      </contour>
    </TTGlyph>
    <TTGlyph name="afii10068" xMin="79" yMin="-12" xMax="481" yMax="476">
      <contour>
        <pt x="265" y="266" on="1"/>
        <pt x="294" y="274" on="0"/>
        <pt x="344" y="290" on="0"/>
        <pt x="380" y="310" on="0"/>
        <pt x="401" y="337" on="0"/>
        <pt x="401" y="356" on="1"/>
        <pt x="401" y="371" on="0"/>
        <pt x="386" y="391" on="0"/>
        <pt x="360" y="402" on="0"/>
        <pt x="328" y="407" on="0"/>
        <pt x="311" y="407" on="1"/>
        <pt x="262" y="407" on="0"/>
        <pt x="187" y="385" on="0"/>
        <pt x="171" y="379" on="1"/>
        <pt x="167" y="448" on="1"/>
        <pt x="186" y="457" on="0"/>
        <pt x="272" y="476" on="0"/>
        <pt x="322" y="476" on="1"/>
        <pt x="394" y="476" on="0"/>
        <pt x="481" y="419" on="0"/>
        <pt x="481" y="365" on="1"/>
        <pt x="481" y="324" on="0"/>
        <pt x="446" y="271" on="0"/>
        <pt x="391" y="234" on="0"/>
        <pt x="321" y="210" on="0"/>
        <pt x="286" y="199" on="1"/>
        <pt x="265" y="193" on="0"/>
        <pt x="220" y="179" on="0"/>
        <pt x="184" y="159" on="0"/>
        <pt x="161" y="130" on="0"/>
        <pt x="161" y="110" on="1"/>
        <pt x="161" y="81" on="0"/>
        <pt x="216" y="57" on="0"/>
        <pt x="269" y="57" on="1"/>
        <pt x="296" y="57" on="0"/>
        <pt x="342" y="64" on="0"/>
        <pt x="380" y="74" on="0"/>
        <pt x="407" y="83" on="0"/>
        <pt x="413" y="86" on="1"/>
        <pt x="417" y="16" on="1"/>
        <pt x="410" y="13" on="0"/>
        <pt x="380" y="3" on="0"/>
        <pt x="339" y="-6" on="0"/>
        <pt x="289" y="-12" on="0"/>
        <pt x="262" y="-12" on="1"/>
        <pt x="173" y="-12" on="0"/>
        <pt x="79" y="44" on="0"/>
        <pt x="79" y="101" on="1"/>
        <pt x="79" y="139" on="0"/>
        <pt x="111" y="193" on="0"/>
        <pt x="164" y="231" on="0"/>
        <pt x="230" y="256" on="0"/>
      </contour>
    </TTGlyph>
    <TTGlyph name="afii10068.locl.ita" xMin="134" yMin="-3" xMax="483" yMax="635">
      <component glyphName="dotlessi" x="0" y="0" flags="0x214"/>
      <component glyphName="macron" x="-17" y="0" flags="0x4"/>
    </TTGlyph>
    <TTGlyph name="afii10069" xMin="87" yMin="-12" xMax="503" yMax="693">
      <contour>
        <pt x="260" y="623" on="1"/>
        <pt x="228" y="623" on="0"/>
        <pt x="194" y="613" on="0"/>
        <pt x="186" y="610" on="1"/>
        <pt x="179" y="680" on="1"/>
        <pt x="186" y="682" on="0"/>
        <pt x="235" y="693" on="0"/>
        <pt x="273" y="693" on="1"/>
        <pt x="383" y="693" on="0"/>
        <pt x="503" y="554" on="0"/>
        <pt x="503" y="411" on="1"/>
        <pt x="503" y="380" on="0"/>
        <pt x="497" y="294" on="0"/>
        <pt x="477" y="200" on="0"/>
        <pt x="441" y="107" on="0"/>
        <pt x="383" y="34" on="0"/>
        <pt x="298" y="-12" on="0"/>
        <pt x="239" y="-12" on="1"/>
        <pt x="167" y="-12" on="0"/>
        <pt x="87" y="78" on="0"/>
        <pt x="87" y="150" on="1"/>
        <pt x="87" y="202" on="0"/>
        <pt x="113" y="312" on="0"/>
        <pt x="171" y="402" on="0"/>
        <pt x="265" y="459" on="0"/>
        <pt x="333" y="459" on="1"/>
        <pt x="356" y="459" on="0"/>
        <pt x="403" y="447" on="0"/>
        <pt x="421" y="439" on="1"/>
        <pt x="419" y="467" on="0"/>
        <pt x="409" y="531" on="0"/>
        <pt x="376" y="586" on="0"/>
        <pt x="313" y="623" on="0"/>
      </contour>
      <contour>
        <pt x="251" y="58" on="1"/>
        <pt x="296" y="58" on="0"/>
        <pt x="360" y="122" on="0"/>
        <pt x="401" y="216" on="0"/>
        <pt x="420" y="324" on="0"/>
        <pt x="420" y="369" on="1"/>
        <pt x="408" y="376" on="0"/>
        <pt x="366" y="389" on="0"/>
        <pt x="331" y="389" on="1"/>
        <pt x="288" y="389" on="0"/>
        <pt x="227" y="347" on="0"/>
        <pt x="188" y="280" on="0"/>
        <pt x="169" y="198" on="0"/>
        <pt x="169" y="158" on="1"/>
        <pt x="169" y="110" on="0"/>
        <pt x="205" y="58" on="0"/>
      </contour>
    </TTGlyph>
    <TTGlyph name="afii10069.locl.ita" xMin="21" yMin="-168" xMax="531" yMax="474">
      <component glyphName="g" x="0" y="0" flags="0x214"/>
    </TTGlyph>
    <TTGlyph name="afii10070" xMin="71" yMin="-12" xMax="503" yMax="475">
      <component glyphName="e" x="0" y="0" flags="0x214"/>
    </TTGlyph>
    <TTGlyph name="afii10071" xMin="71" yMin="-12" xMax="534" yMax="655">
      <component glyphName="e" x="0" y="0" flags="0x214"/>
      <component glyphName="dieresis" x="21" y="0" flags="0x4"/>
    </TTGlyph>
    <TTGlyph name="afii10072" xMin="-3" yMin="-10" xMax="563" yMax="472">
      <contour>
        <pt x="538" y="409" on="1"/>
        <pt x="516" y="409" on="0"/>
        <pt x="481" y="380" on="0"/>
        <pt x="455" y="335" on="0"/>
        <pt x="437" y="278" on="0"/>
        <pt x="426" y="221" on="0"/>
        <pt x="421" y="170" on="0"/>
        <pt x="421" y="154" on="1"/>
        <pt x="421" y="134" on="0"/>
        <pt x="423" y="98" on="0"/>
        <pt x="433" y="70" on="0"/>
        <pt x="451" y="53" on="0"/>
        <pt x="468" y="53" on="1"/>
        <pt x="472" y="53" on="0"/>
        <pt x="479" y="54" on="0"/>
        <pt x="482" y="54" on="1"/>
        <pt x="476" y="-6" on="1"/>
        <pt x="471" y="-8" on="0"/>
        <pt x="459" y="-10" on="0"/>
        <pt x="451" y="-10" on="1"/>
        <pt x="423" y="-10" on="0"/>
        <pt x="388" y="14" on="0"/>
        <pt x="367" y="55" on="0"/>
        <pt x="359" y="109" on="0"/>
        <pt x="359" y="140" on="1"/>
        <pt x="359" y="154" on="0"/>
        <pt x="363" y="193" on="0"/>
        <pt x="365" y="209" on="1"/>
        <pt x="313" y="209" on="1"/>
        <pt x="263" y="0" on="1"/>
        <pt x="198" y="0" on="1"/>
        <pt x="248" y="209" on="1"/>
        <pt x="198" y="209" on="1"/>
        <pt x="188" y="162" on="0"/>
        <pt x="160" y="82" on="0"/>
        <pt x="122" y="24" on="0"/>
        <pt x="72" y="-9" on="0"/>
        <pt x="39" y="-9" on="1"/>
        <pt x="25" y="-9" on="0"/>
        <pt x="5" y="-6" on="0"/>
        <pt x="-3" y="-4" on="1"/>
        <pt x="10" y="57" on="1"/>
        <pt x="15" y="55" on="0"/>
        <pt x="25" y="54" on="0"/>
        <pt x="31" y="54" on="1"/>
        <pt x="65" y="54" on="0"/>
        <pt x="110" y="111" on="0"/>
        <pt x="137" y="191" on="0"/>
        <pt x="149" y="277" on="0"/>
        <pt x="149" y="305" on="1"/>
        <pt x="149" y="325" on="0"/>
        <pt x="148" y="362" on="0"/>
        <pt x="139" y="391" on="0"/>
        <pt x="120" y="409" on="0"/>
        <pt x="102" y="409" on="1"/>
        <pt x="93" y="409" on="0"/>
        <pt x="88" y="408" on="1"/>
        <pt x="94" y="470" on="1"/>
        <pt x="99" y="471" on="0"/>
        <pt x="110" y="472" on="0"/>
        <pt x="115" y="472" on="1"/>
        <pt x="146" y="472" on="0"/>
        <pt x="184" y="448" on="0"/>
        <pt x="205" y="406" on="0"/>
        <pt x="212" y="351" on="0"/>
        <pt x="212" y="320" on="1"/>
        <pt x="212" y="309" on="0"/>
        <pt x="209" y="278" on="0"/>
        <pt x="207" y="267" on="1"/>
        <pt x="263" y="267" on="1"/>
        <pt x="310" y="464" on="1"/>
        <pt x="374" y="464" on="1"/>
        <pt x="327" y="267" on="1"/>
        <pt x="375" y="267" on="1"/>
        <pt x="398" y="365" on="0"/>
        <pt x="470" y="472" on="0"/>
        <pt x="526" y="472" on="1"/>
        <pt x="542" y="472" on="0"/>
        <pt x="557" y="468" on="0"/>
        <pt x="563" y="466" on="1"/>
        <pt x="552" y="406" on="1"/>
        <pt x="546" y="409" on="0"/>
      </contour>
    </TTGlyph>
    <TTGlyph name="afii10073" xMin="63" yMin="-11" xMax="497" yMax="476">
      <contour>
        <pt x="180" y="452" on="1"/>
        <pt x="218" y="463" on="0"/>
        <pt x="299" y="476" on="0"/>
        <pt x="338" y="476" on="1"/>
        <pt x="383" y="476" on="0"/>
        <pt x="444" y="458" on="0"/>
        <pt x="481" y="427" on="0"/>
        <pt x="497" y="388" on="0"/>
        <pt x="497" y="367" on="1"/>
        <pt x="497" y="350" on="0"/>
        <pt x="487" y="312" on="0"/>
        <pt x="465" y="277" on="0"/>
        <pt x="429" y="248" on="0"/>
        <pt x="404" y="239" on="1"/>
        <pt x="436" y="222" on="0"/>
        <pt x="464" y="181" on="0"/>
        <pt x="464" y="146" on="1"/>
        <pt x="464" y="120" on="0"/>
        <pt x="441" y="64" on="0"/>
        <pt x="384" y="18" on="0"/>
        <pt x="289" y="-11" on="0"/>
        <pt x="218" y="-11" on="1"/>
        <pt x="176" y="-11" on="0"/>
        <pt x="98" y="1" on="0"/>
        <pt x="63" y="15" on="1"/>
        <pt x="96" y="85" on="1"/>
        <pt x="110" y="80" on="0"/>
        <pt x="188" y="61" on="0"/>
        <pt x="242" y="61" on="1"/>
        <pt x="313" y="61" on="0"/>
        <pt x="382" y="110" on="0"/>
        <pt x="382" y="146" on="1"/>
        <pt x="382" y="174" on="0"/>
        <pt x="330" y="209" on="0"/>
        <pt x="279" y="209" on="1"/>
        <pt x="191" y="209" on="1"/>
        <pt x="207" y="275" on="1"/>
        <pt x="299" y="275" on="1"/>
        <pt x="354" y="275" on="0"/>
        <pt x="417" y="319" on="0"/>
        <pt x="417" y="349" on="1"/>
        <pt x="417" y="374" on="0"/>
        <pt x="369" y="405" on="0"/>
        <pt x="315" y="405" on="1"/>
        <pt x="301" y="405" on="0"/>
        <pt x="267" y="401" on="0"/>
        <pt x="231" y="395" on="0"/>
        <pt x="196" y="385" on="0"/>
        <pt x="181" y="379" on="1"/>
      </contour>
    </TTGlyph>
    <TTGlyph name="afii10074" xMin="84" yMin="-10" xMax="515" yMax="464">
      <component glyphName="u" x="0" y="0" flags="0x214"/>
    </TTGlyph>
    <TTGlyph name="afii10075" xMin="84" yMin="-10" xMax="515" yMax="664">
      <component glyphName="u" x="0" y="0" flags="0x214"/>
      <component glyphName="kratka" x="-8" y="0" flags="0x4"/>
    </TTGlyph>
    <TTGlyph name="afii10076" xMin="63" yMin="0" xMax="545" yMax="464">
      <contour>
        <pt x="63" y="0" on="1"/>
        <pt x="174" y="464" on="1"/>
        <pt x="257" y="464" on="1"/>
        <pt x="211" y="275" on="1"/>
        <pt x="241" y="297" on="0"/>
        <pt x="306" y="346" on="0"/>
        <pt x="369" y="395" on="0"/>
        <pt x="425" y="443" on="0"/>
        <pt x="447" y="464" on="1"/>
        <pt x="545" y="464" on="1"/>
        <pt x="524" y="441" on="0"/>
        <pt x="457" y="383" on="0"/>
        <pt x="384" y="324" on="0"/>
        <pt x="312" y="271" on="0"/>
        <pt x="286" y="252" on="1"/>
        <pt x="310" y="231" on="0"/>
        <pt x="361" y="173" on="0"/>
        <pt x="408" y="106" on="0"/>
        <pt x="448" y="34" on="0"/>
        <pt x="460" y="0" on="1"/>
        <pt x="363" y="0" on="1"/>
        <pt x="335" y="72" on="0"/>
        <pt x="249" y="194" on="0"/>
        <pt x="201" y="232" on="1"/>
        <pt x="145" y="0" on="1"/>
      </contour>
    </TTGlyph>
    <TTGlyph name="afii10077" xMin="5" yMin="-9" xMax="521" yMax="464">
      <contour>
        <pt x="311" y="395" on="1"/>
        <pt x="304" y="365" on="0"/>
        <pt x="285" y="298" on="0"/>
        <pt x="262" y="231" on="0"/>
        <pt x="234" y="166" on="0"/>
        <pt x="217" y="138" on="1"/>
        <pt x="200" y="110" on="0"/>
        <pt x="159" y="60" on="0"/>
        <pt x="107" y="21" on="0"/>
        <pt x="44" y="-5" on="0"/>
        <pt x="5" y="-9" on="1"/>
        <pt x="11" y="61" on="1"/>
        <pt x="56" y="69" on="0"/>
        <pt x="119" y="118" on="0"/>
        <pt x="142" y="153" on="1"/>
        <pt x="162" y="183" on="0"/>
        <pt x="194" y="259" on="0"/>
        <pt x="219" y="343" on="0"/>
        <pt x="240" y="427" on="0"/>
        <pt x="249" y="464" on="1"/>
        <pt x="521" y="464" on="1"/>
        <pt x="409" y="0" on="1"/>
        <pt x="327" y="0" on="1"/>
        <pt x="421" y="395" on="1"/>
      </contour>
    </TTGlyph>
    <TTGlyph name="afii10078" xMin="18" yMin="0" xMax="541" yMax="464">
      <contour>
        <pt x="191" y="342" on="1"/>
        <pt x="162" y="251" on="0"/>
        <pt x="120" y="78" on="0"/>
        <pt x="98" y="0" on="1"/>
        <pt x="18" y="0" on="1"/>
        <pt x="32" y="55" on="0"/>
        <pt x="67" y="173" on="0"/>
        <pt x="104" y="293" on="0"/>
        <pt x="144" y="411" on="0"/>
        <pt x="163" y="464" on="1"/>
        <pt x="239" y="464" on="1"/>
        <pt x="247" y="416" on="0"/>
        <pt x="267" y="262" on="0"/>
        <pt x="279" y="171" on="1"/>
        <pt x="336" y="267" on="0"/>
        <pt x="429" y="416" on="0"/>
        <pt x="460" y="464" on="1"/>
        <pt x="541" y="464" on="1"/>
        <pt x="535" y="411" on="0"/>
        <pt x="517" y="293" on="0"/>
        <pt x="497" y="173" on="0"/>
        <pt x="475" y="55" on="0"/>
        <pt x="463" y="0" on="1"/>
        <pt x="383" y="0" on="1"/>
        <pt x="391" y="39" on="0"/>
        <pt x="410" y="124" on="0"/>
        <pt x="429" y="212" on="0"/>
        <pt x="446" y="300" on="0"/>
        <pt x="453" y="342" on="1"/>
        <pt x="435" y="315" on="0"/>
        <pt x="403" y="263" on="0"/>
        <pt x="368" y="205" on="0"/>
        <pt x="328" y="139" on="0"/>
        <pt x="304" y="97" on="1"/>
        <pt x="221" y="97" on="1"/>
        <pt x="216" y="139" on="0"/>
        <pt x="209" y="204" on="0"/>
        <pt x="202" y="260" on="0"/>
        <pt x="195" y="313" on="0"/>
      </contour>
    </TTGlyph>
    <TTGlyph name="afii10079" xMin="54" yMin="0" xMax="521" yMax="464">
      <contour>
        <pt x="409" y="0" on="1"/>
        <pt x="327" y="0" on="1"/>
        <pt x="376" y="205" on="1"/>
        <pt x="185" y="205" on="1"/>
        <pt x="136" y="0" on="1"/>
        <pt x="54" y="0" on="1"/>
        <pt x="165" y="464" on="1"/>
        <pt x="247" y="464" on="1"/>
        <pt x="202" y="275" on="1"/>
        <pt x="393" y="275" on="1"/>
        <pt x="438" y="464" on="1"/>
        <pt x="521" y="464" on="1"/>
      </contour>
    </TTGlyph>
    <TTGlyph name="afii10080" xMin="80" yMin="-11" xMax="505" yMax="475">
      <component glyphName="o" x="0" y="0" flags="0x214"/>
    </TTGlyph>
    <TTGlyph name="afii10081" xMin="63" yMin="0" xMax="494" yMax="474">
      <component glyphName="n" x="0" y="0" flags="0x214"/>
    </TTGlyph>
    <TTGlyph name="afii10081.locl.ita" xMin="84" yMin="-10" xMax="560" yMax="633">
      <contour>
        <pt x="198" y="633" on="1"/>
        <pt x="560" y="633" on="1"/>
        <pt x="545" y="571" on="1"/>
        <pt x="183" y="571" on="1"/>
      </contour>
      <contour>
        <pt x="222" y="-10" on="1"/>
        <pt x="183" y="-10" on="0"/>
        <pt x="131" y="13" on="0"/>
        <pt x="98" y="52" on="0"/>
        <pt x="84" y="105" on="0"/>
        <pt x="84" y="135" on="1"/>
        <pt x="84" y="158" on="0"/>
        <pt x="92" y="204" on="0"/>
        <pt x="97" y="227" on="1"/>
        <pt x="154" y="464" on="1"/>
        <pt x="237" y="464" on="1"/>
        <pt x="184" y="245" on="1"/>
        <pt x="179" y="224" on="0"/>
        <pt x="166" y="169" on="0"/>
        <pt x="166" y="141" on="1"/>
        <pt x="166" y="125" on="0"/>
        <pt x="172" y="96" on="0"/>
        <pt x="188" y="73" on="0"/>
        <pt x="216" y="60" on="0"/>
        <pt x="238" y="60" on="1"/>
        <pt x="276" y="60" on="0"/>
        <pt x="336" y="93" on="0"/>
        <pt x="355" y="115" on="1"/>
        <pt x="356" y="129" on="0"/>
        <pt x="359" y="160" on="0"/>
        <pt x="364" y="178" on="1"/>
        <pt x="433" y="464" on="1"/>
        <pt x="515" y="464" on="1"/>
        <pt x="445" y="171" on="1"/>
        <pt x="440" y="150" on="0"/>
        <pt x="434" y="112" on="0"/>
        <pt x="434" y="91" on="1"/>
        <pt x="434" y="70" on="0"/>
        <pt x="441" y="30" on="0"/>
        <pt x="450" y="5" on="1"/>
        <pt x="377" y="-5" on="1"/>
        <pt x="372" y="5" on="0"/>
        <pt x="363" y="30" on="0"/>
        <pt x="361" y="44" on="1"/>
        <pt x="341" y="26" on="0"/>
        <pt x="273" y="-10" on="0"/>
      </contour>
    </TTGlyph>
    <TTGlyph name="afii10082" xMin="18" yMin="-165" xMax="505" yMax="475">
      <component glyphName="p" x="0" y="0" flags="0x214"/>
    </TTGlyph>
    <TTGlyph name="afii10083" xMin="71" yMin="-12" xMax="511" yMax="476">
      <component glyphName="c" x="0" y="0" flags="0x214"/>
    </TTGlyph>
    <TTGlyph name="afii10084" xMin="31" yMin="0" xMax="523" yMax="474">
      <component glyphName="m" x="0" y="0" flags="0x214"/>
    </TTGlyph>
    <TTGlyph name="afii10084.locl.ita" xMin="35" yMin="-12" xMax="569" yMax="633">
      <contour>
        <pt x="169" y="633" on="1"/>
        <pt x="569" y="633" on="1"/>
        <pt x="554" y="571" on="1"/>
        <pt x="154" y="571" on="1"/>
      </contour>
      <contour>
        <pt x="131" y="179" on="1"/>
        <pt x="116" y="115" on="0"/>
        <pt x="127" y="58" on="0"/>
        <pt x="159" y="58" on="1"/>
        <pt x="173" y="58" on="0"/>
        <pt x="200" y="73" on="0"/>
        <pt x="212" y="85" on="1"/>
        <pt x="210" y="125" on="0"/>
        <pt x="222" y="175" on="1"/>
        <pt x="264" y="357" on="1"/>
        <pt x="339" y="357" on="1"/>
        <pt x="297" y="179" on="1"/>
        <pt x="282" y="115" on="0"/>
        <pt x="291" y="58" on="0"/>
        <pt x="325" y="58" on="1"/>
        <pt x="342" y="58" on="0"/>
        <pt x="368" y="89" on="0"/>
        <pt x="377" y="112" on="1"/>
        <pt x="378" y="129" on="0"/>
        <pt x="383" y="161" on="0"/>
        <pt x="388" y="178" on="1"/>
        <pt x="456" y="464" on="1"/>
        <pt x="530" y="464" on="1"/>
        <pt x="460" y="170" on="1"/>
        <pt x="450" y="130" on="0"/>
        <pt x="448" y="55" on="0"/>
        <pt x="465" y="5" on="1"/>
        <pt x="400" y="-4" on="1"/>
        <pt x="396" y="2" on="0"/>
        <pt x="390" y="22" on="0"/>
        <pt x="388" y="30" on="1"/>
        <pt x="375" y="16" on="0"/>
        <pt x="335" y="-12" on="0"/>
        <pt x="309" y="-12" on="1"/>
        <pt x="253" y="-12" on="0"/>
        <pt x="229" y="23" on="1"/>
        <pt x="214" y="9" on="0"/>
        <pt x="169" y="-12" on="0"/>
        <pt x="143" y="-12" on="1"/>
        <pt x="75" y="-12" on="0"/>
        <pt x="35" y="85" on="0"/>
        <pt x="56" y="175" on="1"/>
        <pt x="125" y="464" on="1"/>
        <pt x="200" y="464" on="1"/>
      </contour>
    </TTGlyph>
    <TTGlyph name="afii10085" xMin="-18" yMin="-168" xMax="536" yMax="464">
      <component glyphName="y" x="0" y="0" flags="0x214"/>
    </TTGlyph>
    <TTGlyph name="afii10086" xMin="63" yMin="-165" xMax="529" yMax="693">
      <contour>
        <pt x="293" y="67" on="1"/>
        <pt x="330" y="68" on="0"/>
        <pt x="388" y="106" on="0"/>
        <pt x="427" y="166" on="0"/>
        <pt x="448" y="241" on="0"/>
        <pt x="448" y="277" on="1"/>
        <pt x="448" y="322" on="0"/>
        <pt x="413" y="389" on="0"/>
        <pt x="371" y="397" on="1"/>
      </contour>
      <contour>
        <pt x="366" y="679" on="1"/>
        <pt x="443" y="693" on="1"/>
        <pt x="388" y="467" on="1"/>
        <pt x="428" y="459" on="0"/>
        <pt x="482" y="426" on="0"/>
        <pt x="515" y="376" on="0"/>
        <pt x="529" y="312" on="0"/>
        <pt x="529" y="274" on="1"/>
        <pt x="529" y="221" on="0"/>
        <pt x="494" y="121" on="0"/>
        <pt x="428" y="44" on="0"/>
        <pt x="334" y="-3" on="0"/>
        <pt x="276" y="-3" on="1"/>
        <pt x="237" y="-165" on="1"/>
        <pt x="163" y="-165" on="1"/>
        <pt x="203" y="-3" on="1"/>
        <pt x="163" y="5" on="0"/>
        <pt x="110" y="38" on="0"/>
        <pt x="77" y="88" on="0"/>
        <pt x="63" y="152" on="0"/>
        <pt x="63" y="190" on="1"/>
        <pt x="63" y="243" on="0"/>
        <pt x="98" y="343" on="0"/>
        <pt x="163" y="420" on="0"/>
        <pt x="256" y="467" on="0"/>
        <pt x="315" y="467" on="1"/>
      </contour>
      <contour>
        <pt x="298" y="397" on="1"/>
        <pt x="261" y="397" on="0"/>
        <pt x="203" y="358" on="0"/>
        <pt x="164" y="298" on="0"/>
        <pt x="143" y="224" on="0"/>
        <pt x="143" y="188" on="1"/>
        <pt x="143" y="144" on="0"/>
        <pt x="179" y="75" on="0"/>
        <pt x="220" y="67" on="1"/>
      </contour>
    </TTGlyph>
    <TTGlyph name="afii10087" xMin="18" yMin="0" xMax="542" yMax="464">
      <component glyphName="x" x="0" y="0" flags="0x214"/>
    </TTGlyph>
    <TTGlyph name="afii10088" xMin="79" yMin="-129" xMax="489" yMax="464">
      <contour>
        <pt x="217" y="-10" on="1"/>
        <pt x="178" y="-10" on="0"/>
        <pt x="125" y="13" on="0"/>
        <pt x="93" y="52" on="0"/>
        <pt x="79" y="105" on="0"/>
        <pt x="79" y="135" on="1"/>
        <pt x="79" y="158" on="0"/>
        <pt x="87" y="204" on="0"/>
        <pt x="92" y="227" on="1"/>
        <pt x="149" y="464" on="1"/>
        <pt x="231" y="464" on="1"/>
        <pt x="179" y="245" on="1"/>
        <pt x="174" y="224" on="0"/>
        <pt x="161" y="169" on="0"/>
        <pt x="161" y="141" on="1"/>
        <pt x="161" y="125" on="0"/>
        <pt x="167" y="96" on="0"/>
        <pt x="183" y="73" on="0"/>
        <pt x="211" y="60" on="0"/>
        <pt x="233" y="60" on="1"/>
        <pt x="265" y="60" on="0"/>
        <pt x="312" y="89" on="0"/>
        <pt x="329" y="112" on="1"/>
        <pt x="330" y="143" on="0"/>
        <pt x="338" y="178" on="1"/>
        <pt x="407" y="464" on="1"/>
        <pt x="489" y="464" on="1"/>
        <pt x="421" y="182" on="1"/>
        <pt x="416" y="162" on="0"/>
        <pt x="410" y="125" on="0"/>
        <pt x="416" y="94" on="0"/>
        <pt x="441" y="73" on="0"/>
        <pt x="468" y="70" on="1"/>
        <pt x="421" y="-129" on="1"/>
        <pt x="342" y="-129" on="1"/>
        <pt x="374" y="9" on="1"/>
        <pt x="358" y="18" on="0"/>
        <pt x="348" y="46" on="1"/>
        <pt x="341" y="38" on="0"/>
        <pt x="318" y="18" on="0"/>
        <pt x="285" y="1" on="0"/>
        <pt x="242" y="-10" on="0"/>
      </contour>
    </TTGlyph>
    <TTGlyph name="afii10089" xMin="102" yMin="0" xMax="521" yMax="464">
      <contour>
        <pt x="228" y="464" on="1"/>
        <pt x="195" y="328" on="1"/>
        <pt x="182" y="274" on="0"/>
        <pt x="218" y="231" on="0"/>
        <pt x="268" y="231" on="1"/>
        <pt x="304" y="231" on="0"/>
        <pt x="366" y="238" on="0"/>
        <pt x="386" y="243" on="1"/>
        <pt x="438" y="464" on="1"/>
        <pt x="521" y="464" on="1"/>
        <pt x="409" y="0" on="1"/>
        <pt x="327" y="0" on="1"/>
        <pt x="370" y="179" on="1"/>
        <pt x="362" y="177" on="0"/>
        <pt x="336" y="172" on="0"/>
        <pt x="304" y="168" on="0"/>
        <pt x="269" y="164" on="0"/>
        <pt x="253" y="164" on="1"/>
        <pt x="215" y="164" on="0"/>
        <pt x="153" y="180" on="0"/>
        <pt x="114" y="218" on="0"/>
        <pt x="102" y="281" on="0"/>
        <pt x="113" y="327" on="1"/>
        <pt x="146" y="464" on="1"/>
      </contour>
    </TTGlyph>
    <TTGlyph name="afii10090" xMin="35" yMin="-12" xMax="530" yMax="464">
      <contour>
        <pt x="131" y="179" on="1"/>
        <pt x="116" y="115" on="0"/>
        <pt x="127" y="58" on="0"/>
        <pt x="159" y="58" on="1"/>
        <pt x="173" y="58" on="0"/>
        <pt x="200" y="73" on="0"/>
        <pt x="212" y="85" on="1"/>
        <pt x="210" y="125" on="0"/>
        <pt x="222" y="175" on="1"/>
        <pt x="264" y="357" on="1"/>
        <pt x="339" y="357" on="1"/>
        <pt x="297" y="179" on="1"/>
        <pt x="282" y="115" on="0"/>
        <pt x="291" y="58" on="0"/>
        <pt x="325" y="58" on="1"/>
        <pt x="342" y="58" on="0"/>
        <pt x="368" y="89" on="0"/>
        <pt x="377" y="112" on="1"/>
        <pt x="378" y="129" on="0"/>
        <pt x="383" y="161" on="0"/>
        <pt x="388" y="178" on="1"/>
        <pt x="456" y="464" on="1"/>
        <pt x="530" y="464" on="1"/>
        <pt x="460" y="170" on="1"/>
        <pt x="450" y="130" on="0"/>
        <pt x="448" y="55" on="0"/>
        <pt x="465" y="5" on="1"/>
        <pt x="400" y="-4" on="1"/>
        <pt x="396" y="2" on="0"/>
        <pt x="390" y="22" on="0"/>
        <pt x="388" y="30" on="1"/>
        <pt x="375" y="16" on="0"/>
        <pt x="335" y="-12" on="0"/>
        <pt x="309" y="-12" on="1"/>
        <pt x="253" y="-12" on="0"/>
        <pt x="229" y="23" on="1"/>
        <pt x="214" y="9" on="0"/>
        <pt x="169" y="-12" on="0"/>
        <pt x="143" y="-12" on="1"/>
        <pt x="75" y="-12" on="0"/>
        <pt x="35" y="85" on="0"/>
        <pt x="56" y="175" on="1"/>
        <pt x="125" y="464" on="1"/>
        <pt x="200" y="464" on="1"/>
      </contour>
    </TTGlyph>
    <TTGlyph name="afii10091" xMin="35" yMin="-129" xMax="530" yMax="464">
      <contour>
        <pt x="131" y="179" on="1"/>
        <pt x="116" y="115" on="0"/>
        <pt x="124" y="58" on="0"/>
        <pt x="159" y="58" on="1"/>
        <pt x="173" y="58" on="0"/>
        <pt x="200" y="73" on="0"/>
        <pt x="212" y="85" on="1"/>
        <pt x="210" y="125" on="0"/>
        <pt x="222" y="175" on="1"/>
        <pt x="264" y="357" on="1"/>
        <pt x="339" y="357" on="1"/>
        <pt x="297" y="179" on="1"/>
        <pt x="282" y="115" on="0"/>
        <pt x="290" y="58" on="0"/>
        <pt x="325" y="58" on="1"/>
        <pt x="342" y="58" on="0"/>
        <pt x="368" y="89" on="0"/>
        <pt x="377" y="112" on="1"/>
        <pt x="378" y="129" on="0"/>
        <pt x="383" y="161" on="0"/>
        <pt x="388" y="178" on="1"/>
        <pt x="456" y="464" on="1"/>
        <pt x="530" y="464" on="1"/>
        <pt x="463" y="182" on="1"/>
        <pt x="458" y="162" on="0"/>
        <pt x="452" y="125" on="0"/>
        <pt x="458" y="94" on="0"/>
        <pt x="483" y="73" on="0"/>
        <pt x="510" y="70" on="1"/>
        <pt x="463" y="-129" on="1"/>
        <pt x="384" y="-129" on="1"/>
        <pt x="418" y="16" on="1"/>
        <pt x="405" y="24" on="0"/>
        <pt x="396" y="46" on="1"/>
        <pt x="391" y="38" on="0"/>
        <pt x="376" y="18" on="0"/>
        <pt x="354" y="0" on="0"/>
        <pt x="326" y="-12" on="0"/>
        <pt x="309" y="-12" on="1"/>
        <pt x="253" y="-12" on="0"/>
        <pt x="229" y="23" on="1"/>
        <pt x="214" y="9" on="0"/>
        <pt x="169" y="-12" on="0"/>
        <pt x="143" y="-12" on="1"/>
        <pt x="75" y="-12" on="0"/>
        <pt x="35" y="85" on="0"/>
        <pt x="56" y="175" on="1"/>
        <pt x="125" y="464" on="1"/>
        <pt x="200" y="464" on="1"/>
      </contour>
    </TTGlyph>
    <TTGlyph name="afii10092" xMin="104" yMin="-10" xMax="489" yMax="464">
      <contour>
        <pt x="255" y="288" on="1"/>
        <pt x="270" y="291" on="0"/>
        <pt x="317" y="297" on="0"/>
        <pt x="337" y="297" on="1"/>
        <pt x="410" y="297" on="0"/>
        <pt x="489" y="237" on="0"/>
        <pt x="489" y="171" on="1"/>
        <pt x="489" y="121" on="0"/>
        <pt x="453" y="53" on="0"/>
        <pt x="392" y="9" on="0"/>
        <pt x="311" y="-10" on="0"/>
        <pt x="266" y="-10" on="1"/>
        <pt x="221" y="-10" on="0"/>
        <pt x="136" y="0" on="0"/>
        <pt x="104" y="13" on="1"/>
        <pt x="199" y="395" on="1"/>
        <pt x="108" y="395" on="1"/>
        <pt x="125" y="464" on="1"/>
        <pt x="298" y="464" on="1"/>
      </contour>
      <contour>
        <pt x="313" y="231" on="1"/>
        <pt x="293" y="231" on="0"/>
        <pt x="252" y="227" on="0"/>
        <pt x="238" y="223" on="1"/>
        <pt x="198" y="62" on="1"/>
        <pt x="210" y="60" on="0"/>
        <pt x="244" y="56" on="0"/>
        <pt x="273" y="56" on="1"/>
        <pt x="335" y="56" on="0"/>
        <pt x="409" y="109" on="0"/>
        <pt x="409" y="163" on="1"/>
        <pt x="409" y="197" on="0"/>
        <pt x="364" y="231" on="0"/>
      </contour>
    </TTGlyph>
    <TTGlyph name="afii10093" xMin="29" yMin="-10" xMax="549" yMax="464">
      <contour>
        <pt x="136" y="464" on="1"/>
        <pt x="214" y="464" on="1"/>
        <pt x="171" y="287" on="1"/>
        <pt x="201" y="296" on="0"/>
        <pt x="230" y="296" on="1"/>
        <pt x="281" y="296" on="0"/>
        <pt x="351" y="229" on="0"/>
        <pt x="351" y="165" on="1"/>
        <pt x="351" y="130" on="0"/>
        <pt x="328" y="67" on="0"/>
        <pt x="282" y="19" on="0"/>
        <pt x="212" y="-10" on="0"/>
        <pt x="164" y="-10" on="1"/>
        <pt x="126" y="-10" on="0"/>
        <pt x="58" y="0" on="0"/>
        <pt x="29" y="13" on="1"/>
      </contour>
      <contour>
        <pt x="438" y="0" on="1"/>
        <pt x="359" y="0" on="1"/>
        <pt x="471" y="464" on="1"/>
        <pt x="549" y="464" on="1"/>
      </contour>
      <contour>
        <pt x="171" y="56" on="1"/>
        <pt x="222" y="56" on="0"/>
        <pt x="272" y="117" on="0"/>
        <pt x="272" y="160" on="1"/>
        <pt x="272" y="200" on="0"/>
        <pt x="235" y="231" on="0"/>
        <pt x="206" y="231" on="1"/>
        <pt x="183" y="231" on="0"/>
        <pt x="156" y="223" on="1"/>
        <pt x="118" y="62" on="1"/>
        <pt x="126" y="60" on="0"/>
        <pt x="151" y="56" on="0"/>
      </contour>
    </TTGlyph>
    <TTGlyph name="afii10094" xMin="72" yMin="-10" xMax="480" yMax="464">
      <contour>
        <pt x="311" y="297" on="1"/>
        <pt x="392" y="297" on="0"/>
        <pt x="480" y="237" on="0"/>
        <pt x="480" y="171" on="1"/>
        <pt x="480" y="121" on="0"/>
        <pt x="442" y="53" on="0"/>
        <pt x="376" y="9" on="0"/>
        <pt x="289" y="-10" on="0"/>
        <pt x="240" y="-10" on="1"/>
        <pt x="192" y="-10" on="0"/>
        <pt x="107" y="0" on="0"/>
        <pt x="72" y="13" on="1"/>
        <pt x="180" y="464" on="1"/>
        <pt x="263" y="464" on="1"/>
        <pt x="220" y="287" on="1"/>
        <pt x="237" y="292" on="0"/>
        <pt x="288" y="297" on="0"/>
      </contour>
      <contour>
        <pt x="166" y="62" on="1"/>
        <pt x="180" y="60" on="0"/>
        <pt x="215" y="56" on="0"/>
        <pt x="247" y="56" on="1"/>
        <pt x="316" y="56" on="0"/>
        <pt x="400" y="109" on="0"/>
        <pt x="400" y="163" on="1"/>
        <pt x="400" y="197" on="0"/>
        <pt x="348" y="231" on="0"/>
        <pt x="288" y="231" on="1"/>
        <pt x="241" y="231" on="0"/>
        <pt x="204" y="223" on="1"/>
      </contour>
    </TTGlyph>
    <TTGlyph name="afii10095" xMin="68" yMin="-12" xMax="496" yMax="476">
      <contour>
        <pt x="413" y="272" on="1"/>
        <pt x="413" y="284" on="1"/>
        <pt x="413" y="311" on="0"/>
        <pt x="400" y="355" on="0"/>
        <pt x="369" y="386" on="0"/>
        <pt x="319" y="404" on="0"/>
        <pt x="282" y="404" on="1"/>
        <pt x="265" y="404" on="0"/>
        <pt x="231" y="399" on="0"/>
        <pt x="200" y="392" on="0"/>
        <pt x="175" y="383" on="0"/>
        <pt x="169" y="380" on="1"/>
        <pt x="163" y="451" on="1"/>
        <pt x="175" y="456" on="0"/>
        <pt x="250" y="476" on="0"/>
        <pt x="300" y="476" on="1"/>
        <pt x="353" y="476" on="0"/>
        <pt x="427" y="445" on="0"/>
        <pt x="474" y="394" on="0"/>
        <pt x="496" y="329" on="0"/>
        <pt x="496" y="296" on="1"/>
        <pt x="496" y="234" on="0"/>
        <pt x="463" y="122" on="0"/>
        <pt x="391" y="38" on="0"/>
        <pt x="278" y="-12" on="0"/>
        <pt x="199" y="-12" on="1"/>
        <pt x="154" y="-12" on="0"/>
        <pt x="89" y="2" on="0"/>
        <pt x="68" y="13" on="1"/>
        <pt x="94" y="84" on="1"/>
        <pt x="109" y="76" on="0"/>
        <pt x="162" y="61" on="0"/>
        <pt x="205" y="61" on="1"/>
        <pt x="289" y="61" on="0"/>
        <pt x="388" y="143" on="0"/>
        <pt x="405" y="205" on="1"/>
        <pt x="184" y="205" on="1"/>
        <pt x="200" y="272" on="1"/>
      </contour>
    </TTGlyph>
</ttFont>
